<svg xmlns="http://www.w3.org/2000/svg" viewBox="0 0 750 500"><g id="freepik--background-complete--inject-16"><path d="M58,389.32c3.17-1.17,230.23-1.81,230.23-1.81a36.32,36.32,0,0,0-43.93-49.78A31.56,31.56,0,0,0,192,308.47c-5-11.28-11.58-22.21-21.39-29.67s-23.31-10.91-34.8-6.44-19.42,18.07-15.38,29.71a32.26,32.26,0,0,0-42.42,41.58,28.22,28.22,0,0,0-22.88,15c-4.34,8.51-2.24,22.56,2.86,30.63" style="fill:#ebebeb"></path><path d="M461.54,389.49c3.16-1.17,230.47-1,230.47-1a36.32,36.32,0,0,0-43.93-49.78,31.56,31.56,0,0,0-52.29-29.26c-5-11.28-11.58-22.21-21.39-29.67s-23.32-10.91-34.8-6.44-19.42,18.07-15.38,29.71a32.27,32.27,0,0,0-42.43,41.58,27.66,27.66,0,0,0-21.61,42.4" style="fill:#ebebeb"></path><circle cx="387.23" cy="128.15" r="97.56" transform="translate(22.8 311.35) rotate(-45)" style="fill:#f5f5f5"></circle><path d="M649.58,86.82c.32-2.3-2.93-4.19-5.37-4.39a13.36,13.36,0,0,1-3.47-.3c-2.39-.83-3.34-3.91-5.67-4.9-1.75-.73-3.75-.08-5.44.77s-3.36,1.92-5.25,2c-1.64.11-3.42-.5-4.86.3-1.07.6-1.63,1.83-2.61,2.56a6.33,6.33,0,0,1-3.42.93,9.52,9.52,0,0,0-3.53.57,2.78,2.78,0,0,0-1.76,2.83Z" style="fill:#f5f5f5"></path><path d="M139.85,175.31c.32-2.3-2.93-4.19-5.37-4.39a13.36,13.36,0,0,1-3.47-.3c-2.39-.83-3.35-3.91-5.68-4.9-1.74-.73-3.74-.08-5.43.77s-3.36,1.92-5.25,2c-1.64.11-3.42-.5-4.86.3-1.07.6-1.63,1.83-2.61,2.56a6.33,6.33,0,0,1-3.42.93,9.52,9.52,0,0,0-3.53.57,2.8,2.8,0,0,0-1.77,2.83Z" style="fill:#f5f5f5"></path><path d="M678.65,192.5c.56-4-5.14-7.37-9.43-7.71-2-.17-4.17.14-6.1-.53-4.2-1.46-5.87-6.88-10-8.61-3-1.29-6.58-.14-9.54,1.35s-5.9,3.37-9.22,3.59c-2.88.18-6-.89-8.53.52-1.88,1-2.87,3.22-4.6,4.49s-3.9,1.52-6,1.63a17.15,17.15,0,0,0-6.19,1c-1.92.88-3.5,2.91-3.1,5Z" style="fill:#ebebeb"></path></g><g id="freepik--Plants--inject-16"><path d="M631.94,357.87S645,353.8,647,347.8C647,347.8,637.58,350,631.94,357.87Z" style="fill:#F79F1F"></path><path d="M637.16,325.82a19.33,19.33,0,0,0,2.21,13.62C642.3,333.52,637.16,325.82,637.16,325.82Z" style="fill:#F79F1F"></path><path d="M644.28,319.08a19.4,19.4,0,0,0-6.89-12C636.74,313.7,644.28,319.08,644.28,319.08Z" style="fill:#F79F1F"></path><path d="M636.37,316.54a19.37,19.37,0,0,0-13.71,1.55C628.43,321.3,636.37,316.54,636.37,316.54Z" style="fill:#F79F1F"></path><path d="M634.94,312.53a15.27,15.27,0,0,0-3.35-10.35C630,307.16,634.94,312.53,634.94,312.53Z" style="fill:#F79F1F"></path><path d="M662.35,301.77c-10.42,4.41-14.9,14.65-14.9,14.65C656.71,315.12,662.35,301.77,662.35,301.77Z" style="fill:#F79F1F"></path><path d="M645.42,307.55c-1.08-11.75-14.35-23.34-14.35-23.34,3.77,14.24,14.35,23.34,14.35,23.34" style="fill:#F79F1F"></path><path d="M640.25,280.42a31.59,31.59,0,0,0,6.46,16.14C647.26,288.82,640.25,280.42,640.25,280.42Z" style="fill:#F79F1F"></path><path d="M648,303.51c8.41-2.12,11.85-11.27,11.85-11.27C649.93,296.59,648,303.51,648,303.51Z" style="fill:#F79F1F"></path><path d="M670.42,329.37a19.39,19.39,0,0,0-13.78-.69C661.81,332.79,670.42,329.37,670.42,329.37Z" style="fill:#F79F1F"></path><path d="M648.85,336.32a12.61,12.61,0,0,0,6.64,5.65C654.57,338.09,648.85,336.32,648.85,336.32Z" style="fill:#F79F1F"></path><path d="M649.77,334.91a15.31,15.31,0,0,0,10.46.38C656.46,332.33,649.77,334.91,649.77,334.91Z" style="fill:#F79F1F"></path><path d="M630.94,342.39c-1.76-4.14-6.16-7.08-6.16-7.08C626.87,341.2,630.94,342.39,630.94,342.39Z" style="fill:#F79F1F"></path><path d="M625.5,348.42c5.52-.71,7-4.3,7-4.3C628.57,344.9,625.5,348.42,625.5,348.42Z" style="fill:#F79F1F"></path><path d="M625.19,331.05c3.42,4.33,7.15,4.39,7.15,4.39A18.25,18.25,0,0,0,625.19,331.05Z" style="fill:#F79F1F"></path><path d="M652.37,375.58a.8.8,0,0,1-.07-.21l-.18-.62c-.15-.58-.37-1.38-.64-2.41s-.61-2.32-.94-3.82-.76-3.19-1.11-5.09c-.19-.95-.38-1.94-.58-3s-.37-2.12-.56-3.24c-.4-2.23-.7-4.64-1-7.17-.62-5.07-1.11-10.67-1.34-16.56s-.13-11.52.08-16.62c.07-1.27.13-2.52.19-3.73s.18-2.38.26-3.51c.15-2.26.38-4.37.57-6.29s.44-3.65.61-5.17.38-2.83.55-3.9.29-1.87.38-2.46c0-.26.08-.47.11-.64a.53.53,0,0,1,.05-.21s0,.07,0,.22,0,.38-.07.64c-.08.59-.18,1.42-.31,2.47s-.32,2.38-.48,3.9-.4,3.26-.55,5.18-.39,4-.53,6.29c-.08,1.13-.18,2.3-.24,3.5s-.11,2.45-.17,3.73c-.19,5.09-.27,10.7-.05,16.58s.71,11.47,1.3,16.54c.34,2.52.63,4.93,1,7.16.18,1.12.34,2.21.53,3.24s.38,2,.56,3c.33,1.9.73,3.6,1,5.09s.61,2.79.87,3.84.44,1.84.58,2.42c0,.26.1.46.13.63A.89.89,0,0,1,652.37,375.58Z" style="fill:#263238"></path><path d="M659.79,324.32c.08.08-2.94,3-6.72,6.42s-6.92,6.22-7,6.14,2.94-2.95,6.72-6.42S659.72,324.24,659.79,324.32Z" style="fill:#263238"></path><path d="M647,346.79c0,.1-5.3-1.18-11.78-2.85s-11.72-3.13-11.69-3.23,5.3,1.17,11.78,2.85S647.07,346.68,647,346.79Z" style="fill:#263238"></path><path d="M642.08,345.5a16.37,16.37,0,0,1-1.68-2c-1-1.25-2.35-3-3.82-4.93s-2.79-3.7-3.73-5a18.23,18.23,0,0,1-1.46-2.13,16,16,0,0,1,1.67,2c1,1.25,2.35,3,3.83,4.93s2.79,3.7,3.73,5A17.74,17.74,0,0,1,642.08,345.5Z" style="fill:#263238"></path><path d="M645.74,321.77a3.3,3.3,0,0,1-.7-.38c-.43-.27-1.06-.66-1.82-1.16-1.52-1-3.6-2.41-5.87-4s-4.3-3.07-5.75-4.18c-.72-.55-1.3-1-1.69-1.34a2.88,2.88,0,0,1-.58-.53s.25.12.67.41l1.76,1.24,5.81,4.09,5.81,4.08,1.74,1.26A3.89,3.89,0,0,1,645.74,321.77Z" style="fill:#263238"></path><path d="M612,337.31s6.3,6.3,13.87,3.87A16,16,0,0,0,612,337.31Z" style="fill:#F79F1F"></path><path d="M670,317.25s-8.84,1.07-11.59,8.54A16,16,0,0,0,670,317.25Z" style="fill:#F79F1F"></path><path d="M657.42,315.41s-6.45,6.13-4.21,13.77A16,16,0,0,0,657.42,315.41Z" style="fill:#F79F1F"></path><path d="M623.28,322.15s1.65,8.76,9.29,11A16.07,16.07,0,0,0,623.28,322.15Z" style="fill:#F79F1F"></path><path d="M618.78,302.19s4.23,9.47,13.48,10A18.68,18.68,0,0,0,618.78,302.19Z" style="fill:#F79F1F"></path><path d="M655.4,272.76s-10.22,8.92-7.29,20.68A24.43,24.43,0,0,0,655.4,272.76Z" style="fill:#F79F1F"></path><rect x="617.88" y="360.34" width="64.72" height="20.2" style="fill:#455a64"></rect><path d="M683.58,360.34c0,.14-15.11.26-33.75.26s-33.74-.12-33.74-.26,15.1-.27,33.74-.27S683.58,360.19,683.58,360.34Z" style="fill:#263238"></path><path d="M621.52,380.3a92.26,92.26,0,0,1-.26-9.89,92.26,92.26,0,0,1,.26-9.89,95.5,95.5,0,0,1,.26,9.89A95.5,95.5,0,0,1,621.52,380.3Z" style="fill:#263238"></path><path d="M630,380.3a95.5,95.5,0,0,1-.26-9.89,95.5,95.5,0,0,1,.26-9.89,92.26,92.26,0,0,1,.26,9.89A92.26,92.26,0,0,1,630,380.3Z" style="fill:#263238"></path><path d="M638.55,380.3a95.5,95.5,0,0,1-.26-9.89,95.5,95.5,0,0,1,.26-9.89,92.26,92.26,0,0,1,.26,9.89A92.26,92.26,0,0,1,638.55,380.3Z" style="fill:#263238"></path><path d="M647.07,380.3a95.5,95.5,0,0,1-.26-9.89,95.5,95.5,0,0,1,.26-9.89,95.5,95.5,0,0,1,.26,9.89A95.5,95.5,0,0,1,647.07,380.3Z" style="fill:#263238"></path><path d="M655.59,380.3a92.26,92.26,0,0,1-.26-9.89,92.26,92.26,0,0,1,.26-9.89,95.5,95.5,0,0,1,.26,9.89A95.5,95.5,0,0,1,655.59,380.3Z" style="fill:#263238"></path><path d="M664.1,380.3a95.5,95.5,0,0,1-.26-9.89,95.5,95.5,0,0,1,.26-9.89,92.26,92.26,0,0,1,.26,9.89A92.26,92.26,0,0,1,664.1,380.3Z" style="fill:#263238"></path><path d="M672.62,380.3a95.5,95.5,0,0,1-.26-9.89,95.5,95.5,0,0,1,.26-9.89,92.26,92.26,0,0,1,.26,9.89A92.26,92.26,0,0,1,672.62,380.3Z" style="fill:#263238"></path><path d="M681.14,380.3a95.5,95.5,0,0,1-.26-9.89,95.5,95.5,0,0,1,.26-9.89,95.5,95.5,0,0,1,.26,9.89A95.5,95.5,0,0,1,681.14,380.3Z" style="fill:#263238"></path><path d="M682.37,380.53c0,.15-14.49.26-32.35.26s-32.36-.11-32.36-.26,14.48-.26,32.36-.26S682.37,380.39,682.37,380.53Z" style="fill:#263238"></path><path d="M625.58,388.94a32.69,32.69,0,0,1,0-8.23,32.69,32.69,0,0,1,0,8.23Z" style="fill:#263238"></path><path d="M675.65,388.94a32.69,32.69,0,0,1,0-8.23,32.69,32.69,0,0,1,0,8.23Z" style="fill:#263238"></path><path d="M119.93,336.71A19.3,19.3,0,0,1,125.06,324C126.62,330.36,119.93,336.71,119.93,336.71Z" style="fill:#F79F1F"></path><path d="M127.38,333.11a19.25,19.25,0,0,1,13.74-.38C135.88,336.7,127.38,333.11,127.38,333.11Z" style="fill:#F79F1F"></path><path d="M128.23,329a15.23,15.23,0,0,1,1.87-10.68C132.35,323,128.23,329,128.23,329Z" style="fill:#F79F1F"></path><path d="M99.41,314c10.9,2.9,16.74,12.37,16.74,12.37C106.84,326.38,99.41,314,99.41,314Z" style="fill:#F79F1F"></path><path d="M116.81,318.47c-.56-11.74,10.91-25,10.91-25-1.73,14.57-10.91,25-10.91,25" style="fill:#F79F1F"></path><path d="M116.76,285a31.53,31.53,0,0,1-4.13,16.82C111,294.29,116.76,285,116.76,285Z" style="fill:#F79F1F"></path><path d="M112.33,308.88c-8.58-.92-13.25-9.46-13.25-9.46C109.46,302.33,112.33,308.88,112.33,308.88Z" style="fill:#F79F1F"></path><path d="M93.82,344.78a19.28,19.28,0,0,1,13.49-2.6C102.78,347,93.82,344.78,93.82,344.78Z" style="fill:#F79F1F"></path><path d="M116.06,348.63a12.64,12.64,0,0,1-5.77,6.5C110.66,351.17,116.06,348.63,116.06,348.63Z" style="fill:#F79F1F"></path><path d="M115,347.37a15.28,15.28,0,0,1-10.27,1.83C108,345.76,115,347.37,115,347.37Z" style="fill:#F79F1F"></path><path d="M119.35,363.17s0-.06,0-.17,0-.31,0-.51c0-.49,0-1.14,0-2s0-1.9,0-3.11,0-2.6-.09-4.12c-.07-3.06-.29-6.69-.6-10.71s-.84-8.43-1.51-13c-1.36-9.22-3.21-17.46-4.7-23.38-.75-3-1.39-5.35-1.85-7-.21-.8-.39-1.43-.51-1.9l-.12-.5c0-.11,0-.17,0-.17l.06.16c0,.13.1.29.16.49.15.46.34,1.09.59,1.88.5,1.63,1.18,4,2,7a217,217,0,0,1,4.82,23.39c.67,4.62,1.15,9,1.48,13.07s.48,7.67.52,10.73c0,1.53,0,2.91,0,4.13s0,2.26-.05,3.11,0,1.49-.06,2l0,.51C119.36,363.11,119.35,363.17,119.35,363.17Z" style="fill:#263238"></path><path d="M103.59,338.32c.06-.09,3.53,2.19,7.75,5.08s7.59,5.31,7.53,5.39-3.53-2.18-7.75-5.07S103.53,338.41,103.59,338.32Z" style="fill:#263238"></path><path d="M118.87,339.57a3.09,3.09,0,0,1,.53-.58L121,337.5l5.16-4.84,5.16-4.84,1.56-1.46a2.76,2.76,0,0,1,.61-.51,2.86,2.86,0,0,1-.5.61c-.34.38-.85.91-1.48,1.56-1.27,1.29-3.07,3-5.09,4.92s-3.88,3.57-5.24,4.76c-.68.6-1.23,1.08-1.62,1.4A3.31,3.31,0,0,1,118.87,339.57Z" style="fill:#263238"></path><path d="M92.57,332.76s8.87-.17,12.62,6.81A16,16,0,0,1,92.57,332.76Z" style="fill:#F79F1F"></path><path d="M104.69,329.2s7.22,5.15,6.07,13A15.94,15.94,0,0,1,104.69,329.2Z" style="fill:#F79F1F"></path><path d="M142.73,316.5s-2.85,9.93-11.9,11.71A18.59,18.59,0,0,1,142.73,316.5Z" style="fill:#F79F1F"></path><path d="M100.74,279.58S112.06,287,110.81,299A24.34,24.34,0,0,1,100.74,279.58Z" style="fill:#F79F1F"></path><path d="M138.41,345.25a4,4,0,0,1-.73.59c-.49.35-1.19.88-2,1.55a49.7,49.7,0,0,0-11.2,12.47c-.57.91-1,1.66-1.32,2.19a5.19,5.19,0,0,1-.51.79A4,4,0,0,1,123,362c.26-.55.68-1.32,1.23-2.26a43.28,43.28,0,0,1,5-6.83,43.89,43.89,0,0,1,6.25-5.71c.87-.65,1.6-1.15,2.12-1.46A5.21,5.21,0,0,1,138.41,345.25Z" style="fill:#263238"></path><path d="M128.57,352.62a19.26,19.26,0,0,1,2.59-13.49C132.38,347.54,128.57,352.62,128.57,352.62Z" style="fill:#F79F1F"></path><path d="M136.18,348.47a14.06,14.06,0,0,1,9.88-1.53A13.82,13.82,0,0,1,136.18,348.47Z" style="fill:#F79F1F"></path><rect x="87.58" y="361.12" width="64.26" height="20.06" style="fill:#455a64"></rect><path d="M152.83,361.12c0,.15-15,.26-33.51.26s-33.51-.11-33.51-.26,15-.26,33.51-.26S152.83,361,152.83,361.12Z" style="fill:#263238"></path><path d="M91.2,381a91,91,0,0,1-.26-9.82,90.83,90.83,0,0,1,.26-9.82,94,94,0,0,1,.26,9.82A94.18,94.18,0,0,1,91.2,381Z" style="fill:#263238"></path><path d="M99.66,381a89.31,89.31,0,0,1-.27-9.82,89.16,89.16,0,0,1,.27-9.82,94,94,0,0,1,.26,9.82A94.18,94.18,0,0,1,99.66,381Z" style="fill:#263238"></path><path d="M108.11,381a94.18,94.18,0,0,1-.26-9.82,94,94,0,0,1,.26-9.82,90.83,90.83,0,0,1,.26,9.82A91,91,0,0,1,108.11,381Z" style="fill:#263238"></path><path d="M116.57,381a94.18,94.18,0,0,1-.26-9.82,94,94,0,0,1,.26-9.82,90.83,90.83,0,0,1,.26,9.82A91,91,0,0,1,116.57,381Z" style="fill:#263238"></path><path d="M125,381a94.18,94.18,0,0,1-.26-9.82,94,94,0,0,1,.26-9.82,94,94,0,0,1,.26,9.82A94.18,94.18,0,0,1,125,381Z" style="fill:#263238"></path><path d="M133.49,381a91,91,0,0,1-.26-9.82,90.83,90.83,0,0,1,.26-9.82,94,94,0,0,1,.26,9.82A94.18,94.18,0,0,1,133.49,381Z" style="fill:#263238"></path><path d="M142,381a91,91,0,0,1-.26-9.82,90.83,90.83,0,0,1,.26-9.82,94,94,0,0,1,.26,9.82A94.18,94.18,0,0,1,142,381Z" style="fill:#263238"></path><path d="M150.4,381a94.18,94.18,0,0,1-.26-9.82,94,94,0,0,1,.26-9.82,90.83,90.83,0,0,1,.26,9.82A91,91,0,0,1,150.4,381Z" style="fill:#263238"></path><path d="M151.62,381.18c0,.14-14.38.26-32.12.26s-32.13-.12-32.13-.26,14.38-.26,32.13-.26S151.62,381,151.62,381.18Z" style="fill:#263238"></path><path d="M95.23,388.94a27.83,27.83,0,0,1,0-7.59,27.83,27.83,0,0,1,0,7.59Z" style="fill:#263238"></path><path d="M145,388.78a26.67,26.67,0,0,1,0-7.43,26.67,26.67,0,0,1,0,7.43Z" style="fill:#263238"></path></g><g id="freepik--senso-ji-temple--inject-16"><polygon points="228 246.94 228 360.1 309.2 360.1 309.2 279.81 468.71 279.81 468.71 360.1 545.75 360.1 545.75 246.94 228 246.94" style="fill:#F79F1F"></polygon><polygon points="228 246.94 228 360.1 309.2 360.1 309.2 279.81 468.71 279.81 468.71 360.1 545.75 360.1 545.75 246.94 228 246.94" style="opacity:0.30000000000000004"></polygon><rect x="233.85" y="245.21" width="307.67" height="25.51" style="fill:#f5f5f5"></rect><rect x="171.83" y="237.2" width="409.98" height="9.73" style="fill:#F79F1F"></rect><rect x="233.85" y="147.75" width="297.62" height="53.96" style="fill:#F79F1F"></rect><rect x="244.45" y="158.61" width="273.29" height="23.86" style="fill:#fff"></rect><path d="M519.93,163.25H243.84v2.83H519.93Z" style="fill:#F79F1F"></path><path d="M519.93,170.18H243.84V173H519.93Z" style="fill:#F79F1F"></path><polygon points="478.74 183.51 481.06 173.01 483.63 173.01 486.04 183.51 478.74 183.51" style="fill:#F79F1F"></polygon><rect x="477.1" y="162.28" width="2.33" height="9.94" style="fill:#F79F1F"></rect><rect x="485.03" y="162.28" width="2.33" height="9.94" style="fill:#F79F1F"></rect><polygon points="424.21 183.51 426.54 173.01 429.11 173.01 431.52 183.51 424.21 183.51" style="fill:#F79F1F"></polygon><rect x="422.58" y="162.28" width="2.33" height="9.94" style="fill:#F79F1F"></rect><rect x="430.51" y="162.28" width="2.33" height="9.94" style="fill:#F79F1F"></rect><polygon points="374.63 183.51 376.95 173.01 379.52 173.01 381.93 183.51 374.63 183.51" style="fill:#F79F1F"></polygon><rect x="372.99" y="162.28" width="2.33" height="9.94" style="fill:#F79F1F"></rect><rect x="380.92" y="162.28" width="2.33" height="9.94" style="fill:#F79F1F"></rect><polygon points="324.37 183.51 326.69 173.01 329.26 173.01 331.67 183.51 324.37 183.51" style="fill:#F79F1F"></polygon><rect x="322.73" y="162.28" width="2.33" height="9.94" style="fill:#F79F1F"></rect><rect x="330.66" y="162.28" width="2.33" height="9.94" style="fill:#F79F1F"></rect><polygon points="275.23 183.51 277.55 173.01 280.12 173.01 282.53 183.51 275.23 183.51" style="fill:#F79F1F"></polygon><rect x="273.59" y="162.28" width="2.33" height="9.94" style="fill:#F79F1F"></rect><rect x="281.52" y="162.28" width="2.33" height="9.94" style="fill:#F79F1F"></rect><rect x="247.01" y="150" width="8.59" height="39.65" style="fill:#F79F1F"></rect><rect x="298.32" y="150" width="8.59" height="39.65" style="fill:#F79F1F"></rect><rect x="349.64" y="150" width="8.59" height="39.65" style="fill:#F79F1F"></rect><rect x="400.95" y="150" width="8.59" height="39.65" style="fill:#F79F1F"></rect><rect x="452.27" y="150" width="8.59" height="39.65" style="fill:#F79F1F"></rect><rect x="503.58" y="150" width="8.59" height="39.65" style="fill:#F79F1F"></rect><g style="opacity:0.30000000000000004"><rect x="247.01" y="150" width="8.59" height="39.65"></rect><rect x="298.32" y="150" width="8.59" height="39.65"></rect><rect x="349.64" y="150" width="8.59" height="39.65"></rect><rect x="400.95" y="150" width="8.59" height="39.65"></rect><rect x="452.27" y="150" width="8.59" height="39.65"></rect><rect x="503.58" y="150" width="8.59" height="39.65"></rect></g><rect x="200.75" y="135.33" width="365.59" height="14.67" style="fill:#F79F1F"></rect><path d="M567,150.11c0,.14-82.06.26-183.27.26s-183.29-.12-183.29-.26,82.05-.26,183.29-.26S567,150,567,150.11Z" style="fill:#455a64"></path><path d="M212.44,149.83a15.8,15.8,0,0,1-.26-4,15.75,15.75,0,0,1,.26-4,15.22,15.22,0,0,1,.26,4A15.27,15.27,0,0,1,212.44,149.83Z" style="fill:#fff"></path><path d="M218.61,149.83a15.8,15.8,0,0,1-.26-4,15.75,15.75,0,0,1,.26-4,15.75,15.75,0,0,1,.26,4A15.8,15.8,0,0,1,218.61,149.83Z" style="fill:#fff"></path><path d="M224.78,149.83a15.27,15.27,0,0,1-.26-4,15.22,15.22,0,0,1,.26-4,15.75,15.75,0,0,1,.26,4A15.8,15.8,0,0,1,224.78,149.83Z" style="fill:#fff"></path><path d="M231,149.83a15.27,15.27,0,0,1-.26-4,15.22,15.22,0,0,1,.26-4,15.75,15.75,0,0,1,.26,4A15.8,15.8,0,0,1,231,149.83Z" style="fill:#fff"></path><path d="M237.11,149.83a15.8,15.8,0,0,1-.26-4,15.75,15.75,0,0,1,.26-4,15.22,15.22,0,0,1,.26,4A15.27,15.27,0,0,1,237.11,149.83Z" style="fill:#fff"></path><path d="M243.28,149.83a15.8,15.8,0,0,1-.26-4,15.75,15.75,0,0,1,.26-4,15.22,15.22,0,0,1,.26,4A15.27,15.27,0,0,1,243.28,149.83Z" style="fill:#fff"></path><path d="M249.45,149.83a15.8,15.8,0,0,1-.26-4,15.75,15.75,0,0,1,.26-4,15.75,15.75,0,0,1,.26,4A15.8,15.8,0,0,1,249.45,149.83Z" style="fill:#fff"></path><path d="M255.62,149.83a15.27,15.27,0,0,1-.26-4,15.22,15.22,0,0,1,.26-4,15.75,15.75,0,0,1,.26,4A15.8,15.8,0,0,1,255.62,149.83Z" style="fill:#fff"></path><path d="M261.78,149.83a15.8,15.8,0,0,1-.26-4,15.75,15.75,0,0,1,.26-4,15,15,0,0,1,.27,4A15,15,0,0,1,261.78,149.83Z" style="fill:#fff"></path><path d="M268,149.83a15.8,15.8,0,0,1-.26-4,15.75,15.75,0,0,1,.26-4,15.22,15.22,0,0,1,.26,4A15.27,15.27,0,0,1,268,149.83Z" style="fill:#fff"></path><path d="M274.12,149.83a15.8,15.8,0,0,1-.26-4,15.75,15.75,0,0,1,.26-4,15.75,15.75,0,0,1,.26,4A15.8,15.8,0,0,1,274.12,149.83Z" style="fill:#fff"></path><path d="M280.29,149.83a15.27,15.27,0,0,1-.26-4,15.22,15.22,0,0,1,.26-4,15.75,15.75,0,0,1,.26,4A15.8,15.8,0,0,1,280.29,149.83Z" style="fill:#fff"></path><path d="M286.46,149.83a15.27,15.27,0,0,1-.26-4,15.22,15.22,0,0,1,.26-4,15.75,15.75,0,0,1,.26,4A15.8,15.8,0,0,1,286.46,149.83Z" style="fill:#fff"></path><path d="M292.62,149.83a15.8,15.8,0,0,1-.26-4,15.75,15.75,0,0,1,.26-4,15.22,15.22,0,0,1,.26,4A15.27,15.27,0,0,1,292.62,149.83Z" style="fill:#fff"></path><path d="M298.79,149.83a15.8,15.8,0,0,1-.26-4,15.75,15.75,0,0,1,.26-4,15.22,15.22,0,0,1,.26,4A15.27,15.27,0,0,1,298.79,149.83Z" style="fill:#fff"></path><path d="M305,149.83a15.8,15.8,0,0,1-.26-4,15.75,15.75,0,0,1,.26-4,15.75,15.75,0,0,1,.26,4A15.8,15.8,0,0,1,305,149.83Z" style="fill:#fff"></path><path d="M311.13,149.83a15.27,15.27,0,0,1-.26-4,15.22,15.22,0,0,1,.26-4,15.75,15.75,0,0,1,.26,4A15.8,15.8,0,0,1,311.13,149.83Z" style="fill:#fff"></path><path d="M317.29,149.83a15.8,15.8,0,0,1-.26-4,15.75,15.75,0,0,1,.26-4,15,15,0,0,1,.27,4A15,15,0,0,1,317.29,149.83Z" style="fill:#fff"></path><path d="M323.46,149.83a15.8,15.8,0,0,1-.26-4,15.75,15.75,0,0,1,.26-4,15.22,15.22,0,0,1,.26,4A15.27,15.27,0,0,1,323.46,149.83Z" style="fill:#fff"></path><path d="M329.63,149.83a15.8,15.8,0,0,1-.26-4,15.75,15.75,0,0,1,.26-4,15.75,15.75,0,0,1,.26,4A15.8,15.8,0,0,1,329.63,149.83Z" style="fill:#fff"></path><path d="M335.8,149.83a15.27,15.27,0,0,1-.26-4,15.22,15.22,0,0,1,.26-4,15.75,15.75,0,0,1,.26,4A15.8,15.8,0,0,1,335.8,149.83Z" style="fill:#fff"></path><path d="M342,149.83a15.27,15.27,0,0,1-.26-4,15.22,15.22,0,0,1,.26-4,15.75,15.75,0,0,1,.26,4A15.8,15.8,0,0,1,342,149.83Z" style="fill:#fff"></path><path d="M348.13,149.83a15.8,15.8,0,0,1-.26-4,15.75,15.75,0,0,1,.26-4,15.22,15.22,0,0,1,.26,4A15.27,15.27,0,0,1,348.13,149.83Z" style="fill:#fff"></path><path d="M354.3,149.83a15.8,15.8,0,0,1-.26-4,15.75,15.75,0,0,1,.26-4,15.22,15.22,0,0,1,.26,4A15.27,15.27,0,0,1,354.3,149.83Z" style="fill:#fff"></path><path d="M360.47,149.83a15.8,15.8,0,0,1-.26-4,15.75,15.75,0,0,1,.26-4,15.75,15.75,0,0,1,.26,4A15.8,15.8,0,0,1,360.47,149.83Z" style="fill:#fff"></path><path d="M366.64,149.83a15.27,15.27,0,0,1-.26-4,15.22,15.22,0,0,1,.26-4,15.75,15.75,0,0,1,.26,4A15.8,15.8,0,0,1,366.64,149.83Z" style="fill:#fff"></path><path d="M372.8,149.83a15.8,15.8,0,0,1-.26-4,15.75,15.75,0,0,1,.26-4,15.22,15.22,0,0,1,.26,4A15.27,15.27,0,0,1,372.8,149.83Z" style="fill:#fff"></path><path d="M379,149.83a15.8,15.8,0,0,1-.26-4,15.75,15.75,0,0,1,.26-4,15.22,15.22,0,0,1,.26,4A15.27,15.27,0,0,1,379,149.83Z" style="fill:#fff"></path><path d="M385.14,149.83a15.8,15.8,0,0,1-.26-4,15.75,15.75,0,0,1,.26-4,15.75,15.75,0,0,1,.26,4A15.8,15.8,0,0,1,385.14,149.83Z" style="fill:#fff"></path><path d="M391.31,149.83a15.27,15.27,0,0,1-.26-4,15.22,15.22,0,0,1,.26-4,15.75,15.75,0,0,1,.26,4A15.8,15.8,0,0,1,391.31,149.83Z" style="fill:#fff"></path><path d="M397.48,149.83a15.27,15.27,0,0,1-.26-4,15.22,15.22,0,0,1,.26-4,15.75,15.75,0,0,1,.26,4A15.8,15.8,0,0,1,397.48,149.83Z" style="fill:#fff"></path><path d="M403.64,149.83a15.8,15.8,0,0,1-.26-4,15.75,15.75,0,0,1,.26-4,15.22,15.22,0,0,1,.26,4A15.27,15.27,0,0,1,403.64,149.83Z" style="fill:#fff"></path><path d="M409.81,149.83a15.8,15.8,0,0,1-.26-4,15.75,15.75,0,0,1,.26-4,15.75,15.75,0,0,1,.26,4A15.8,15.8,0,0,1,409.81,149.83Z" style="fill:#fff"></path><path d="M416,149.83a15.8,15.8,0,0,1-.26-4,15.75,15.75,0,0,1,.26-4,15.75,15.75,0,0,1,.26,4A15.8,15.8,0,0,1,416,149.83Z" style="fill:#fff"></path><path d="M422.15,149.83a15.27,15.27,0,0,1-.26-4,15.22,15.22,0,0,1,.26-4,15.75,15.75,0,0,1,.26,4A15.8,15.8,0,0,1,422.15,149.83Z" style="fill:#fff"></path><path d="M428.31,149.83a15.8,15.8,0,0,1-.26-4,15.75,15.75,0,0,1,.26-4,15.22,15.22,0,0,1,.26,4A15.27,15.27,0,0,1,428.31,149.83Z" style="fill:#fff"></path><path d="M434.48,149.83a15.8,15.8,0,0,1-.26-4,15.75,15.75,0,0,1,.26-4,15.22,15.22,0,0,1,.26,4A15.27,15.27,0,0,1,434.48,149.83Z" style="fill:#fff"></path><path d="M440.65,149.83a15.8,15.8,0,0,1-.26-4,15.75,15.75,0,0,1,.26-4,15.75,15.75,0,0,1,.26,4A15.8,15.8,0,0,1,440.65,149.83Z" style="fill:#fff"></path><path d="M446.82,149.83a15.27,15.27,0,0,1-.26-4,15.22,15.22,0,0,1,.26-4,15.75,15.75,0,0,1,.26,4A15.8,15.8,0,0,1,446.82,149.83Z" style="fill:#fff"></path><path d="M453,149.83a15.27,15.27,0,0,1-.26-4,15.22,15.22,0,0,1,.26-4,15.75,15.75,0,0,1,.26,4A15.8,15.8,0,0,1,453,149.83Z" style="fill:#fff"></path><path d="M459.15,149.83a15.8,15.8,0,0,1-.26-4,15.75,15.75,0,0,1,.26-4,15.22,15.22,0,0,1,.26,4A15.27,15.27,0,0,1,459.15,149.83Z" style="fill:#fff"></path><path d="M465.32,149.83a15.8,15.8,0,0,1-.26-4,15.75,15.75,0,0,1,.26-4,15.75,15.75,0,0,1,.26,4A15.8,15.8,0,0,1,465.32,149.83Z" style="fill:#fff"></path><path d="M471.49,149.83a15.8,15.8,0,0,1-.26-4,15.75,15.75,0,0,1,.26-4,15.75,15.75,0,0,1,.26,4A15.8,15.8,0,0,1,471.49,149.83Z" style="fill:#fff"></path><path d="M477.66,149.83a15.27,15.27,0,0,1-.26-4,15.22,15.22,0,0,1,.26-4,15.75,15.75,0,0,1,.26,4A15.8,15.8,0,0,1,477.66,149.83Z" style="fill:#fff"></path><path d="M483.82,149.83a15.8,15.8,0,0,1-.26-4,15.75,15.75,0,0,1,.26-4,15.22,15.22,0,0,1,.26,4A15.27,15.27,0,0,1,483.82,149.83Z" style="fill:#fff"></path><path d="M490,149.83a15.8,15.8,0,0,1-.26-4,15.75,15.75,0,0,1,.26-4,15.22,15.22,0,0,1,.26,4A15.27,15.27,0,0,1,490,149.83Z" style="fill:#fff"></path><path d="M496.16,149.83a15.8,15.8,0,0,1-.26-4,15.75,15.75,0,0,1,.26-4,15.75,15.75,0,0,1,.26,4A15.8,15.8,0,0,1,496.16,149.83Z" style="fill:#fff"></path><path d="M502.33,149.83a15.27,15.27,0,0,1-.26-4,15.22,15.22,0,0,1,.26-4,15.75,15.75,0,0,1,.26,4A15.8,15.8,0,0,1,502.33,149.83Z" style="fill:#fff"></path><path d="M508.5,149.83a15,15,0,0,1-.27-4,15,15,0,0,1,.27-4,15.75,15.75,0,0,1,.26,4A15.8,15.8,0,0,1,508.5,149.83Z" style="fill:#fff"></path><path d="M514.66,149.83a15.8,15.8,0,0,1-.26-4,15.75,15.75,0,0,1,.26-4,15.22,15.22,0,0,1,.26,4A15.27,15.27,0,0,1,514.66,149.83Z" style="fill:#fff"></path><path d="M520.83,149.83a15.8,15.8,0,0,1-.26-4,15.75,15.75,0,0,1,.26-4,15.75,15.75,0,0,1,.26,4A15.8,15.8,0,0,1,520.83,149.83Z" style="fill:#fff"></path><path d="M527,149.83a15.27,15.27,0,0,1-.26-4,15.22,15.22,0,0,1,.26-4,15.75,15.75,0,0,1,.26,4A15.8,15.8,0,0,1,527,149.83Z" style="fill:#fff"></path><path d="M533.17,149.83a15.27,15.27,0,0,1-.26-4,15.22,15.22,0,0,1,.26-4,15.75,15.75,0,0,1,.26,4A15.8,15.8,0,0,1,533.17,149.83Z" style="fill:#fff"></path><path d="M539.33,149.83a15.8,15.8,0,0,1-.26-4,15.75,15.75,0,0,1,.26-4,15.22,15.22,0,0,1,.26,4A15.27,15.27,0,0,1,539.33,149.83Z" style="fill:#fff"></path><path d="M545.5,149.83a15.8,15.8,0,0,1-.26-4,15.75,15.75,0,0,1,.26-4,15.22,15.22,0,0,1,.26,4A15.27,15.27,0,0,1,545.5,149.83Z" style="fill:#fff"></path><path d="M551.67,149.83a15.8,15.8,0,0,1-.26-4,15.75,15.75,0,0,1,.26-4,15.75,15.75,0,0,1,.26,4A15.8,15.8,0,0,1,551.67,149.83Z" style="fill:#fff"></path><path d="M557.84,149.83a15.27,15.27,0,0,1-.26-4,15.22,15.22,0,0,1,.26-4,15.75,15.75,0,0,1,.26,4A15.8,15.8,0,0,1,557.84,149.83Z" style="fill:#fff"></path><path d="M564,149.83a15,15,0,0,1-.27-4,15,15,0,0,1,.27-4,15.75,15.75,0,0,1,.26,4A15.8,15.8,0,0,1,564,149.83Z" style="fill:#fff"></path><path d="M206.68,149.83a15.8,15.8,0,0,1-.26-4,15.75,15.75,0,0,1,.26-4,15.75,15.75,0,0,1,.26,4A15.8,15.8,0,0,1,206.68,149.83Z" style="fill:#fff"></path><rect x="215.56" y="204.36" width="344.13" height="9.54" style="fill:#F79F1F"></rect><polygon points="609.41 237.48 169.99 239.03 144.22 228.02 631.25 228 609.41 237.48" style="fill:#F79F1F"></polygon><polygon points="609.41 237.48 169.99 239.03 144.22 228.02 631.25 228 609.41 237.48" style="opacity:0.30000000000000004"></polygon><path d="M233.85,82.07V97.51c0,1.44,306.77,0,306.77,0V82.07s-6.76,5.79-30.87,5.79-257.14.29-257.14.29S243.58,88.78,233.85,82.07Z" style="fill:#263238"></path><path d="M233.85,97.51s-8.52,35.4-83.41,25.13c0,0,11.35,13.79,81.92,13.79H557.91s56.51-.26,70.84-19.46c0,0-57.59,8.37-71.11-1.09s-17-18.37-17-18.37Z" style="fill:#263238"></path><rect x="215.56" y="201.7" width="344.13" height="2.85" style="fill:#f5f5f5"></rect><path d="M131.77,218.5s47.95,7.52,83.79-4.6H559.69s31,10.28,85.37,4.2c0,0-.86,5.15-13.81,9.9s-487,0-487,0S137.9,225.83,131.77,218.5Z" style="fill:#263238"></path><rect x="226.54" y="245.21" width="10.6" height="114.89" style="fill:#F79F1F"></rect><rect x="299.06" y="245.21" width="10.6" height="114.89" style="fill:#F79F1F"></rect><rect x="348.37" y="245.21" width="10.6" height="114.89" style="fill:#F79F1F"></rect><rect x="412.79" y="245.21" width="10.6" height="114.89" style="fill:#F79F1F"></rect><rect x="466.3" y="245.21" width="10.6" height="114.89" style="fill:#F79F1F"></rect><rect x="538.29" y="245.21" width="10.6" height="114.89" style="fill:#F79F1F"></rect><rect x="228" y="252.2" width="317.76" height="3.24" style="fill:#F79F1F"></rect><rect x="228" y="257.58" width="317.76" height="3.24" style="fill:#F79F1F"></rect><rect x="228" y="263.49" width="317.76" height="3.18" style="fill:#F79F1F"></rect><path d="M559.69,202.19c0-.45,0-4-.07-12.63l.07.07L216,189.82h0l.26-.26v12.63l-.26-.26,243.41.1,73.37.08,19.92,0,5.19,0c1.17,0,1.78,0,1.78,0H558l-5.15,0-19.87,0-73.31.08-243.6.11h-.26V189.3H216l343.65.2h.06v.06c0,4.34,0,7.5,0,9.58S559.69,202.19,559.69,202.19Z" style="fill:#263238"></path><path d="M559.69,193.92c0,.14-76.94.26-171.83.26S216,194.06,216,193.92s76.93-.26,171.84-.26S559.69,193.77,559.69,193.92Z" style="fill:#263238"></path><path d="M559.69,198c0,.15-76.94.26-171.83.26S216,198.15,216,198s76.93-.26,171.84-.26S559.69,197.86,559.69,198Z" style="fill:#263238"></path><path d="M246,201.52a37.2,37.2,0,0,1-.26-6.16,37.2,37.2,0,0,1,.26-6.16,35.94,35.94,0,0,1,.26,6.16A35.94,35.94,0,0,1,246,201.52Z" style="fill:#263238"></path><path d="M272.22,201.52a37.2,37.2,0,0,1-.26-6.16,37.2,37.2,0,0,1,.26-6.16,35.94,35.94,0,0,1,.26,6.16A35.94,35.94,0,0,1,272.22,201.52Z" style="fill:#263238"></path><path d="M298.43,202.19a39.12,39.12,0,0,1-.26-6.32,39,39,0,0,1,.26-6.31,37.72,37.72,0,0,1,.26,6.31A37.8,37.8,0,0,1,298.43,202.19Z" style="fill:#263238"></path><path d="M324.64,202.19a39.12,39.12,0,0,1-.26-6.32,39,39,0,0,1,.26-6.31,37.72,37.72,0,0,1,.26,6.31A37.8,37.8,0,0,1,324.64,202.19Z" style="fill:#263238"></path><path d="M350.85,202.19a39.12,39.12,0,0,1-.26-6.32,39,39,0,0,1,.26-6.31,37.72,37.72,0,0,1,.26,6.31A37.8,37.8,0,0,1,350.85,202.19Z" style="fill:#263238"></path><path d="M377.06,202.19a39.12,39.12,0,0,1-.26-6.32,39,39,0,0,1,.26-6.31,37,37,0,0,1,.27,6.31A37.11,37.11,0,0,1,377.06,202.19Z" style="fill:#263238"></path><path d="M403.28,202.19a37.11,37.11,0,0,1-.27-6.32,37,37,0,0,1,.27-6.31,39,39,0,0,1,.26,6.31A39.12,39.12,0,0,1,403.28,202.19Z" style="fill:#263238"></path><path d="M429.49,202.19a37.8,37.8,0,0,1-.26-6.32,37.72,37.72,0,0,1,.26-6.31,39,39,0,0,1,.26,6.31A39.12,39.12,0,0,1,429.49,202.19Z" style="fill:#263238"></path><path d="M455.7,202.19a37.8,37.8,0,0,1-.26-6.32,37.72,37.72,0,0,1,.26-6.31,39,39,0,0,1,.26,6.31A39.12,39.12,0,0,1,455.7,202.19Z" style="fill:#263238"></path><path d="M481.91,202.19a37.8,37.8,0,0,1-.26-6.32,37.72,37.72,0,0,1,.26-6.31,39,39,0,0,1,.26,6.31A39.12,39.12,0,0,1,481.91,202.19Z" style="fill:#263238"></path><path d="M508.12,202.19a37.8,37.8,0,0,1-.26-6.32,37.72,37.72,0,0,1,.26-6.31,39,39,0,0,1,.26,6.31A39.12,39.12,0,0,1,508.12,202.19Z" style="fill:#263238"></path><path d="M534.33,202.19a37.8,37.8,0,0,1-.26-6.32,37.72,37.72,0,0,1,.26-6.31,39,39,0,0,1,.26,6.31A39.12,39.12,0,0,1,534.33,202.19Z" style="fill:#263238"></path><path d="M150.44,122.64s16.58,19.52,50.31,18.87l365.59,1.15s51-1,62.41-25.69c0,0-35.45,12.36-51.07,12.85-19.25.6-391.13,0-391.13,0S158.68,127.41,150.44,122.64Z" style="fill:#455a64"></path><path d="M240.16,98.12a3,3,0,0,1,0,.72,13.68,13.68,0,0,1-.34,2,19.14,19.14,0,0,1-3.35,6.81,36,36,0,0,1-8.23,7.68,80,80,0,0,1-36.09,13.43c-1.59.21-3,.28-4.3.38s-2.37.1-3.27.12l-2.06,0a5.07,5.07,0,0,1-.72,0,3.42,3.42,0,0,1,.72-.06l2.06-.08,3.25-.2c1.26-.13,2.7-.22,4.28-.45a84.66,84.66,0,0,0,23.9-6.78A82.22,82.22,0,0,0,227.92,115a36.2,36.2,0,0,0,8.22-7.5,19.78,19.78,0,0,0,3.44-6.64,16.62,16.62,0,0,0,.44-2A6.61,6.61,0,0,1,240.16,98.12Z" style="fill:#455a64"></path><path d="M247.05,97.11a2.27,2.27,0,0,1-.08.49c-.08.37-.19.82-.31,1.37a17.62,17.62,0,0,1-.61,2.15,29.3,29.3,0,0,1-1,2.78l-.66,1.59c-.24.55-.54,1.09-.83,1.67-.55,1.17-1.29,2.33-2,3.58A44,44,0,0,1,228.29,124c-1.24.75-2.4,1.49-3.57,2-.58.28-1.12.59-1.67.83l-1.58.67c-1,.45-2,.73-2.78,1a17.62,17.62,0,0,1-2.15.61l-1.37.32a2.15,2.15,0,0,1-.48.08s.15-.08.46-.18l1.34-.41a19.81,19.81,0,0,0,2.11-.7c.8-.3,1.74-.6,2.72-1.07l1.56-.7c.54-.24,1.07-.56,1.64-.85a40.48,40.48,0,0,0,3.51-2.07,45.16,45.16,0,0,0,13.09-13.13c.75-1.23,1.5-2.37,2.06-3.52.29-.57.6-1.1.84-1.64l.69-1.56c.47-1,.76-1.93,1.07-2.74a21.53,21.53,0,0,0,.68-2.1c.17-.54.3-1,.41-1.35A1.83,1.83,0,0,1,247.05,97.11Z" style="fill:#455a64"></path><path d="M252.47,97.89a9.35,9.35,0,0,1-.2,1.49c-.15,1-.45,2.32-.89,4a53.86,53.86,0,0,1-1.92,5.77,54.53,54.53,0,0,1-7.27,13,51.93,51.93,0,0,1-3.93,4.64c-1.19,1.25-2.2,2.22-2.94,2.85a9.33,9.33,0,0,1-1.17.94,8.43,8.43,0,0,1,1-1.09c.69-.67,1.66-1.67,2.81-3s2.46-2.85,3.82-4.67a66.65,66.65,0,0,0,4-6.2A65.44,65.44,0,0,0,249,109c.85-2.1,1.52-4,2-5.69s.84-3,1-3.93A7.36,7.36,0,0,1,252.47,97.89Z" style="fill:#455a64"></path><path d="M251.4,129.28a5.69,5.69,0,0,1,.36-1.24c.26-.79.63-1.92,1.08-3.33a112.06,112.06,0,0,0,2.9-11.17,113.91,113.91,0,0,0,1.71-11.4c.14-1.48.24-2.67.31-3.49a6.38,6.38,0,0,1,.15-1.28,5.94,5.94,0,0,1,0,1.29c0,.83,0,2-.15,3.51a87.6,87.6,0,0,1-4.62,22.65c-.49,1.4-.92,2.52-1.24,3.29A6.64,6.64,0,0,1,251.4,129.28Z" style="fill:#455a64"></path><path d="M386.88,125.82a3,3,0,0,1,.07.73l.07,2h-.29c-.07-3-.12-8.24-.12-14.18,0-4.68,0-8.92.08-12,0-1.45.06-2.67.08-3.63a6.45,6.45,0,0,1,.11-1.33,7.08,7.08,0,0,1,.1,1.33c0,1,0,2.18.08,3.63.05,3.07.08,7.31.08,12,0,5.94-.05,11.17-.12,14.18h-.29c0-.81,0-1.49.07-2A2.22,2.22,0,0,1,386.88,125.82Z" style="fill:#455a64"></path><path d="M373.71,126.46a2.73,2.73,0,0,1,.08.73l.06,2.05h-.28c-.07-3-.12-8.23-.12-14.17,0-4.69,0-8.93.08-12,0-1.46.06-2.68.08-3.64a6.24,6.24,0,0,1,.1-1.33,6.24,6.24,0,0,1,.1,1.33c0,1,.05,2.18.08,3.64.05,3.06.08,7.3.08,12,0,5.94-.05,11.16-.12,14.17h-.28c0-.81.05-1.49.06-2.05A2.73,2.73,0,0,1,373.71,126.46Z" style="fill:#455a64"></path><path d="M360.54,126.46a2.29,2.29,0,0,1,.08.73c0,.56,0,1.24.07,2.05h-.29c-.07-3-.12-8.23-.12-14.17,0-4.69,0-8.93.08-12,0-1.46.06-2.68.08-3.64a7.21,7.21,0,0,1,.1-1.33,6.57,6.57,0,0,1,.11,1.33c0,1,.05,2.18.08,3.64,0,3.06.07,7.3.07,12,0,5.94,0,11.16-.11,14.17h-.29c0-.81.05-1.49.07-2.05A3.09,3.09,0,0,1,360.54,126.46Z" style="fill:#455a64"></path><path d="M349.08,126.23a3,3,0,0,1,.07.73c0,.56,0,1.24.07,2h-.29c-.07-3-.12-8.24-.12-14.18,0-4.68,0-8.92.08-12,0-1.45.06-2.67.08-3.63a6.45,6.45,0,0,1,.11-1.33,7.08,7.08,0,0,1,.1,1.33c0,1,.05,2.18.08,3.63.05,3.07.08,7.31.08,12,0,5.94,0,11.17-.12,14.18h-.29c0-.81.05-1.49.07-2A2.22,2.22,0,0,1,349.08,126.23Z" style="fill:#455a64"></path><path d="M335.56,126.14a3,3,0,0,1,.07.72l.07,2h-.29c-.07-3-.11-8.23-.11-14.17,0-4.69,0-8.92.07-12,0-1.46.06-2.67.08-3.64a6.57,6.57,0,0,1,.11-1.33,7.21,7.21,0,0,1,.1,1.33c0,1,0,2.18.08,3.64.05,3.07.08,7.3.08,12,0,5.94-.05,11.16-.12,14.17h-.29c0-.81,0-1.49.07-2A2.19,2.19,0,0,1,335.56,126.14Z" style="fill:#455a64"></path><path d="M324.44,125.82a2.64,2.64,0,0,1,.08.73c0,.56,0,1.24.06,2h-.28c-.07-3-.12-8.24-.12-14.18,0-4.68,0-8.92.08-12,0-1.45.06-2.67.08-3.63a6.14,6.14,0,0,1,.1-1.33,6.14,6.14,0,0,1,.1,1.33c0,1,0,2.18.08,3.63.05,3.07.08,7.31.08,12,0,5.94-.05,11.17-.12,14.18h-.28c0-.81.05-1.49.06-2A2.64,2.64,0,0,1,324.44,125.82Z" style="fill:#455a64"></path><path d="M311.82,126.46a2.73,2.73,0,0,1,.08.73c0,.56,0,1.24.07,2.05h-.29c-.07-3-.12-8.23-.12-14.17,0-4.69,0-8.93.08-12,0-1.46.06-2.68.08-3.64a7.21,7.21,0,0,1,.1-1.33,6.24,6.24,0,0,1,.1,1.33c0,1,.05,2.18.09,3.64,0,3.06.07,7.3.07,12,0,5.94,0,11.16-.11,14.17h-.29c0-.81.05-1.49.07-2.05A3.09,3.09,0,0,1,311.82,126.46Z" style="fill:#455a64"></path><path d="M302.25,126.11a2.64,2.64,0,0,1,.08.73l.07,2h-.29c-.07-3-.12-8.24-.12-14.18,0-4.68,0-8.92.08-12,0-1.45.06-2.67.08-3.63a7.08,7.08,0,0,1,.1-1.33,6.14,6.14,0,0,1,.1,1.33c0,1,0,2.18.09,3.63,0,3.07.07,7.31.07,12,0,5.94,0,11.17-.11,14.18h-.29c0-.81.05-1.49.07-2A3,3,0,0,1,302.25,126.11Z" style="fill:#455a64"></path><path d="M293.32,126.23a2.47,2.47,0,0,1,.07.73c0,.56.05,1.24.07,2h-.28c-.07-3-.12-8.24-.12-14.18,0-4.68,0-8.92.08-12,0-1.45.06-2.67.08-3.63a6.14,6.14,0,0,1,.1-1.33,6.14,6.14,0,0,1,.1,1.33c0,1,.05,2.18.08,3.63.05,3.07.08,7.31.08,12,0,5.94-.05,11.17-.12,14.18h-.28c0-.81.05-1.49.06-2A2.64,2.64,0,0,1,293.32,126.23Z" style="fill:#455a64"></path><path d="M263.23,130.15a6.18,6.18,0,0,1,.1-1.26c.11-.91.25-2,.41-3.4.34-2.88.74-6.85,1-11.26s.24-8.4.2-11.3c0-1.36,0-2.51-.07-3.42a6.88,6.88,0,0,1,0-1.26A5.28,5.28,0,0,1,265,99.5c.08.8.16,2,.22,3.42.14,2.9.19,6.91,0,11.34s-.68,8.41-1.11,11.27c-.22,1.44-.42,2.6-.58,3.39A5.68,5.68,0,0,1,263.23,130.15Z" style="fill:#455a64"></path><path d="M274.19,128.31a4.61,4.61,0,0,1-.08-1.2c0-.89,0-2-.05-3.28,0-2.77-.08-6.58-.2-10.8s-.29-8-.41-10.8c-.06-1.3-.1-2.39-.14-3.27a5.65,5.65,0,0,1,0-1.21,5.21,5.21,0,0,1,.19,1.19c.09.77.19,1.89.3,3.27.23,2.76.45,6.58.57,10.8s.11,8,.05,10.82c0,1.39-.08,2.51-.12,3.28A5.64,5.64,0,0,1,274.19,128.31Z" style="fill:#455a64"></path><path d="M285.53,130.15c-.14,0-.51-7.32-.83-16.36s-.45-16.37-.31-16.37.52,7.31.83,16.35S285.68,130.14,285.53,130.15Z" style="fill:#455a64"></path><path d="M532.23,98.12a3.17,3.17,0,0,1,.14.7c0,.22.08.51.15.84s.18.71.28,1.13a19.8,19.8,0,0,0,3.35,6.54,35.88,35.88,0,0,0,8,7.44,72.72,72.72,0,0,0,11.75,6.56,79.44,79.44,0,0,0,23.62,6.17c3.12.35,5.67.45,7.42.53l2,.06a3.2,3.2,0,0,1,.7.06,4.75,4.75,0,0,1-.7,0l-2,0c-1.76,0-4.32-.06-7.45-.37a76.41,76.41,0,0,1-23.8-6,71.76,71.76,0,0,1-11.82-6.65,35.32,35.32,0,0,1-8-7.61,19.17,19.17,0,0,1-3.25-6.71c-.08-.43-.16-.81-.23-1.15s-.07-.63-.1-.86A3.77,3.77,0,0,1,532.23,98.12Z" style="fill:#455a64"></path><path d="M525.35,97.11a1.65,1.65,0,0,1,.17.46c.11.37.25.81.41,1.35a19.41,19.41,0,0,0,.69,2.1c.3.81.59,1.75,1.06,2.74l.69,1.56c.24.54.56,1.07.85,1.64.56,1.15,1.3,2.29,2,3.52a45.16,45.16,0,0,0,13.09,13.13,40.48,40.48,0,0,0,3.51,2.07c.57.29,1.1.61,1.64.85l1.56.7c1,.47,1.92.77,2.73,1.07a19.73,19.73,0,0,0,2.1.7l1.35.41a1.83,1.83,0,0,1,.46.18,2.18,2.18,0,0,1-.49-.08l-1.37-.32a17.62,17.62,0,0,1-2.15-.61,28.49,28.49,0,0,1-2.77-1l-1.59-.67c-.55-.24-1.09-.55-1.67-.83-1.17-.56-2.33-1.3-3.57-2a48.71,48.71,0,0,1-7.34-5.93,47.3,47.3,0,0,1-5.89-7.35c-.75-1.25-1.49-2.41-2-3.58-.28-.58-.59-1.12-.82-1.67s-.46-1.08-.67-1.59a29.3,29.3,0,0,1-1-2.78,17.62,17.62,0,0,1-.61-2.15c-.12-.55-.22-1-.31-1.37A1.82,1.82,0,0,1,525.35,97.11Z" style="fill:#455a64"></path><path d="M519.93,97.89a9.13,9.13,0,0,1,.39,1.45c.21.94.56,2.28,1,3.93s1.16,3.59,2,5.69a67.63,67.63,0,0,0,3.21,6.65,64.66,64.66,0,0,0,4,6.2,60.16,60.16,0,0,0,3.81,4.67c1.15,1.28,2.12,2.28,2.81,3a6.91,6.91,0,0,1,1,1.09,9.33,9.33,0,0,1-1.17-.94c-.73-.63-1.75-1.6-2.94-2.85a51.93,51.93,0,0,1-3.93-4.64,58.46,58.46,0,0,1-4.07-6.23,60.22,60.22,0,0,1-3.2-6.72,51.47,51.47,0,0,1-1.91-5.77,40.75,40.75,0,0,1-.9-4A7.39,7.39,0,0,1,519.93,97.89Z" style="fill:#455a64"></path><path d="M521,129.28a7.21,7.21,0,0,1-.54-1.17c-.33-.77-.75-1.89-1.25-3.29a87.6,87.6,0,0,1-4.62-22.65c-.1-1.48-.14-2.68-.14-3.51a5.66,5.66,0,0,1,0-1.29,5.85,5.85,0,0,1,.16,1.28c.06.82.16,2,.31,3.49a110.66,110.66,0,0,0,1.7,11.4,114.89,114.89,0,0,0,2.9,11.17c.45,1.41.82,2.54,1.09,3.33A5.24,5.24,0,0,1,521,129.28Z" style="fill:#455a64"></path><path d="M397.11,126.23a2.64,2.64,0,0,1,.08.73c0,.56,0,1.24.06,2H397c-.07-3-.12-8.24-.12-14.18,0-4.68,0-8.92.08-12,0-1.45.06-2.67.08-3.63a6.14,6.14,0,0,1,.1-1.33,6.14,6.14,0,0,1,.1,1.33c0,1,.05,2.18.08,3.63,0,3.07.08,7.31.08,12,0,5.94-.05,11.17-.12,14.18H397c0-.81,0-1.49.06-2A2.64,2.64,0,0,1,397.11,126.23Z" style="fill:#455a64"></path><path d="M407.31,126.57a2.22,2.22,0,0,1,.08.73l.07,2h-.29c-.07-3-.12-8.24-.12-14.18,0-4.68,0-8.92.08-12,0-1.45.06-2.67.08-3.63a7.08,7.08,0,0,1,.1-1.33,6.45,6.45,0,0,1,.11,1.33c0,1,.05,2.18.08,3.63.05,3.07.07,7.31.07,12,0,5.94,0,11.17-.11,14.18h-.29c0-.81.05-1.49.07-2A3,3,0,0,1,407.31,126.57Z" style="fill:#455a64"></path><path d="M418.68,126.11a2.64,2.64,0,0,1,.08.73l.07,2h-.29c-.07-3-.12-8.24-.12-14.18,0-4.68,0-8.92.08-12,0-1.45.06-2.67.08-3.63a7.08,7.08,0,0,1,.1-1.33,6.14,6.14,0,0,1,.1,1.33c0,1,.05,2.18.09,3.63,0,3.07.07,7.31.07,12,0,5.94,0,11.17-.11,14.18h-.29c0-.81,0-1.49.07-2A3,3,0,0,1,418.68,126.11Z" style="fill:#455a64"></path><path d="M430.37,125.82a3,3,0,0,1,.07.73c0,.56,0,1.24.07,2h-.28c-.08-3-.12-8.24-.12-14.18,0-4.68,0-8.92.07-12,0-1.45.06-2.67.09-3.63a6.14,6.14,0,0,1,.1-1.33,7.08,7.08,0,0,1,.1,1.33c0,1,0,2.18.08,3.63.05,3.07.08,7.31.08,12,0,5.94-.05,11.17-.12,14.18h-.28c0-.81,0-1.49.06-2A2.64,2.64,0,0,1,430.37,125.82Z" style="fill:#455a64"></path><path d="M441.89,126.46a2.29,2.29,0,0,1,.08.73c0,.56,0,1.24.07,2.05h-.29c-.07-3-.12-8.23-.12-14.17,0-4.69,0-8.93.08-12,0-1.46.06-2.68.08-3.64a7.21,7.21,0,0,1,.1-1.33,6.57,6.57,0,0,1,.11,1.33c0,1,.05,2.18.08,3.64.05,3.06.07,7.3.07,12,0,5.94,0,11.16-.11,14.17h-.29c0-.81.05-1.49.07-2.05A3.09,3.09,0,0,1,441.89,126.46Z" style="fill:#455a64"></path><path d="M453.42,126.23a2.64,2.64,0,0,1,.08.73c0,.56,0,1.24.06,2h-.28c-.07-3-.12-8.24-.12-14.18,0-4.68,0-8.92.08-12,0-1.45.06-2.67.08-3.63a7.08,7.08,0,0,1,.1-1.33,6.14,6.14,0,0,1,.1,1.33c0,1,.05,2.18.09,3.63,0,3.07.07,7.31.07,12,0,5.94-.05,11.17-.12,14.18h-.28c0-.81.05-1.49.07-2A2.47,2.47,0,0,1,453.42,126.23Z" style="fill:#455a64"></path><path d="M461.78,126.11a2.64,2.64,0,0,1,.08.73c0,.56,0,1.24.06,2h-.28c-.07-3-.12-8.24-.12-14.18,0-4.68,0-8.92.08-12,0-1.45.06-2.67.08-3.63a6.14,6.14,0,0,1,.1-1.33,6.14,6.14,0,0,1,.1,1.33c0,1,.05,2.18.08,3.63.05,3.07.08,7.31.08,12,0,5.94-.05,11.17-.12,14.18h-.28c0-.81.05-1.49.06-2A2.64,2.64,0,0,1,461.78,126.11Z" style="fill:#455a64"></path><path d="M470.14,126.11a2.64,2.64,0,0,1,.08.73l.06,2H470c-.07-3-.12-8.24-.12-14.18,0-4.68,0-8.92.08-12,0-1.45.06-2.67.08-3.63a6.14,6.14,0,0,1,.1-1.33,6.14,6.14,0,0,1,.1,1.33c0,1,.05,2.18.08,3.63.05,3.07.08,7.31.08,12,0,5.94,0,11.17-.12,14.18H470c0-.81.05-1.49.06-2A2.64,2.64,0,0,1,470.14,126.11Z" style="fill:#455a64"></path><path d="M479.07,126.23a2.22,2.22,0,0,1,.08.73l.07,2h-.29c-.07-3-.12-8.24-.12-14.18,0-4.68,0-8.92.08-12,0-1.45.06-2.67.08-3.63a7.08,7.08,0,0,1,.1-1.33,6.14,6.14,0,0,1,.1,1.33c0,1,.05,2.18.09,3.63,0,3.07.07,7.31.07,12,0,5.94,0,11.17-.11,14.18h-.29c0-.81.05-1.49.07-2A3,3,0,0,1,479.07,126.23Z" style="fill:#455a64"></path><path d="M509.16,130.15a5.68,5.68,0,0,1-.3-1.23c-.16-.79-.36-1.95-.58-3.39-.43-2.86-.88-6.85-1.11-11.27s-.18-8.44,0-11.34c.07-1.44.15-2.62.23-3.42a5,5,0,0,1,.17-1.25,5.9,5.9,0,0,1,0,1.26c0,.91,0,2.06-.06,3.42-.05,2.9,0,6.89.19,11.3s.62,8.38,1,11.26c.16,1.35.3,2.49.41,3.4A5.38,5.38,0,0,1,509.16,130.15Z" style="fill:#455a64"></path><path d="M498.2,128.31a6.61,6.61,0,0,1-.12-1.2c0-.77-.08-1.89-.11-3.28-.07-2.77-.08-6.59,0-10.82s.35-8,.57-10.8c.11-1.38.21-2.5.3-3.27a5.21,5.21,0,0,1,.19-1.19,4.92,4.92,0,0,1,0,1.21c0,.88-.08,2-.13,3.27-.13,2.76-.3,6.58-.42,10.8s-.17,8-.2,10.8c0,1.3,0,2.4,0,3.28A4.83,4.83,0,0,1,498.2,128.31Z" style="fill:#455a64"></path><path d="M486.86,130.15c-.14,0,0-7.34.31-16.38s.68-16.36.83-16.35,0,7.33-.31,16.37S487,130.15,486.86,130.15Z" style="fill:#455a64"></path><path d="M565.45,142.66c0,.14-81.71,0-182.47-.27s-182.49-.64-182.49-.79,81.69,0,182.49.27S565.45,142.52,565.45,142.66Z" style="fill:#455a64"></path><path d="M541.47,97.81c0,.14-69.12.26-154.36.26S232.75,98,232.75,97.81s69.1-.26,154.36-.26S541.47,97.67,541.47,97.81Z" style="fill:#455a64"></path><path d="M223.7,205.76a8.14,8.14,0,0,0-8.14,8.14h16.28A8.14,8.14,0,0,0,223.7,205.76Z" style="fill:#f5f5f5"></path><path d="M242,205.76a8.13,8.13,0,0,0-8.14,8.14h16.28A8.14,8.14,0,0,0,242,205.76Z" style="fill:#f5f5f5"></path><path d="M260.28,205.76a8.13,8.13,0,0,0-8.14,8.14h16.27A8.13,8.13,0,0,0,260.28,205.76Z" style="fill:#f5f5f5"></path><path d="M278.57,205.76a8.13,8.13,0,0,0-8.14,8.14H286.7A8.13,8.13,0,0,0,278.57,205.76Z" style="fill:#f5f5f5"></path><path d="M296.85,205.76a8.13,8.13,0,0,0-8.13,8.14H305A8.13,8.13,0,0,0,296.85,205.76Z" style="fill:#f5f5f5"></path><path d="M315.14,205.76A8.13,8.13,0,0,0,307,213.9h16.27A8.13,8.13,0,0,0,315.14,205.76Z" style="fill:#f5f5f5"></path><path d="M333.43,205.76a8.14,8.14,0,0,0-8.14,8.14h16.28A8.13,8.13,0,0,0,333.43,205.76Z" style="fill:#f5f5f5"></path><path d="M351.72,205.76a8.14,8.14,0,0,0-8.14,8.14h16.28A8.14,8.14,0,0,0,351.72,205.76Z" style="fill:#f5f5f5"></path><path d="M370,205.76a8.13,8.13,0,0,0-8.14,8.14h16.28A8.14,8.14,0,0,0,370,205.76Z" style="fill:#f5f5f5"></path><path d="M388.3,205.76a8.13,8.13,0,0,0-8.14,8.14h16.27A8.13,8.13,0,0,0,388.3,205.76Z" style="fill:#f5f5f5"></path><path d="M406.59,205.76a8.13,8.13,0,0,0-8.14,8.14h16.27A8.13,8.13,0,0,0,406.59,205.76Z" style="fill:#f5f5f5"></path><path d="M424.87,205.76a8.13,8.13,0,0,0-8.13,8.14H433A8.13,8.13,0,0,0,424.87,205.76Z" style="fill:#f5f5f5"></path><path d="M443.16,205.76A8.14,8.14,0,0,0,435,213.9H451.3A8.13,8.13,0,0,0,443.16,205.76Z" style="fill:#f5f5f5"></path><path d="M461.45,205.76a8.14,8.14,0,0,0-8.14,8.14h16.28A8.14,8.14,0,0,0,461.45,205.76Z" style="fill:#f5f5f5"></path><path d="M479.74,205.76a8.13,8.13,0,0,0-8.14,8.14h16.28A8.14,8.14,0,0,0,479.74,205.76Z" style="fill:#f5f5f5"></path><path d="M498,205.76a8.13,8.13,0,0,0-8.14,8.14h16.27A8.13,8.13,0,0,0,498,205.76Z" style="fill:#f5f5f5"></path><path d="M516.32,205.76a8.13,8.13,0,0,0-8.14,8.14h16.27A8.13,8.13,0,0,0,516.32,205.76Z" style="fill:#f5f5f5"></path><path d="M534.6,205.76a8.13,8.13,0,0,0-8.13,8.14h16.27A8.13,8.13,0,0,0,534.6,205.76Z" style="fill:#f5f5f5"></path><path d="M552.22,205.76c-4.12,0-7.46,3.64-7.46,8.14h14.93C559.69,209.4,556.35,205.76,552.22,205.76Z" style="fill:#f5f5f5"></path><rect x="259.9" y="260.87" width="21.05" height="68.32" rx="10.19" style="fill:#455a64"></rect><rect x="497.65" y="257.9" width="21.05" height="68.32" rx="10.19" style="fill:#455a64"></rect><path d="M538,329.65c0,.14-13.92.26-31.09.26s-31.08-.12-31.08-.26,13.91-.26,31.08-.26S538,329.5,538,329.65Z" style="fill:#263238"></path><path d="M297.48,330.71c0,.14-13.45.26-30,.26s-30-.12-30-.26,13.44-.26,30-.26S297.48,330.56,297.48,330.71Z" style="fill:#263238"></path><rect x="200.75" y="360.1" width="358.94" height="14.63" style="fill:#455a64"></rect><rect x="180.29" y="374.71" width="406.97" height="14.63" style="fill:#455a64"></rect><path d="M559.76,360.1c0,.14-80.33.26-179.4.26s-179.42-.12-179.42-.26,80.31-.26,179.42-.26S559.76,360,559.76,360.1Z" style="fill:#263238"></path><path d="M559.76,374.71c0,.14-80.33.26-179.4.26s-179.42-.12-179.42-.26,80.31-.26,179.42-.26S559.76,374.57,559.76,374.71Z" style="fill:#263238"></path></g><g id="freepik--Floor--inject-16"><path d="M688.44,389.28s.57,0,1.7,0l5,0v.1l-316.78.21-228.81-.07-69.33-.09-18.85-.05-4.9,0-1.67,0s.56,0,1.67,0l4.9,0,18.85-.05,69.33-.08L378.39,389l316.78.21v.1l-5,0Z" style="fill:#263238"></path></g><g id="freepik--Character--inject-16"><path d="M280.35,472.39c-.11,0,1.35-8.36,1.35-8.36l17.88,2.26-2.39,9.34-10.6.35Z" style="fill:#ffbe9d"></path><path d="M279.61,472.1l0,1.16s-19.77,7.66-20,11.39l39.07.28-.44-13A22.37,22.37,0,0,1,279.61,472.1Z" style="fill:#F79F1F"></path><g style="opacity:0.6000000000000001"><path d="M294.21,476.05a1.59,1.59,0,0,1,1.09,1.83,1.53,1.53,0,0,1-1.8,1.09,1.68,1.68,0,0,1-1.15-1.94,1.59,1.59,0,0,1,2-.93" style="fill:#fff"></path></g><g style="opacity:0.6000000000000001"><path d="M298.64,484.93l-.11-3.13-37.41.88s-1.74.75-1.55,2Z" style="fill:#fff"></path></g><path d="M279.45,473.37c0,.19,1,.28,1.9.9s1.43,1.43,1.6,1.35-.1-1.18-1.24-1.91S279.41,473.19,279.45,473.37Z" style="fill:#263238"></path><path d="M275.34,475c0,.19.78.52,1.43,1.33s.82,1.67,1,1.66.32-1.09-.5-2.08S275.35,474.85,275.34,475Z" style="fill:#263238"></path><path d="M273,479.92c.18,0,.45-.91,0-2s-1.37-1.47-1.45-1.31.47.72.85,1.59S272.79,479.9,273,479.92Z" style="fill:#263238"></path><polygon points="360.77 472.54 360.94 463.89 343.75 464.99 344.31 475.56 354.91 475.92 360.77 472.54" style="fill:#ffbe9d"></polygon><path d="M361.89,472l0,1.16s19.77,7.67,20,11.4l-39.07.27.44-13A22.37,22.37,0,0,0,361.89,472Z" style="fill:#F79F1F"></path><g style="opacity:0.6000000000000001"><path d="M347.29,476a1.6,1.6,0,0,0-1.09,1.83,1.53,1.53,0,0,0,1.8,1.1,1.68,1.68,0,0,0,1.14-1.94,1.59,1.59,0,0,0-2-.94" style="fill:#fff"></path></g><g style="opacity:0.6000000000000001"><path d="M342.86,484.86l.11-3.13,37.41.89s1.74.74,1.55,2Z" style="fill:#fff"></path></g><path d="M362.05,473.3c0,.19-1,.29-1.9.9s-1.43,1.43-1.6,1.36.1-1.18,1.24-1.91S362.09,473.13,362.05,473.3Z" style="fill:#263238"></path><path d="M366.16,475c0,.18-.78.51-1.43,1.32s-.82,1.67-1,1.66-.32-1.08.5-2.08S366.15,474.79,366.16,475Z" style="fill:#263238"></path><path d="M368.52,479.86c-.18,0-.45-.91,0-2s1.38-1.47,1.46-1.31-.47.72-.85,1.58S368.71,479.84,368.52,479.86Z" style="fill:#263238"></path><path d="M363.69,278.07c0,.65,4.55,12.89,4.55,12.89s9.63,22.52,7.38,44.44c-.78,7.67-8.51,55.77-8.51,55.77s-2.77,35.6-3.87,51c-1.17,16.37-1.49,22.2-1.49,22.2l-19.39.62-3.95-68.64-3.58-55.23-19.92,69.19s-4.76,21-7.35,29.82-8.47,27.69-8.47,27.69L281,465.17s1.95-33,3.68-41,7.45-36.71,7.45-36.71l5.08-27.92,5.43-45.43,4.73-17.47,5.88-19.76Z" style="fill:#263238"></path><path d="M332,326c-.14,0-.89-7.37-1.69-16.5S329,293,329.13,293s.89,7.38,1.69,16.5S332.15,326,332,326Z" style="fill:#455a64"></path><path d="M366.58,296.72a3.25,3.25,0,0,1-.7.68,11.19,11.19,0,0,1-2.25,1.43,12.82,12.82,0,0,1-15.93-3.76,11.32,11.32,0,0,1-1.38-2.28,3.15,3.15,0,0,1-.32-.93,23.38,23.38,0,0,0,2,3,13,13,0,0,0,15.51,3.67A24.81,24.81,0,0,0,366.58,296.72Z" style="fill:#455a64"></path><path d="M333.37,294.81s.13-.12.43-.15a1.68,1.68,0,0,1,1.71,2.17,1.94,1.94,0,0,1-1.85,1.34,2,2,0,0,1-1.78-1.42,1.89,1.89,0,0,1,.4-1.82,2,2,0,0,1,1.07-.64c.29-.05.45,0,.45,0a2.89,2.89,0,0,0-1.25.84,1.52,1.52,0,0,0-.24,1.45,1.61,1.61,0,0,0,1.37,1.08,1.54,1.54,0,0,0,1.41-1,1.28,1.28,0,0,0-.34-1.38A2,2,0,0,0,333.37,294.81Z" style="fill:#455a64"></path><path d="M316.9,293.19a4.17,4.17,0,0,1-.39,1.79,9.68,9.68,0,0,1-6.45,5.74,4.21,4.21,0,0,1-1.83.19,16.33,16.33,0,0,1,1.73-.52,10.88,10.88,0,0,0,3.68-2.14,11.18,11.18,0,0,0,2.55-3.4C316.66,293.85,316.82,293.17,316.9,293.19Z" style="fill:#455a64"></path><path d="M376.32,190.35a1.49,1.49,0,0,0,.9-2.38c.8-.32.73-1.53.22-2.23s-1.3-1.18-1.67-2a1.77,1.77,0,0,0,2.29-1.26,1.48,1.48,0,0,0,1.6-.78,1.5,1.5,0,0,0-.36-1.74c.81,0,.9-1.3.29-1.83s-1.5-.61-2.19-1a9.53,9.53,0,0,0-4.67-3.58l3.59-2a2,2,0,0,0,.75-.62c.36-.62-.06-1.4-.54-1.93a7.77,7.77,0,0,0-3.86-2.29c-.48-.12-1.1-.12-1.31.32a6.93,6.93,0,0,0-3.28-.78,2.71,2.71,0,0,0-1.85.31,5.51,5.51,0,0,1,1.36-1.32,2.3,2.3,0,0,0,1-1.57c0-.64-.68-1.27-1.24-1,.61-.21.65-1.15.21-1.63a3,3,0,0,0-1.79-.68c-.44-.07-1-.07-1.2.35a1.28,1.28,0,0,0-2.27-.47,1.56,1.56,0,0,0-2.26-.1,2,2,0,0,0-3,.7c.7-.9,1.4-1.81,2.11-2.71.39-.51.58-1.54-.07-1.56.92.12,1.6-1.07,1.25-1.93a2.4,2.4,0,0,0-2.28-1.29l-.94,1.06a1.83,1.83,0,0,0-3,1.68.93.93,0,0,0-1.41.1,2.66,2.66,0,0,0-.46,1.54,1.58,1.58,0,0,0-2.58,1,5.11,5.11,0,0,0-2.57-.88,1.8,1.8,0,0,0-2-2.82,1.78,1.78,0,0,0-2.1-1.72c-.15-1.1-1.45-2.07-2.39-1.47s-.67,2.09-.26,3.16l1.35,3.49-5.33-3.77a1.08,1.08,0,0,0-.55-.24c-.28,0-.51.23-.77.32s-.77,0-1.16.06c-1,.18-1.22,1.73-.63,2.61s1.61,1.39,2.3,2.2l-2.6.16a2.61,2.61,0,0,0-3.13-2.17c-.23-1-1.47-1.25-2.47-1.34a3.67,3.67,0,0,0-2.6.44,2.51,2.51,0,0,0-.37,3.15,7.37,7.37,0,0,0,2.53,2.3c-.27.74-1.28.85-2,.64a4.61,4.61,0,0,0-2.28-.42c-1,.25-1.61,1.47-2.65,1.71a4.13,4.13,0,0,0-.94.19,1.75,1.75,0,0,0-.76,1.11l-.58,1.6a2.11,2.11,0,0,0-.17.82c.07.92,1.3,1.27,2.19,1a11,11,0,0,1,2.61-.84,6.92,6.92,0,0,0-3.41,2c-.81,1.07-.76,2.9.44,3.5s2.6-.33,3.64-1.19,2.51-1.75,3.66-1" style="fill:#263238"></path><path d="M374.58,189.34a1.64,1.64,0,0,1,2.28,1.72,3.42,3.42,0,0,1,.54,6c-.82.54-2.32.38-2.35-.61a2.67,2.67,0,0,1-2.08,1.4,2.59,2.59,0,0,1-1.49,3.51,2.74,2.74,0,0,1-1,4.46,2.11,2.11,0,1,1-4,1.24,4.48,4.48,0,0,1-1.66,1.91,1.53,1.53,0,0,1-2.15-.65,2.9,2.9,0,0,1-4.31,1.22,1.87,1.87,0,0,1-3.73.19l-4.83-.23a17,17,0,0,1-3.19-.35,8.71,8.71,0,0,1-3.62-1.84,2.88,2.88,0,0,0-1.09-.72,3,3,0,0,0-1.49.17,7.82,7.82,0,0,1-7.36-2,4.3,4.3,0,0,0-.95-.81,3.58,3.58,0,0,0-1.42-.26,13.84,13.84,0,0,1-3.49-.63,3.78,3.78,0,0,1-2.42-1.72c-.43-.93.17-2.31,1.18-2.25a2.18,2.18,0,0,0-.47-1.86,1.33,1.33,0,0,0-1.78-.14,1,1,0,0,0,.38,1.56,2,2,0,0,1-2.76-1.74,2.61,2.61,0,0,1,2.71-2.34,5.89,5.89,0,0,1,0-2.92,2.16,2.16,0,0,1-2.94.22,3.7,3.7,0,0,1-2.47,1.63,2.23,2.23,0,0,1-2.4-1.43,1.61,1.61,0,0,1,1.6-2,1.91,1.91,0,0,1,1.8-2.7,3,3,0,0,1,1.93-3.08,1.56,1.56,0,0,1-2.19-.94c-.65.94-2.14.65-3.11,0a2.09,2.09,0,0,1-1.21-2.32,2.32,2.32,0,0,1,.91-1.34,5.86,5.86,0,0,1,3.66-.77,15.17,15.17,0,0,0,1.67-4.76,3,3,0,0,1-2.94-2.52l7.47-3.45s16.35-.49,16.93-.42,32,21.5,32,21.5a1.92,1.92,0,0,0,2.92-.17,3.13,3.13,0,0,0,.13-3.21,9.24,9.24,0,0,0-2.17-2.58,4.58,4.58,0,0,0,3.13-.59,1.7,1.7,0,0,0,.69-1.79c-.27-1-1.35-1-2-1.66a3.91,3.91,0,0,1-.73-1.33" style="fill:#263238"></path><path d="M358.9,176.11l-17.23-6.83c-5.63-1.36-10.34,5.17-11.45,10.85-1.23,6.31-2.49,14.06-2.36,18.91.27,9.74,7.42,11.91,7.42,11.91s-.18,1.39-.59,4.87l-.06,2,19.86,2.82,7-40.73A3.37,3.37,0,0,0,358.9,176.11Z" style="fill:#ffbe9d"></path><path d="M331.11,185.74c.13.18,1.15-.39,2.47-.21s2.19,1,2.36.82,0-.37-.42-.74a3.51,3.51,0,0,0-1.87-.85,3.22,3.22,0,0,0-2,.37C331.22,185.39,331.05,185.66,331.11,185.74Z" style="fill:#263238"></path><path d="M344.87,188.43c.14.18,1.15-.38,2.47-.21s2.2,1,2.36.82,0-.37-.42-.73a3.4,3.4,0,0,0-3.85-.49C345,188.08,344.81,188.35,344.87,188.43Z" style="fill:#263238"></path><path d="M338.23,195.49a8,8,0,0,0-2.08-.67c-.34-.08-.65-.19-.67-.43a1.72,1.72,0,0,1,.35-1l1.33-2.43a44.56,44.56,0,0,0,3.11-6.41,45.27,45.27,0,0,0-3.62,6.14l-1.29,2.45a2,2,0,0,0-.34,1.3.82.82,0,0,0,.49.56,1.92,1.92,0,0,0,.56.16A8.76,8.76,0,0,0,338.23,195.49Z" style="fill:#263238"></path><path d="M335.28,211a24.46,24.46,0,0,0,13.23-1.73s-4.08,6.19-13.51,4.05Z" style="fill:#eb996e"></path><path d="M337.71,198.44a3.38,3.38,0,0,1,2.92-1.12,2.13,2.13,0,0,1,1.63,1.19,2.1,2.1,0,0,1-.33,2.18,2.07,2.07,0,0,1-2.28.52,4.78,4.78,0,0,1-1.81-1.48,1.42,1.42,0,0,1-.36-.56.69.69,0,0,1,.15-.67" style="fill:#F79F1F"></path><path d="M342,196.9c-.21,0-.4,1.39-1.76,2.25s-2.86.5-2.89.69.3.33.94.43a3.64,3.64,0,0,0,2.41-.5,3.16,3.16,0,0,0,1.38-1.9C342.2,197.28,342.09,196.91,342,196.9Z" style="fill:#263238"></path><path d="M345.49,183.53c.08.37,1.42.37,2.94.76s2.71,1,3,.68c.11-.14-.06-.51-.52-.92a5.27,5.27,0,0,0-4.5-1.1C345.77,183.11,345.45,183.35,345.49,183.53Z" style="fill:#263238"></path><path d="M332.36,180.65c.19.33,1.14.14,2.24.27s2,.46,2.24.18,0-.46-.36-.8a3.11,3.11,0,0,0-1.75-.72,3.06,3.06,0,0,0-1.86.37C332.45,180.2,332.28,180.49,332.36,180.65Z" style="fill:#263238"></path><path d="M359.74,189.64a1.61,1.61,0,0,1-.69,1.78,1.12,1.12,0,0,1-1.51-.63c-.48.51-1.37-.18-1.15-.9-.55.23-1.14-.55-.9-1.18-.63.16-.86-.85-1.1-1.54a11.42,11.42,0,0,0-.49-1.06,6.73,6.73,0,0,1-.55-3.73,6.71,6.71,0,0,1-.71-3.67V176.3c-.12-.21-.25-.41-.38-.61a1.29,1.29,0,0,1-1,1.13,2.75,2.75,0,0,1-1.44-.19l-1.39-.45-.92.15a3.6,3.6,0,0,1-.54,2.28,2.25,2.25,0,0,1-1,1.2.68.68,0,0,1-.85-.83.76.76,0,0,1-1.13-.32,2.48,2.48,0,0,1-.14-1.51,6.3,6.3,0,0,1,1.55-3.31l-2.75,2a1.14,1.14,0,0,1-.65.3.65.65,0,0,1-.78.63,1.63,1.63,0,0,1-.84-.73c-.53-.7-1-1.85-.41-2.5a.54.54,0,0,1-.15-.81l-3.06,1.8c.3-.13.56.34.46.7a1.55,1.55,0,0,1-.69.76,2.2,2.2,0,0,1,.17,1.37c.55-.4,1.21.53,1,1.24a1.6,1.6,0,0,1-1.62,1,1.12,1.12,0,0,1-1.15-1c-.63.06-1.12-.86-.82-1.53-.48.25-.78-.6-.73-1.21a8.82,8.82,0,0,1,.88-3.2c0,.16-.19.27-.29.17a.24.24,0,0,1,.09-.37L332,176.16a9.16,9.16,0,0,0-1.25,3.11c-.06.45-.19,1.08-.58,1.07a.55.55,0,0,1-.3-.11,5.78,5.78,0,0,1-2.17-3.25,4.33,4.33,0,0,1-.23-1.4,18.79,18.79,0,0,1,.75-2.88,9.17,9.17,0,0,1,.24-1.29,4,4,0,0,1,1.22-1.59c1.72-1.56,3.54-3.18,5.64-3.64,1.29-.29,2.61-.11,3.9-.38a22.17,22.17,0,0,0,2.35-.76,19,19,0,0,1,9.88-.16,15.52,15.52,0,0,1,5.22,1.92,18.75,18.75,0,0,1,4.58,4.49,28.79,28.79,0,0,1,5,8.71,14.1,14.1,0,0,1,.46,8.06c-.73,2.66-2.71,5-5,5.27-.26-.37-.51-.75-.77-1.13" style="fill:#263238"></path><path d="M357.44,191.22c.14-.05,5.53-1.05,4.82,4.27s-5.91,3.52-5.9,3.37S357.44,191.22,357.44,191.22Z" style="fill:#ffbe9d"></path><path d="M358.26,197.06s.08.07.23.17a.93.93,0,0,0,.69.1,2.31,2.31,0,0,0,1.34-1.92,3.07,3.07,0,0,0-.08-1.36,1.06,1.06,0,0,0-.61-.8.47.47,0,0,0-.58.18c-.09.14-.07.25-.1.25s-.1-.1,0-.32a.63.63,0,0,1,.25-.3.71.71,0,0,1,.54-.07,1.34,1.34,0,0,1,.86,1,3.19,3.19,0,0,1,.12,1.52,2.43,2.43,0,0,1-1.66,2.12,1,1,0,0,1-.83-.25C358.25,197.19,358.24,197.06,358.26,197.06Z" style="fill:#eb996e"></path><path d="M322.06,172.35a.91.91,0,0,1,.39-.62,1.15,1.15,0,0,1,.83-.19,3.53,3.53,0,0,1,1.11.41l.13.07v-.15a1.06,1.06,0,0,1,1-.9,3,3,0,0,1,1.66.48l.71.37-.58-.55a.86.86,0,0,1,.22-1.21,1.9,1.9,0,0,1,1.53-.17h.07l.47.11-.36-.32a.91.91,0,0,1,.28-1.42,1.37,1.37,0,0,1,1.51.33l.45.45-.26-.57a2.08,2.08,0,0,1,.26-2.1,2,2,0,0,1,1.53-.73,2.32,2.32,0,0,1,1.11.29c.23.13.34.24.35.23s0,0-.07-.09a1.64,1.64,0,0,0-.25-.2,2,2,0,0,0-1.14-.36,2.06,2.06,0,0,0-1.67.74,2.26,2.26,0,0,0-.33,2.31l.18-.12a1.6,1.6,0,0,0-1.77-.4,1.18,1.18,0,0,0-.63.81,1,1,0,0,0,.29,1l.11-.21-.08,0a2.12,2.12,0,0,0-1.72.22,1.15,1.15,0,0,0-.46.74.89.89,0,0,0,.22.82l.13-.18a3.06,3.06,0,0,0-1.79-.48,1.21,1.21,0,0,0-1.11,1.1l.13-.08a3.66,3.66,0,0,0-1.17-.39,1.24,1.24,0,0,0-.9.25.83.83,0,0,0-.33.49A.49.49,0,0,0,322.06,172.35Z" style="fill:#455a64"></path><path d="M330.3,161a.76.76,0,0,0,.31.16,4.73,4.73,0,0,0,.92.16,2.88,2.88,0,0,1,1.32.37.85.85,0,0,1,.4.64.62.62,0,0,1-.33.67l.15.14c.08-.3.49-.45.86-.61a4,4,0,0,1,1.18-.35,1.5,1.5,0,0,1,1.12.32,1,1,0,0,1,.39,1l-.08.29.25-.17a2.72,2.72,0,0,1,1.65-.45,3.07,3.07,0,0,1,1.32.36,4.17,4.17,0,0,1,.95.78.86.86,0,0,0-.17-.28,2.53,2.53,0,0,0-.71-.62,3,3,0,0,0-1.38-.43,2.84,2.84,0,0,0-1.79.45l.18.13a1.2,1.2,0,0,0-.45-1.19,1.72,1.72,0,0,0-1.3-.38,4.61,4.61,0,0,0-1.26.37,4.77,4.77,0,0,0-.56.27.87.87,0,0,0-.42.5l-.06.22.21-.08a.84.84,0,0,0,.46-.91,1.08,1.08,0,0,0-.5-.78,2.8,2.8,0,0,0-1.42-.35,4.76,4.76,0,0,1-.91-.09C330.42,161,330.31,160.94,330.3,161Z" style="fill:#455a64"></path><path d="M342.79,157.82a2.51,2.51,0,0,1,.62.16,1.44,1.44,0,0,1,.55.46,1.34,1.34,0,0,1,.29.85v.13l.13,0a.8.8,0,0,1,.82.6,2.5,2.5,0,0,1-.12,1.33l-.13.46.34-.35.05-.05a1,1,0,0,1,.87-.24,1.1,1.1,0,0,1,.74.44,1.82,1.82,0,0,1,.31,1.48,3.22,3.22,0,0,1-.4,1c-.13.23-.21.35-.19.36s.12-.09.27-.31a2.76,2.76,0,0,0,.49-1,2,2,0,0,0-.3-1.65,1.36,1.36,0,0,0-2-.24l-.07.07.21.12a2.65,2.65,0,0,0,.11-1.47,1,1,0,0,0-1.08-.73l.12.1a1.44,1.44,0,0,0-.36-1,1.52,1.52,0,0,0-.63-.46,1.35,1.35,0,0,0-.5-.09C342.85,157.79,342.79,157.81,342.79,157.82Z" style="fill:#455a64"></path><path d="M371.09,185.55l.14-.14a5.6,5.6,0,0,0,.34-.45,1.74,1.74,0,0,0,.3-.86,1.31,1.31,0,0,0-.11-.57.92.92,0,0,0-.48-.47l0,.14a1.13,1.13,0,0,0-1-1.88l.09.19a.92.92,0,0,0,.1-1.08,1.32,1.32,0,0,0-1-.6c-.19,0-.39,0-.53-.07a.46.46,0,0,1-.3-.33,2.1,2.1,0,0,0-.25-.56,1,1,0,0,0-.53-.38,5.92,5.92,0,0,0-1.28-.19,1.43,1.43,0,0,1-1-.43c-.1-.14-.17-.33-.27-.5a1.24,1.24,0,0,0-.44-.44,1.31,1.31,0,0,0-1.14-.08l.13.17a1,1,0,0,0,0-1.13,1.32,1.32,0,0,0-.84-.55,4.27,4.27,0,0,0-1.6,0,4.55,4.55,0,0,0-1,.26,1.06,1.06,0,0,0-.33.15,10.76,10.76,0,0,1,1.34-.29,4.44,4.44,0,0,1,1.53,0,1.2,1.2,0,0,1,.73.5.77.77,0,0,1,0,.88l-.31.35.43-.18a1,1,0,0,1,.93.08.93.93,0,0,1,.36.35,5.59,5.59,0,0,0,.28.53,1.32,1.32,0,0,0,.54.39,3.27,3.27,0,0,0,.62.14,6.08,6.08,0,0,1,1.23.18.77.77,0,0,1,.41.29,1.64,1.64,0,0,1,.22.5.74.74,0,0,0,.45.48,4.86,4.86,0,0,0,.57.07,1.09,1.09,0,0,1,.81.49.67.67,0,0,1-.05.8l-.22.23.31,0a.94.94,0,0,1,.83,1.54l-.08.1.12,0a.91.91,0,0,1,.51.88,1.69,1.69,0,0,1-.24.81C371.24,185.33,371.07,185.54,371.09,185.55Z" style="fill:#455a64"></path><path d="M368.86,200.16a.6.6,0,0,0,.25,0,1.59,1.59,0,0,0,.6-.37,1.75,1.75,0,0,0,.53-1,1.84,1.84,0,0,0-.33-1.41v.13a3.37,3.37,0,0,0,.77-1.12,1.29,1.29,0,0,0,0-.78,1,1,0,0,0-.49-.67v.22A1.42,1.42,0,0,0,371,194a1.65,1.65,0,0,0-.15-.82,1.34,1.34,0,0,0-.56-.57.46.46,0,0,1-.29-.49,1.76,1.76,0,0,0-.08-.72,2.36,2.36,0,0,0-.77-1.07c-.3-.28-.57-.54-.83-.77a4.15,4.15,0,0,0-1.39-.87,1.94,1.94,0,0,0-.43-.09c-.11,0-.16,0-.16,0s.21,0,.56.17a4.36,4.36,0,0,1,1.3.91l.81.78a2.33,2.33,0,0,1,.7,1,1.76,1.76,0,0,1,.06.65.66.66,0,0,0,.08.42.91.91,0,0,0,.31.28,1.25,1.25,0,0,1,0,2.15l-.22.11.22.11a1,1,0,0,1,.35,1.16,3.09,3.09,0,0,1-.71,1.05l-.06.07.05.06a1.73,1.73,0,0,1,.33,1.26,1.67,1.67,0,0,1-.45.91A2.39,2.39,0,0,1,368.86,200.16Z" style="fill:#455a64"></path><path d="M362.1,193a1,1,0,0,0,.34,0,2.78,2.78,0,0,0,.9-.34,3.26,3.26,0,0,0,1.1-1,1.31,1.31,0,0,0,.28-.91.62.62,0,0,0-.32-.45.51.51,0,0,0-.6,0l.17.13a1.63,1.63,0,0,0,.28-.9A.78.78,0,0,0,364,189a.66.66,0,0,0-.55-.15,1,1,0,0,1-.42,0c-.08,0-.09-.15-.06-.33a1.41,1.41,0,0,0-.28-1.07,1.57,1.57,0,0,0-1.57-.67l.13.16a1.38,1.38,0,0,0-.08-1.36.89.89,0,0,0-.63-.29.64.64,0,0,0-.59.33l.2.06a3.21,3.21,0,0,0-.19-1.8,3.44,3.44,0,0,0-.77-1.17,3.15,3.15,0,0,0-.72-.54.83.83,0,0,0-.3-.11,4.47,4.47,0,0,1,.93.73,3.58,3.58,0,0,1,.7,1.15,3.17,3.17,0,0,1,.14,1.7l-.16.87.36-.8c.13-.27.64-.26.85,0a1.15,1.15,0,0,1,0,1.13l-.09.21.23-.05a1.37,1.37,0,0,1,1.33.58,1.26,1.26,0,0,1,.24.89.9.9,0,0,0,0,.29.39.39,0,0,0,.2.29,1.08,1.08,0,0,0,.56,0,.39.39,0,0,1,.36.08.52.52,0,0,1,.16.34,1.45,1.45,0,0,1-.24.78l-.3.56.47-.43c.18-.16.55.05.57.31a1.08,1.08,0,0,1-.23.77,3.25,3.25,0,0,1-1,1A4.82,4.82,0,0,1,362.1,193Z" style="fill:#455a64"></path><path d="M351.88,176.61a1.79,1.79,0,0,0,.75-.2,1.94,1.94,0,0,0,.71-.48,1.34,1.34,0,0,0,.37-1,1.11,1.11,0,0,0-.07-.26l-.07.16a1.17,1.17,0,0,0,.69-.72,1.07,1.07,0,0,0-.06-.8c-.21-.42-.52-.5-.52-.47s.23.16.37.53a.91.91,0,0,1,0,.67.94.94,0,0,1-.56.56l-.12,0,0,.12a.46.46,0,0,1,0,.2,1.12,1.12,0,0,1-.29.84,2.08,2.08,0,0,1-.62.48C352.14,176.47,351.86,176.57,351.88,176.61Z" style="fill:#455a64"></path><path d="M346.6,173.32a1.39,1.39,0,0,1-.06-.9,1,1,0,0,1,.66-.68,1,1,0,0,1,1.12.32l.14.16.06-.2a2,2,0,0,1,.36-.68.94.94,0,0,1,.66-.35c.39,0,.78.4.63.71l.23.07a1.78,1.78,0,0,1,1.88-1.38,2.85,2.85,0,0,1,1,.3s-.06-.08-.22-.19a1.93,1.93,0,0,0-1.95,0,2,2,0,0,0-.93,1.24l.22.07a.7.7,0,0,0-.15-.73,1,1,0,0,0-.7-.32,1.17,1.17,0,0,0-.84.45,2.23,2.23,0,0,0-.4.76l.2,0a1.3,1.3,0,0,0-1.36-.36,1.16,1.16,0,0,0-.74.83,1.19,1.19,0,0,0,.05.73C346.52,173.26,346.59,173.33,346.6,173.32Z" style="fill:#455a64"></path><path d="M330.53,180.11a.54.54,0,0,1-.24.08,1.76,1.76,0,0,1-.7,0,2.6,2.6,0,0,1-1.79-1.37,4.13,4.13,0,0,1-.43-2.23,2.89,2.89,0,0,1,.16-.92s0,.36,0,.93a4.44,4.44,0,0,0,.46,2.13,2.61,2.61,0,0,0,1.65,1.33A4,4,0,0,0,330.53,180.11Z" style="fill:#455a64"></path><path d="M347.45,165.54s-.08-.13-.27-.35a2.39,2.39,0,0,0-1-.68,2.22,2.22,0,0,0-1.79.09,2.36,2.36,0,0,0-1.25,1.87v.18l-.14-.13a2,2,0,0,0-1.44-.52,1.89,1.89,0,0,0-1.45.74,2,2,0,0,0-.41,1.57l0,.21-.18-.11a1.23,1.23,0,0,0-1.71,1.67l.14.24-.25-.13a2.11,2.11,0,0,0-1.62-.13,2.39,2.39,0,0,0-1.08.68,2.35,2.35,0,0,0-.53,1,.81.81,0,0,1,.05-.29,2,2,0,0,1,.41-.75,2.44,2.44,0,0,1,1.12-.74,2.2,2.2,0,0,1,1.73.11l-.11.11a1.41,1.41,0,0,1,2-1.91l-.15.1a2.27,2.27,0,0,1,.44-1.73,2.08,2.08,0,0,1,1.6-.81,2.18,2.18,0,0,1,1.57.58l-.15.06a2.49,2.49,0,0,1,1.36-2,2.27,2.27,0,0,1,1.9-.06,2.33,2.33,0,0,1,1,.74A1.3,1.3,0,0,1,347.45,165.54Z" style="fill:#455a64"></path><path d="M338.74,185.23c-.05,0,0-.52-.28-1.41a5.89,5.89,0,0,0-2.15-3.12,5.66,5.66,0,1,0,0,9.06,5.86,5.86,0,0,0,2.15-3.12c.25-.88.23-1.41.28-1.41s0,.13,0,.38a4.48,4.48,0,0,1-.12,1.08,5.82,5.82,0,0,1-2.13,3.36,6.07,6.07,0,0,1-8.61-1.19,6.08,6.08,0,0,1,0-7.25,6.06,6.06,0,0,1,8.61-1.2,5.88,5.88,0,0,1,2.13,3.36,4.58,4.58,0,0,1,.12,1.08C338.77,185.1,338.76,185.23,338.74,185.23Z" style="fill:#455a64"></path><path d="M353.17,188.25c-.05,0,0-.53-.28-1.42a5.84,5.84,0,0,0-2.15-3.11,5.65,5.65,0,1,0,0,9.05,5.84,5.84,0,0,0,2.15-3.11c.25-.89.23-1.42.28-1.41s0,.12,0,.37a4.6,4.6,0,0,1-.12,1.09,5.88,5.88,0,0,1-2.13,3.36,6,6,0,0,1-5.75.92,5.92,5.92,0,0,1-2.86-2.12,6.08,6.08,0,0,1,0-7.25,6.08,6.08,0,0,1,8.61-1.2,5.87,5.87,0,0,1,2.13,3.37,4.48,4.48,0,0,1,.12,1.08C353.2,188.12,353.19,188.25,353.17,188.25Z" style="fill:#455a64"></path><path d="M342,186.28c-.12.07-.53-.77-1.49-1.06s-1.76.2-1.84.08.1-.27.46-.45a2.08,2.08,0,0,1,1.52-.13,2.11,2.11,0,0,1,1.22.94C342,186,342,186.26,342,186.28Z" style="fill:#455a64"></path><path d="M362.81,197.29s.11,0,.3.05a4.43,4.43,0,0,1,.8.34,5.68,5.68,0,0,1,2.2,2.3,5.61,5.61,0,0,1,.28,4.69,5.67,5.67,0,0,1-4.43,3.59,5.59,5.59,0,0,1-5.94-7,4.81,4.81,0,0,1,1.83-2.61,2.13,2.13,0,0,1,1.06-.49s-.38.19-.94.65a4.84,4.84,0,0,0-1.59,2.54,5.29,5.29,0,0,0,.81,4.27,5.2,5.2,0,0,0,4.7,2.18,5.33,5.33,0,0,0,3.89-7.6,5.72,5.72,0,0,0-2-2.29C363.19,197.46,362.79,197.34,362.81,197.29Z" style="fill:#fff"></path><path d="M328.54,204.43a1.59,1.59,0,0,1-.7.22,5.18,5.18,0,0,1-2-.08,5,5,0,0,1-2.52-1.6,5.76,5.76,0,0,1-1.34-3.39,5.53,5.53,0,0,1,1-3.5,5.12,5.12,0,0,1,2.35-1.84,3.39,3.39,0,0,1,2.69-.08,6.29,6.29,0,0,0-2.55.43,4.9,4.9,0,0,0-2.1,1.76,5.27,5.27,0,0,0-.91,3.2,5.45,5.45,0,0,0,1.19,3.11,4.74,4.74,0,0,0,2.25,1.55A8.73,8.73,0,0,0,328.54,204.43Z" style="fill:#fff"></path><path d="M315.73,234c-5.56-1.06-11.06,3-13.54,8.1s-2.62,10.94-2.72,16.6-.21,11.54-.31,17.32c-.09,4.59,0,9.67,3.13,13,2.73,3,7.11,3.73,11.12,3.53,4.76-.23,9.63-1.71,13.08-5,4.27-4.06,5.79-10.2,6.48-16.05a81.07,81.07,0,0,0-.56-22.7c-.53-3.21-1.34-6.53-3.51-9-3.58-4-9.62-4.34-15-4.38" style="fill:#263238"></path><path d="M285.83,196c-.14.56,1.09,22.55,3.09,27.1s14.55,12.55,15.83,17.28,9.62,34.39,9.62,34.39-13.1,30.07-11.93,45.51c0,0,33,9,33.22,8.49s2.19-10.19,2.19-10.19l3.27,12.92,35.15-19.05s-3.14-19.15-5.32-24.06-7.09-16-4.73-20.91,2.91-26.19,2.91-26.19l2.6-15.62L358.88,218l-2.32-4.29-21.56.73-4.8,1.08-9.27,0s-7.35-2.62-10.44-2.8-3.89.48-3.89.48l-6.22-21S288.74,184.31,285.83,196Z" style="fill:#455a64"></path><path d="M384.39,262.84c-.06-.43-.16-.87-.26-1.3a105,105,0,0,0-1.35-11.1c0-.54.05-1.09.11-1.63a5.46,5.46,0,0,0-.76-2c-.45-2.31-1-4.81-1.66-7.47-3.2-12.82-10.67-14.58-10.67-14.58l-8.16,19.39,4,11.67-2.77,7.63-1.19,27.63,10.18,2.59c4.7-.43,8.29-4.62,9.84-9.07s1.56-9.27,2.19-13.95C384.2,268.07,384.75,265.44,384.39,262.84Z" style="fill:#455a64"></path><path d="M335,213.72a20.24,20.24,0,0,0-.18,5.86c.78,4.94,2.91,7.16,6.3,12.06.32.47,2.95,9,2.95,9s4.41-6.78,5.06-7.59c2.32-2.91,4.29-8.25,5.36-12.42a40.29,40.29,0,0,0,1.17-6.89Z" style="fill:#ffbe9d"></path><path d="M315.06,233.6a3.91,3.91,0,0,1-.55,1.94,7.31,7.31,0,0,1-8.38,3.82,3.68,3.68,0,0,1-1.83-.86c0-.08.72.29,1.91.5a7.54,7.54,0,0,0,8-3.63C314.8,234.33,315,233.57,315.06,233.6Z" style="fill:#263238"></path><path d="M308.58,220.36a5.31,5.31,0,0,1-.42-1.07l-1-3c-.78-2.52-1.84-6-3-9.9s-2.13-7.39-2.83-9.94c-.31-1.19-.58-2.2-.79-3a5.34,5.34,0,0,1-.23-1.13,4.91,4.91,0,0,1,.42,1.08l1,3c.79,2.52,1.84,6,3,9.89s2.13,7.38,2.82,9.93c.32,1.2.59,2.21.8,3A5.34,5.34,0,0,1,308.58,220.36Z" style="fill:#263238"></path><path d="M315.73,224.63a15.23,15.23,0,0,1-.39-2.48,15.27,15.27,0,0,0-1.72-5.67,7.61,7.61,0,0,0-2.11-2.39,5.51,5.51,0,0,0-2.44-.87,13.51,13.51,0,0,0-2.47.05s.21-.14.64-.26a6,6,0,0,1,1.86-.16,5.62,5.62,0,0,1,2.67.84,7.43,7.43,0,0,1,2.3,2.53,13.8,13.8,0,0,1,1.64,5.89A10.64,10.64,0,0,1,315.73,224.63Z" style="fill:#263238"></path><path d="M368.33,240.06a2.54,2.54,0,0,1,.1.58c.05.44.11,1,.19,1.67.15,1.44.35,3.54.46,6.15a51.76,51.76,0,0,1-.33,9.16,32.35,32.35,0,0,1-1.15,5.3c-.54,1.82-1.31,3.6-1.88,5.48a15.74,15.74,0,0,0,.56,10.79c1.23,3.18,2.74,5.9,3.79,8.29a31,31,0,0,1,2,5.84,15.62,15.62,0,0,1,.31,1.65,4.17,4.17,0,0,1,.06.58c-.06,0-.19-.79-.57-2.18a33.25,33.25,0,0,0-2.18-5.73c-1.08-2.36-2.62-5.06-3.9-8.28a19.05,19.05,0,0,1-1.28-5.3,9.81,9.81,0,0,1-.05-1.44,10.27,10.27,0,0,1,.07-1.46,17.44,17.44,0,0,1,.65-2.91c.58-1.92,1.36-3.7,1.89-5.48a32.4,32.4,0,0,0,1.17-5.22,54.76,54.76,0,0,0,.43-9.08c-.06-2.6-.21-4.7-.29-6.15,0-.68-.07-1.23-.09-1.67A2.24,2.24,0,0,1,368.33,240.06Z" style="fill:#263238"></path><path d="M369,251.9a14.69,14.69,0,0,1-2.74-.72c-1.67-.52-3.95-1.31-6.42-2.3s-4.66-2-6.22-2.78a13.85,13.85,0,0,1-2.47-1.38,17.23,17.23,0,0,1,2.62,1.05c1.6.69,3.81,1.63,6.27,2.62s4.71,1.84,6.34,2.44A15.88,15.88,0,0,1,369,251.9Z" style="fill:#263238"></path><g style="opacity:0.30000000000000004"><path d="M329.22,216.17a30.32,30.32,0,0,0,.73,11.49s2,8.62,3.25,11.12c.83,1.71,2.72,6.2,4.23,7a60.67,60.67,0,0,1,3.64-7.12,12.17,12.17,0,0,0,2.84,2c-.72-1.65-3-5-3-8-.76,2.23-2.53,4.94-3.53,6.9a63.65,63.65,0,0,1-8.15-23.42"></path></g><path d="M344.07,240.65a3.43,3.43,0,0,1-.34-.51l-.87-1.5a15.86,15.86,0,0,1-2.17-5.92l.4.07L337.42,240l-.22.44L337,240c-.7-1.28-1.41-2.64-2.08-4.06A65.41,65.41,0,0,1,330,221.72a45.25,45.25,0,0,1-.7-4.52,8.09,8.09,0,0,1-.08-1.67,13.58,13.58,0,0,1,.28,1.65c.17,1.06.43,2.59.86,4.46a72.59,72.59,0,0,0,5,14.11c.67,1.41,1.37,2.76,2.06,4H337l3.74-7.19L341,232l.08.68a16.61,16.61,0,0,0,2,5.86l.77,1.55A2.31,2.31,0,0,1,344.07,240.65Z" style="fill:#263238"></path><path d="M345.77,238.84c.11-.15,3.82-2.72,3.82-2.72l1.27,4.53a15.86,15.86,0,0,0,5-6.07c1.47-3.59,2-11.8,2-11.89s-.28,6.16-2.26,9.95a23.69,23.69,0,0,1-3.79,5.59l-1.06-5.59Z" style="opacity:0.30000000000000004"></path><path d="M329.52,285a14.39,14.39,0,0,1-2.37-1.33c-1.43-.88-3.38-2.13-5.53-3.53s-4.07-2.71-5.45-3.67a14.08,14.08,0,0,1-2.17-1.64,14.35,14.35,0,0,1,2.38,1.34c1.43.88,3.38,2.13,5.53,3.53s4.06,2.7,5.44,3.66A14.08,14.08,0,0,1,329.52,285Z" style="fill:#263238"></path><g style="opacity:0.30000000000000004"><path d="M349.46,260.42a30.32,30.32,0,0,0,6.71,8.35,5.87,5.87,0,0,0,2,1.28,5.2,5.2,0,0,0,3.7-.6,22.35,22.35,0,0,1,3.45-1.67c-1.68-.7-5.18.38-5.76.38,0,0-1.46-1.21-2.37-1.81-2.57-1.69-5.19-4.23-7.76-5.93"></path></g><path d="M383.28,277.59a12.38,12.38,0,0,1,.05-1.81c0-1.17.08-2.86-.05-4.95s-.42-4.55-.79-7.29-.79-5.77-.95-9c-.06-1-.07-2.06-.08-3.05l.24.26-11.65-.88.21-.19c-.06.83-.12,1.6-.17,2.31v0h0l-1.26,4.32a11.12,11.12,0,0,1-.52,1.53,10.82,10.82,0,0,1,.34-1.59c.27-1.1.64-2.56,1.1-4.34v0c0-.72.08-1.48.12-2.31v-.2h.2l11.67.76.23,0v.24c0,1,0,2,.08,3,.16,3.18.57,6.2.9,8.94s.61,5.24.68,7.34a40.81,40.81,0,0,1-.1,5c-.06.58-.13,1-.17,1.34S383.3,277.6,383.28,277.59Z" style="fill:#263238"></path><path d="M314.71,258.29c.74-.14,1.39.53,1.66,1.23a16.93,16.93,0,0,0,.69,2.12c.36.66,1.22,1.15,1.85.75s.7-1.27,1.35-1.42,1.14.67,1.35,1.34c.75-.66,1.73-1.38,2.66-1,.61.24,1,.88,1.56,1.18a1.69,1.69,0,0,0,2.35-1.34,1.61,1.61,0,0,0,1.77-.08,1.59,1.59,0,0,0,.54-1.68,3.67,3.67,0,0,0-.95-1.53,1.28,1.28,0,0,0-1.66-.07,2.91,2.91,0,0,0-.51,1.08c-.15.37-.48.75-.87.69-.72-.11-.77-1.46-1.49-1.43-.43,0-.67.56-1.09.65-.64.15-.95-.73-1.34-1.26a1.69,1.69,0,0,0-3.05,1,2.25,2.25,0,0,1-1-1.65,2.67,2.67,0,0,0-.84-1.74c-.54-.38-1.54,0-1.38.66a1.12,1.12,0,0,0-1.28-.5,1.14,1.14,0,0,0-.76,1.14" style="fill:#fff"></path><g style="opacity:0.30000000000000004"><path d="M312.75,270.9c2.93-3.81,4.31-7.76,5.51-12.42,2.33-9.05,2.49-18.92,2.49-27.87C320.75,230.61,316,257.51,312.75,270.9Z"></path></g><g style="opacity:0.30000000000000004"><path d="M315.2,233.86a8.61,8.61,0,0,1-4.3,4.71,8.38,8.38,0,0,1-6.3.08,16.34,16.34,0,0,0,3.07,2.37,5.63,5.63,0,0,0,3.73.72,5.06,5.06,0,0,0,3.51-3.09A8.23,8.23,0,0,0,315.2,233.86Z"></path></g><g style="opacity:0.30000000000000004"><path d="M318.19,277.93a18.59,18.59,0,0,0,17,10.34C329.54,284.93,323.86,281.27,318.19,277.93Z"></path></g><path d="M322.76,305.05a1.64,1.64,0,0,0-1.31-1,9.36,9.36,0,0,0-1.4,0,3.6,3.6,0,0,1-3-1.73,3.24,3.24,0,0,1-.9,1.11,1.16,1.16,0,0,1-1.35,0c-.69-.59-.3-2.12-1.19-2.32s-1.5,1.73-2.54,1.16a1.1,1.1,0,0,1-.51-1.21c.15-.61-.4-1.77-1.06-1.44-.43.22-.4.92-.82,1.17s-1.08-.33-1.28-.9h0a1.26,1.26,0,0,0-1.88-.63,2.26,2.26,0,0,0-.57.49l-.9,3.45c.39-.14.43-.39.82-.52-.45.39.21,1.09.8,1.15s1.33,0,1.66.45a5,5,0,0,1,.27.85A1.44,1.44,0,0,0,309,306a4.31,4.31,0,0,0,1.66-.5,1.84,1.84,0,0,0,2.71,1.45c.55-.35.86-1,1.43-1.32a3.24,3.24,0,0,1,2.43,0l3.54.93a2.2,2.2,0,0,0,1.43,0A1.22,1.22,0,0,0,322.76,305.05Z" style="fill:#fff"></path><path d="M372.66,297.71a1.2,1.2,0,1,0-2.38.1,3.46,3.46,0,0,0-1.11-.87,1.2,1.2,0,0,0-1.31.19,5.13,5.13,0,0,1-.45.57c-.45.34-1.09-.08-1.45-.52s-.77-1-1.34-.94c-.83.09-1.09,1.42-1.92,1.49-.59.06-1.12-.58-1.69-.42s-.69,1.17-1.28,1.48c-.9.47-1.83-1.05-2.81-.79-.59.16-.82.88-1.29,1.28a2.68,2.68,0,0,1-1.6.45,3.41,3.41,0,0,0-1.65.32,1.08,1.08,0,0,0-.44,1.44l3.42.11a2.41,2.41,0,0,1,1,.19c.43.21.73.67,1.19.78a1.21,1.21,0,0,0,1.15-.46,3.89,3.89,0,0,0,.56-1.16,2,2,0,0,0,2.3,1.86,2,2,0,0,0,1.43-2.56,2.6,2.6,0,0,0,2.09,1.1,1.46,1.46,0,0,0,1.37-1.66,1.75,1.75,0,0,0,1.57.94,1.19,1.19,0,0,0,1.11-1.3,1.24,1.24,0,0,0,2.33-.31.83.83,0,0,0,1.08.71,1.13,1.13,0,0,0,.67-1.21,1.68,1.68,0,0,0-.9-1.16" style="fill:#fff"></path><path d="M351.74,276.08c-.62-.48-1.15-1.38-1.92-1.2s-1,1.13-1.69,1.08-.82-1.1-1.31-1.64A1.62,1.62,0,0,0,345,274a4.81,4.81,0,0,0-1.53,1.17,4.76,4.76,0,0,0-.53-1.74,2.6,2.6,0,0,0-2.13-.68l-1,4.73c.27-.25.81-.54,1.08-.8a3.57,3.57,0,0,0,.87,1.48,1.23,1.23,0,0,0,1.58.11c.19-.18.34-.46.6-.49s.54.32.58.64a2,2,0,0,0,.21.93.93.93,0,0,0,1.31,0,6.45,6.45,0,0,0,.89-1.17,1.21,1.21,0,0,1,1.28-.52c.52.19.83.94,1.37.83.35-.07.51-.45.79-.67.73-.57,1.72.18,2.63.33a2.06,2.06,0,0,0,2.31-1.94C354.16,276.56,352.74,276.85,351.74,276.08Z" style="fill:#fff"></path><path d="M337.28,317.28v-.17A.33.33,0,0,0,337.28,317.28Z" style="fill:#fff"></path><path d="M345.77,314.8c-.08-.28-.26-.63-.54-.57s-.29.58-.52.83-.78.08-1-.25-.25-.75-.43-1.1a1.54,1.54,0,0,0-2.91.65,4.73,4.73,0,0,0-.89-1.14,1.6,1.6,0,0,0-1.35-.4,1,1,0,0,0-.77,1.06l-.08,3.23c.1-.31.79-.49,1.17-.47s.92.16,1.27-.11.36-.59.67-.67c.57-.16,1,.88,1.53.72.17,0,.29-.19.45-.27a1.13,1.13,0,0,1,1.21.35,2.24,2.24,0,0,0,1.11.71,1.2,1.2,0,0,0,1.19-.95A3.2,3.2,0,0,0,345.77,314.8Z" style="fill:#fff"></path><path d="M344.07,240.65a3.62,3.62,0,0,1,.19.78,22,22,0,0,1,.37,2.26,40.1,40.1,0,0,1,.05,8.42c-.55,7.13-3.41,16.58-4.81,27.31A265.19,265.19,0,0,0,337.58,307c-.13,3.54-.16,6.41-.2,8.4,0,.95,0,1.71,0,2.28a3.77,3.77,0,0,1,0,.8,7,7,0,0,1-.05-.8q0-.85-.06-2.28c0-2-.05-4.86,0-8.41a237,237,0,0,1,2.15-27.67c1.4-10.77,4.31-20.22,4.95-27.28a43.4,43.4,0,0,0,.12-8.36c-.08-1-.19-1.75-.27-2.26A7.69,7.69,0,0,1,344.07,240.65Z" style="fill:#263238"></path><path d="M362.79,259.45a1.51,1.51,0,0,0-1.37-.68c-.39,0-.78.12-1.17.14a1.17,1.17,0,0,1-1.05-.42,1.83,1.83,0,0,1-.09-1.23c0-.41,0-.92-.37-1.12s-.93.11-1.29.44l-1.29-2.74a1,1,0,0,0-.37-.48c-.38-.21-.84.17-1.05.55s-.39.87-.81,1a2.35,2.35,0,0,1-.38-1.49c0-.53-.23-1.14-.74-1.28a1,1,0,0,0-1,.42,3,3,0,0,0-.4,1.05,2.66,2.66,0,0,0,0-1.65c-.23-.52-.58-.81-1-.43l-.37,3.83a1.75,1.75,0,0,0,1.16,1.45,1.72,1.72,0,0,0,1.79-.47,5.06,5.06,0,0,0,.75,1.27,1.69,1.69,0,0,0,1.28.63,5.5,5.5,0,0,1,1-.09c1.06.16,1.14,2,2.19,2.17.64.13,1.23-.45,1.88-.4.82.06,1.46,1.1,2.25.85A.94.94,0,0,0,362.79,259.45Z" style="fill:#fff"></path><path d="M351.39,241.14l.3.09.91.32,3.52,1.26,12.72,4.65.13,0v.13a43.28,43.28,0,0,1-.14,9.41,44.68,44.68,0,0,1-1,5.07,20.23,20.23,0,0,1-1.78,5.12l-.13.28-.06.13h-.14l-6.08.76h-.1l-.09-.06-10-7.67-.1-.08v-.12c.59-5.8,1.08-10.66,1.43-14.12.18-1.64.32-2.95.42-3.9,0-.41.09-.75.12-1a1,1,0,0,1,.05-.33,2.89,2.89,0,0,1,0,.39c0,.28-.05.63-.08,1.06-.08,1-.18,2.3-.31,4-.29,3.43-.69,8.24-1.17,14l-.09-.2,10,7.62-.19,0,6.07-.76-.2.14.13-.27a19.73,19.73,0,0,0,1.75-5,45.23,45.23,0,0,0,1-5,42.93,42.93,0,0,0,.2-9.28l.14.18-12.48-4.82-3.53-1.39-.95-.38A2.45,2.45,0,0,1,351.39,241.14Z" style="fill:#263238"></path><path d="M369,274.75a5.19,5.19,0,0,1,0-2.32,1.77,1.77,0,0,1,1.68-1.36c1,.07,1.55,1.22,1.87,2.19a1.59,1.59,0,0,1,3-.9c.26.56.33,1.41.94,1.47.87.09,1-1.59,1.89-1.58.51,0,.77.61.91,1.1s.44,1.09.95,1.06.67-.46,1.05-.63a1.17,1.17,0,0,1,1.2.26,3.46,3.46,0,0,1,.72,1.08c.06.62-.83.88-1.42.69s-1.18-.62-1.8-.49-1.08.72-1.66.55c-.34-.1-.58-.46-.93-.52-.71-.12-1,.91-1.62,1.27a1.34,1.34,0,0,1-1.5-.26,3.89,3.89,0,0,1-.86-1.35,3.29,3.29,0,0,1-1.66,1.41c-.72.18-1.64-.44-1.44-1.15a1.18,1.18,0,0,1-2.35.21.8.8,0,0,1,.39-.81c.29-.13.71.11.66.43" style="fill:#fff"></path><path d="M303.32,221.87a4.22,4.22,0,0,0-.83-2,1.44,1.44,0,0,0-2-.26c-.44.41-.5,1.18-1,1.44a1.13,1.13,0,0,1-1.29-.44,6,6,0,0,1-.66-1.31,3,3,0,0,0-2.45-1.8,1.85,1.85,0,0,0-1.9,2L291.25,216a1.88,1.88,0,0,0-.81-.92c-.72-.29-1.47.42-1.72,1.15a11.72,11.72,0,0,1-.6,2.22l-.09,2.08a1.27,1.27,0,0,0,.62,1.19l.56-.54a2.84,2.84,0,0,0,.63,1.14,1,1,0,0,0,1.19.13c.22-.17.31-.46.5-.67a1.28,1.28,0,0,1,1.7,0,3.66,3.66,0,0,1,.95,1.6l.86-.64a3.22,3.22,0,0,0,5.33-.09,4,4,0,0,0,1,1.27A1.38,1.38,0,0,0,303,224C303.57,223.53,303.48,222.61,303.32,221.87Z" style="fill:#fff"></path><path d="M329,227.1a1.66,1.66,0,0,0-1-1.15,1,1,0,0,0-1.28.61c-.55-.36-.37-1.23-.74-1.77a1.93,1.93,0,0,0-.82-.57l-1.92-.89-1,2.63c.37-.07.64.36.69.73a2.86,2.86,0,0,0,.18,1.1.88.88,0,0,0,1.06.33,1,1,0,0,0,.6-1,4.74,4.74,0,0,0,1.78,2.42l.51-1.19c.36,0,.6.35.83.63s.61.56.91.37a.84.84,0,0,0,.27-.72A4.84,4.84,0,0,0,329,227.1Z" style="fill:#fff"></path><polygon points="320.48 214.9 308.33 267.81 312.75 270.9 325.66 215.15 320.48 214.9" style="fill:#263238"></polygon><path d="M368.88,228.6a1.83,1.83,0,0,0-.67-.91A2.3,2.3,0,0,0,365,228a4.66,4.66,0,0,0-.21-1.54,1.62,1.62,0,0,0-1.08-1.05,1,1,0,0,0-1.18.73,4.82,4.82,0,0,0-.66-1.48,1.63,1.63,0,0,0-1.39-.73,1,1,0,0,0-.94,1.09,1.28,1.28,0,0,0-1.69-.77l-.42,2.91c-.06.61,1,1.17,1.56,1a2.87,2.87,0,0,0,1.45-1.09,4.39,4.39,0,0,0,.62,1.66,1.45,1.45,0,0,0,1.55.59,2,2,0,0,1,.65-.23c.48,0,.69.63,1.09.89.71.45,1.58-.36,2.42-.41.62,0,1.3.34,1.81,0A1,1,0,0,0,368.88,228.6Z" style="fill:#fff"></path><path d="M358.33,218a7.12,7.12,0,0,1-.05,1.47c-.08,1.05-.19,2.4-.32,4-.08.85-.16,1.78-.25,2.77a14.5,14.5,0,0,1-.56,3.17,24.08,24.08,0,0,1-3.28,6.58,27.54,27.54,0,0,1-1.81,2.38l-.35.41-.1-.53c-.36-2-.71-3.88-1-5.6l.4.11c-3.95,4.56-6.51,7.77-6.32,7.86-.36-.18,2.09-3.54,6-8.16l.31-.37.09.48c.33,1.71.69,3.59,1.08,5.58l-.45-.12a26.85,26.85,0,0,0,1.77-2.33,24.33,24.33,0,0,0,3.25-6.43,14.64,14.64,0,0,0,.59-3.08c.11-1,.22-1.91.31-2.76.2-1.61.37-3,.49-4A8.8,8.8,0,0,1,358.33,218Z" style="fill:#263238"></path><path d="M380.94,251.33l.29-1.62s3.34-5,3.63-6.6,1.86-8.6,1.93-9,.59-3.71-.3-4.23a2.4,2.4,0,0,0-2.74.3c-1,.67-.37.08-.37.08a31,31,0,0,0-.89-5.19c-.44-.89-2.44-1.41-3-.82,0,0,2.67-13,1.85-13.86s-1.56-.37-2.37,0-2.23,7.86-2.82,10.67a21.57,21.57,0,0,0-.44,5.19.93.93,0,0,1-1.34-.37c-.44-.89-3.26-10.75-3.48-12.15s-1-2.52-1.85-1.78-1.41,3-1.19,5.26S370.71,229,370.71,229s0,4.3-.15,5-1.11,3.33-1,4.44.18,5.38.6,6.23,1.33,2,1.41,2.89a12.61,12.61,0,0,1-.73,3.16Z" style="fill:#ffbe9d"></path><path d="M377.21,244.12a27.59,27.59,0,0,0,.78-4.54,28,28,0,0,0-.5-4.57,7.75,7.75,0,0,1,1,4.59A7.91,7.91,0,0,1,377.21,244.12Z" style="fill:#eb996e"></path><path d="M379.58,224.35a1,1,0,0,0-.78.55,2.83,2.83,0,0,0-.24,1,25.54,25.54,0,0,0,0,6.36,3.37,3.37,0,0,0,.3,1.18,1.3,1.3,0,0,0,.9.75,1.36,1.36,0,0,0,1.36-.76,4,4,0,0,0,.38-1.6c.16-1.7.32-3.4.49-5.1" style="fill:#ffbe9d"></path><path d="M382,226.69a15.53,15.53,0,0,1-.09,2.82c-.07.88-.11,1.89-.26,3.07a2.23,2.23,0,0,1-1,1.67,1.37,1.37,0,0,1-1.14.09,1.68,1.68,0,0,1-.83-.79,5.7,5.7,0,0,1-.41-2c-.06-.63-.09-1.24-.1-1.83a22,22,0,0,1,.15-3.08,3.71,3.71,0,0,1,.57-2c.38-.4.74-.32.72-.29a1.29,1.29,0,0,0-.57.41,4.26,4.26,0,0,0-.36,1.94,29.66,29.66,0,0,0,0,3c0,.57.06,1.17.13,1.79a5.7,5.7,0,0,0,.36,1.79.91.91,0,0,0,1.27.49,1.77,1.77,0,0,0,.8-1.3c.16-1.1.25-2.17.37-3A15.12,15.12,0,0,1,382,226.69Z" style="fill:#eb996e"></path><path d="M383.25,230.41a5.91,5.91,0,0,0-2.72,3.26,1,1,0,0,0,.27,1.08c.39.29.94,0,1.36-.22l3.68-2.24" style="fill:#ffbe9d"></path><path d="M385.84,232.29a5.26,5.26,0,0,1-1.32,1l-1.5,1c-.3.18-.58.37-.92.57a1.44,1.44,0,0,1-1.31.18,1.15,1.15,0,0,1-.55-1.26,4.79,4.79,0,0,1,.43-1,5.81,5.81,0,0,1,1.14-1.47c.78-.72,1.42-.92,1.45-.86s-.52.38-1.19,1.12a6.59,6.59,0,0,0-1,1.43,4.91,4.91,0,0,0-.36.91.66.66,0,0,0,.27.7,1,1,0,0,0,.85-.16l.91-.53,1.56-.89A5.37,5.37,0,0,1,385.84,232.29Z" style="fill:#eb996e"></path><path d="M371.18,235l5.85-5.51a2.59,2.59,0,0,1,1.86-.95,1.61,1.61,0,0,1,1.34,1.48,3.08,3.08,0,0,1-.62,2c-.4.6-.91,1.12-1.33,1.7a24.85,24.85,0,0,0-2.17,4.64,6.58,6.58,0,0,1-3.33,3.72" style="fill:#ffbe9d"></path><path d="M372.78,242.06s.34-.17.87-.58a6.63,6.63,0,0,0,1.76-2.18c.59-1,1-2.42,1.66-3.92a9.3,9.3,0,0,1,1.31-2.23,7.7,7.7,0,0,0,1.46-2.16,2.08,2.08,0,0,0,.1-1.2,1.53,1.53,0,0,0-.65-.91c-.64-.4-1.4.09-2,.61l-3.15,2.89c-.91.82-1.64,1.47-2.16,1.92a4.41,4.41,0,0,1-.84.65s.23-.31.7-.8,1.17-1.19,2.05-2l3.08-3a3.79,3.79,0,0,1,1.08-.76,1.61,1.61,0,0,1,1.46.06,2,2,0,0,1,.89,1.21,2.59,2.59,0,0,1-.11,1.51,8,8,0,0,1-1.55,2.31,9.61,9.61,0,0,0-1.28,2.1,37.16,37.16,0,0,1-1.77,3.92,6.3,6.3,0,0,1-2,2.16A2.06,2.06,0,0,1,372.78,242.06Z" style="fill:#eb996e"></path><path d="M287.42,169.44s-.06-4.13.53-5.1a15.52,15.52,0,0,1,4.22-3.68c.62-.1,5.65,0,5.65,0s.29,2.42-1.36,3a18.23,18.23,0,0,1-4.29.68L291,165.69v5.42Z" style="fill:#ffbe9d"></path><path d="M289.69,164.32l-1.28,9.86a2.33,2.33,0,0,0,2.17,2.63l26.92,1.55a2.86,2.86,0,0,0,3.08-2.68l.61-10.26a3,3,0,0,0-2.89-3.15l-25.67-.56A2.89,2.89,0,0,0,289.69,164.32Z" style="fill:#455a64"></path><path d="M288.13,195l-.91-10.6s-1.44-2.36-1.05-3.93a5.57,5.57,0,0,1-.9-2.88,5.87,5.87,0,0,0,0-1.7l-.32-6s-.33-1.44,2.41-1.44c2.11,0,7.63.63,10.05,2.48a1.53,1.53,0,0,1-.55,2.68,11.19,11.19,0,0,1-2.05.34,41.21,41.21,0,0,1-6.42-.65h0a3.71,3.71,0,0,0,3.24,3c3.52.38,9.29,1.21,9.72,2.65.5,1.68-1.42,1.83-1.42,1.83s1.56.42,1.57,1.53-1.85,1.09-1.85,1.09-.48,5.48-2.23,6.14l.47,4.61s-1.12,4.56-5.18,4.43A4.47,4.47,0,0,1,288.13,195Z" style="fill:#ffbe9d"></path><path d="M300.15,180.7c0,.17-2.76,0-6.07-.6-1.65-.26-3.17-.5-4.24-.57a3,3,0,0,0-1.65.36s.07-.19.34-.38a2.64,2.64,0,0,1,1.31-.35,28.66,28.66,0,0,1,4.32.42c1.66.27,3.16.55,4.24.74A7.63,7.63,0,0,1,300.15,180.7Z" style="fill:#eb996e"></path><path d="M294,184.09c.14,0,.39.47.19,1.1s-.69.9-.77.79.13-.47.27-.95S293.82,184.13,294,184.09Z" style="fill:#eb996e"></path><path d="M299.84,183.24a13,13,0,0,1-3.57.82,13.22,13.22,0,0,1-3.64.31,13,13,0,0,1,3.56-.82A12.84,12.84,0,0,1,299.84,183.24Z" style="fill:#eb996e"></path><path d="M295.07,173.87a18,18,0,0,1-4.27-.18,14.61,14.61,0,0,1-4.22-.76,23.18,23.18,0,0,1,4.27.24A17.45,17.45,0,0,1,295.07,173.87Z" style="fill:#eb996e"></path><path d="M316.07,169a1,1,0,1,1-1-1A1,1,0,0,1,316.07,169Z" style="fill:#fff"></path></g></svg>