<svg xmlns="http://www.w3.org/2000/svg" viewBox="0 0 750 500"><g id="freepik--background-complete--inject-16"><path d="M142.53,374.34a5.1,5.1,0,0,1-.47.88,7.12,7.12,0,0,1-2.06,2c-2.07,1.39-5.87,2.26-10.24,1.25-2.18-.46-4.49-1.24-7-1.87a23.53,23.53,0,0,0-3.93-.68,17.6,17.6,0,0,0-4.2.21,60.89,60.89,0,0,0-8.79,2.48,26.79,26.79,0,0,1-9.74,1.69c-3.45-.26-6.56-1.56-9.57-2.52a26.71,26.71,0,0,0-4.5-1.13,15.08,15.08,0,0,0-4.4,0,36,36,0,0,0-7.87,2.42,38.14,38.14,0,0,1-6.91,2.24c-4.41.78-8.18-.23-10.17-1.76a7.83,7.83,0,0,1-1.91-2.14c-.12-.27-.23-.49-.31-.67a1.67,1.67,0,0,1-.1-.24,8.31,8.31,0,0,0,2.44,2.88c2,1.45,5.66,2.38,10,1.57a39.17,39.17,0,0,0,6.81-2.28,36,36,0,0,1,8-2.5,15.68,15.68,0,0,1,4.54,0,28,28,0,0,1,4.59,1.13c3,1,6.11,2.25,9.44,2.49a26.67,26.67,0,0,0,9.56-1.65,58.05,58.05,0,0,1,8.86-2.47,18.57,18.57,0,0,1,4.32-.2,25.08,25.08,0,0,1,4,.72c2.53.65,4.82,1.45,7,1.93,4.29,1,8,.24,10.07-1.06a7.54,7.54,0,0,0,2.07-1.88C142.34,374.63,142.51,374.33,142.53,374.34Z" style="fill:#e0e0e0"></path><path d="M434.56,412.1a5.59,5.59,0,0,1-.47.88,7.19,7.19,0,0,1-2,2c-2.08,1.39-5.88,2.26-10.25,1.24-2.18-.45-4.49-1.24-7-1.87a24.41,24.41,0,0,0-3.93-.67,17.6,17.6,0,0,0-4.2.21,60.89,60.89,0,0,0-8.79,2.48,26.57,26.57,0,0,1-9.74,1.68c-3.45-.25-6.56-1.55-9.57-2.51a26.47,26.47,0,0,0-4.5-1.13,14.74,14.74,0,0,0-4.4,0,36.17,36.17,0,0,0-7.87,2.42,38.14,38.14,0,0,1-6.91,2.24c-4.41.78-8.18-.23-10.16-1.77a7.36,7.36,0,0,1-1.91-2.13c-.13-.27-.24-.49-.32-.67s-.1-.23-.09-.24a8,8,0,0,0,2.44,2.88c2,1.45,5.66,2.38,10,1.56a38.26,38.26,0,0,0,6.81-2.27,36,36,0,0,1,8-2.5,15.34,15.34,0,0,1,4.54,0,28,28,0,0,1,4.59,1.13c3,1,6.11,2.24,9.44,2.49a26.64,26.64,0,0,0,9.56-1.65,58.05,58.05,0,0,1,8.86-2.47,18,18,0,0,1,4.32-.2,24,24,0,0,1,4,.72c2.53.65,4.82,1.45,7,1.93,4.28,1,8,.24,10.06-1.06a7.39,7.39,0,0,0,2.07-1.88C434.38,412.39,434.54,412.09,434.56,412.1Z" style="fill:#e0e0e0"></path><rect x="368.18" y="242.78" width="25.88" height="82.01" style="fill:#f5f5f5"></rect><rect x="381.12" y="242.78" width="12.94" height="81.79" style="fill:#ebebeb"></rect><rect x="371.14" y="234.72" width="9.14" height="8.05" style="fill:#f5f5f5"></rect><rect x="378.1" y="234.72" width="2.18" height="8.05" style="fill:#ebebeb"></rect><polyline points="366.02 242.78 366.02 242.31 394.82 242.31 394.82 242.78" style="fill:#e0e0e0"></polyline><rect x="373.29" y="246.29" width="2.19" height="4.62" style="fill:#fafafa"></rect><path d="M381.12,252.72c0,.05-2.9.09-6.47.09s-6.47,0-6.47-.09,2.9-.09,6.47-.09S381.12,252.67,381.12,252.72Z" style="fill:#e0e0e0"></path><rect x="386.34" y="246.29" width="2.19" height="4.62" style="fill:#e0e0e0"></rect><path d="M394.17,252.72c0,.05-2.9.09-6.47.09s-6.47,0-6.47-.09,2.9-.09,6.47-.09S394.17,252.67,394.17,252.72Z" style="fill:#e0e0e0"></path><rect x="386.34" y="255.46" width="2.19" height="4.62" style="fill:#e0e0e0"></rect><path d="M394.17,261.89c0,.05-2.9.09-6.47.09s-6.47,0-6.47-.09,2.9-.09,6.47-.09S394.17,261.84,394.17,261.89Z" style="fill:#e0e0e0"></path><rect x="386.34" y="264.9" width="2.19" height="4.62" style="fill:#e0e0e0"></rect><path d="M394.17,271.34c0,.05-2.9.08-6.47.08s-6.47,0-6.47-.08,2.9-.09,6.47-.09S394.17,271.29,394.17,271.34Z" style="fill:#e0e0e0"></path><rect x="386.34" y="274.35" width="2.19" height="4.62" style="fill:#e0e0e0"></rect><path d="M394.17,280.78c0,.05-2.9.09-6.47.09s-6.47,0-6.47-.09,2.9-.08,6.47-.08S394.17,280.73,394.17,280.78Z" style="fill:#e0e0e0"></path><rect x="386.34" y="283.53" width="2.19" height="4.62" style="fill:#e0e0e0"></rect><path d="M394.17,290c0,.05-2.9.09-6.47.09s-6.47,0-6.47-.09,2.9-.09,6.47-.09S394.17,289.91,394.17,290Z" style="fill:#e0e0e0"></path><rect x="386.34" y="292.74" width="2.19" height="4.62" style="fill:#e0e0e0"></rect><rect x="386.34" y="302.08" width="2.19" height="4.62" style="fill:#e0e0e0"></rect><path d="M394.17,299.17c0,.05-2.9.09-6.47.09s-6.47,0-6.47-.09,2.9-.08,6.47-.08S394.17,299.12,394.17,299.17Z" style="fill:#e0e0e0"></path><rect x="373.29" y="255.6" width="2.19" height="4.62" style="fill:#fafafa"></rect><path d="M381.12,262c0,.05-2.9.09-6.47.09s-6.47,0-6.47-.09,2.9-.09,6.47-.09S381.12,262,381.12,262Z" style="fill:#e0e0e0"></path><rect x="373.29" y="264.91" width="2.19" height="4.62" style="fill:#fafafa"></rect><path d="M381.12,271.34c0,.05-2.9.09-6.47.09s-6.47,0-6.47-.09,2.9-.09,6.47-.09S381.12,271.29,381.12,271.34Z" style="fill:#e0e0e0"></path><rect x="373.29" y="274.22" width="2.19" height="4.62" style="fill:#fafafa"></rect><path d="M381.12,280.65c0,.05-2.9.09-6.47.09s-6.47,0-6.47-.09,2.9-.09,6.47-.09S381.12,280.6,381.12,280.65Z" style="fill:#e0e0e0"></path><rect x="373.29" y="283.53" width="2.19" height="4.62" style="fill:#fafafa"></rect><path d="M381.12,290c0,.05-2.9.09-6.47.09s-6.47,0-6.47-.09,2.9-.09,6.47-.09S381.12,289.91,381.12,290Z" style="fill:#e0e0e0"></path><rect x="373.29" y="292.84" width="2.19" height="4.62" style="fill:#fafafa"></rect><path d="M381.12,299.27c0,.05-2.9.09-6.47.09s-6.47,0-6.47-.09,2.9-.09,6.47-.09S381.12,299.22,381.12,299.27Z" style="fill:#e0e0e0"></path><rect x="373.29" y="302.15" width="2.19" height="4.62" style="fill:#fafafa"></rect><polygon points="390.93 340.18 352.85 340.18 352.68 279.99 390.76 279.99 390.93 340.18" style="fill:#ebebeb"></polygon><rect x="371.72" y="279.99" width="19.04" height="60.18" style="fill:#e0e0e0"></rect><rect x="357.03" y="268.15" width="13.45" height="11.85" style="fill:#ebebeb"></rect><rect x="367.27" y="268.15" width="3.2" height="11.85" style="fill:#e0e0e0"></rect><rect x="349.51" y="279.3" width="42.37" height="0.69" style="fill:#e0e0e0"></rect><rect x="360.2" y="285.16" width="3.22" height="6.8" style="fill:#fff"></rect><path d="M371.72,294.63c0,.07-4.26.13-9.52.13s-9.52-.06-9.52-.13,4.26-.13,9.52-.13S371.72,294.55,371.72,294.63Z" style="fill:#e0e0e0"></path><rect x="379.4" y="285.16" width="3.22" height="6.8" style="fill:#f5f5f5"></rect><path d="M390.93,294.63c0,.07-4.27.13-9.52.13s-9.52-.06-9.52-.13,4.26-.13,9.52-.13S390.93,294.55,390.93,294.63Z" style="fill:#ebebeb"></path><rect x="379.4" y="298.66" width="3.22" height="6.8" style="fill:#f5f5f5"></rect><path d="M390.93,308.12c0,.07-4.27.13-9.52.13s-9.52-.06-9.52-.13,4.26-.13,9.52-.13S390.93,308.05,390.93,308.12Z" style="fill:#ebebeb"></path><rect x="379.4" y="312.56" width="3.22" height="6.8" style="fill:#f5f5f5"></rect><path d="M390.93,322c0,.07-4.27.13-9.52.13s-9.52-.06-9.52-.13,4.26-.13,9.52-.13S390.93,322,390.93,322Z" style="fill:#ebebeb"></path><rect x="379.4" y="326.46" width="3.22" height="6.8" style="fill:#f5f5f5"></rect><path d="M390.93,335.92c0,.07-4.27.13-9.52.13s-9.52-.06-9.52-.13,4.26-.13,9.52-.13S390.93,335.85,390.93,335.92Z" style="fill:#ebebeb"></path><rect x="360.2" y="298.86" width="3.22" height="6.8" style="fill:#fff"></rect><path d="M371.72,308.33c0,.07-4.26.13-9.52.13s-9.52-.06-9.52-.13,4.26-.13,9.52-.13S371.72,308.25,371.72,308.33Z" style="fill:#e0e0e0"></path><rect x="360.2" y="312.56" width="3.22" height="6.8" style="fill:#fff"></rect><path d="M371.72,322c0,.07-4.26.13-9.52.13s-9.52-.06-9.52-.13,4.26-.13,9.52-.13S371.72,322,371.72,322Z" style="fill:#e0e0e0"></path><rect x="360.2" y="326.26" width="3.22" height="6.8" style="fill:#fff"></rect><path d="M371.72,335.73c0,.07-4.26.13-9.52.13s-9.52-.06-9.52-.13,4.26-.13,9.52-.13S371.72,335.65,371.72,335.73Z" style="fill:#e0e0e0"></path><rect x="210.9" y="281.22" width="22.8" height="59.68" style="fill:#ebebeb"></rect><rect x="222.3" y="281.22" width="11.4" height="59.68" style="fill:#e0e0e0"></rect><rect x="213.5" y="274.13" width="8.05" height="7.09" style="fill:#ebebeb"></rect><rect x="219.63" y="274.13" width="1.92" height="7.09" style="fill:#e0e0e0"></rect><rect x="209" y="280.81" width="25.37" height="0.41" style="fill:#e0e0e0"></rect><rect x="215.4" y="284.31" width="1.93" height="4.07" style="fill:#fff"></rect><path d="M222.3,290s-2.56.08-5.7.08-5.7,0-5.7-.08,2.55-.08,5.7-.08S222.3,289.94,222.3,290Z" style="fill:#e0e0e0"></path><rect x="226.9" y="284.31" width="1.93" height="4.07" style="fill:#f5f5f5"></rect><path d="M233.8,290s-2.56.08-5.7.08-5.7,0-5.7-.08,2.55-.08,5.7-.08S233.8,289.94,233.8,290Z" style="fill:#ebebeb"></path><rect x="226.9" y="292.39" width="1.93" height="4.07" style="fill:#f5f5f5"></rect><path d="M233.8,298.06s-2.56.08-5.7.08-5.7,0-5.7-.08,2.55-.08,5.7-.08S233.8,298,233.8,298.06Z" style="fill:#ebebeb"></path><rect x="226.9" y="300.72" width="1.93" height="4.07" style="fill:#f5f5f5"></rect><path d="M233.8,306.38c0,.05-2.56.08-5.7.08s-5.7,0-5.7-.08,2.55-.07,5.7-.07S233.8,306.34,233.8,306.38Z" style="fill:#ebebeb"></path><rect x="226.9" y="309.04" width="1.93" height="4.07" style="fill:#f5f5f5"></rect><path d="M233.8,314.71s-2.56.08-5.7.08-5.7,0-5.7-.08,2.55-.08,5.7-.08S233.8,314.67,233.8,314.71Z" style="fill:#ebebeb"></path><rect x="226.9" y="317.13" width="1.93" height="4.07" style="fill:#f5f5f5"></rect><path d="M233.8,322.79s-2.56.08-5.7.08-5.7,0-5.7-.08,2.55-.07,5.7-.07S233.8,322.75,233.8,322.79Z" style="fill:#ebebeb"></path><rect x="226.9" y="325.24" width="1.93" height="4.07" style="fill:#f5f5f5"></rect><rect x="226.9" y="333.47" width="1.93" height="4.07" style="fill:#f5f5f5"></rect><path d="M233.8,330.91s-2.56.08-5.7.08-5.7,0-5.7-.08,2.55-.08,5.7-.08S233.8,330.87,233.8,330.91Z" style="fill:#ebebeb"></path><rect x="215.4" y="292.52" width="1.93" height="4.07" style="fill:#fff"></rect><path d="M222.3,298.18c0,.05-2.56.08-5.7.08s-5.7,0-5.7-.08,2.55-.07,5.7-.07S222.3,298.14,222.3,298.18Z" style="fill:#e0e0e0"></path><rect x="215.4" y="300.72" width="1.93" height="4.07" style="fill:#fff"></rect><path d="M222.3,306.39s-2.56.08-5.7.08-5.7,0-5.7-.08,2.55-.08,5.7-.08S222.3,306.34,222.3,306.39Z" style="fill:#e0e0e0"></path><rect x="215.4" y="308.92" width="1.93" height="4.07" style="fill:#fff"></rect><path d="M222.3,314.59s-2.56.08-5.7.08-5.7,0-5.7-.08,2.55-.08,5.7-.08S222.3,314.55,222.3,314.59Z" style="fill:#e0e0e0"></path><rect x="215.4" y="317.13" width="1.93" height="4.07" style="fill:#fff"></rect><path d="M222.3,322.79s-2.56.08-5.7.08-5.7,0-5.7-.08,2.55-.07,5.7-.07S222.3,322.75,222.3,322.79Z" style="fill:#e0e0e0"></path><rect x="215.4" y="325.33" width="1.93" height="4.07" style="fill:#fff"></rect><path d="M222.3,331s-2.56.07-5.7.07-5.7,0-5.7-.07,2.55-.08,5.7-.08S222.3,331,222.3,331Z" style="fill:#e0e0e0"></path><rect x="215.4" y="333.53" width="1.93" height="4.07" style="fill:#fff"></rect><rect x="92.69" y="242.78" width="25.88" height="82.01" style="fill:#f5f5f5"></rect><rect x="105.63" y="242.78" width="12.94" height="81.79" style="fill:#ebebeb"></rect><rect x="95.64" y="234.72" width="9.14" height="8.05" style="fill:#f5f5f5"></rect><rect x="102.6" y="234.72" width="2.18" height="8.05" style="fill:#ebebeb"></rect><polyline points="90.53 242.78 90.53 242.31 119.32 242.31 119.32 242.78" style="fill:#e0e0e0"></polyline><rect x="97.8" y="246.29" width="2.19" height="4.62" style="fill:#fafafa"></rect><path d="M105.63,252.72c0,.05-2.9.09-6.47.09s-6.47,0-6.47-.09,2.89-.09,6.47-.09S105.63,252.67,105.63,252.72Z" style="fill:#e0e0e0"></path><rect x="110.85" y="246.29" width="2.19" height="4.62" style="fill:#e0e0e0"></rect><path d="M118.68,252.72c0,.05-2.9.09-6.47.09s-6.47,0-6.47-.09,2.9-.09,6.47-.09S118.68,252.67,118.68,252.72Z" style="fill:#e0e0e0"></path><rect x="110.85" y="255.46" width="2.19" height="4.62" style="fill:#e0e0e0"></rect><path d="M118.68,261.89c0,.05-2.9.09-6.47.09s-6.47,0-6.47-.09,2.9-.09,6.47-.09S118.68,261.84,118.68,261.89Z" style="fill:#e0e0e0"></path><rect x="110.85" y="264.9" width="2.19" height="4.62" style="fill:#e0e0e0"></rect><path d="M118.68,271.34c0,.05-2.9.08-6.47.08s-6.47,0-6.47-.08,2.9-.09,6.47-.09S118.68,271.29,118.68,271.34Z" style="fill:#e0e0e0"></path><rect x="110.85" y="274.35" width="2.19" height="4.62" style="fill:#e0e0e0"></rect><path d="M118.68,280.78c0,.05-2.9.09-6.47.09s-6.47,0-6.47-.09,2.9-.08,6.47-.08S118.68,280.73,118.68,280.78Z" style="fill:#e0e0e0"></path><rect x="110.85" y="283.53" width="2.19" height="4.62" style="fill:#e0e0e0"></rect><path d="M118.68,290c0,.05-2.9.09-6.47.09s-6.47,0-6.47-.09,2.9-.09,6.47-.09S118.68,289.91,118.68,290Z" style="fill:#e0e0e0"></path><rect x="110.85" y="292.74" width="2.19" height="4.62" style="fill:#e0e0e0"></rect><rect x="110.85" y="302.08" width="2.19" height="4.62" style="fill:#e0e0e0"></rect><path d="M118.68,299.17c0,.05-2.9.09-6.47.09s-6.47,0-6.47-.09,2.9-.08,6.47-.08S118.68,299.12,118.68,299.17Z" style="fill:#e0e0e0"></path><rect x="97.8" y="255.6" width="2.19" height="4.62" style="fill:#fafafa"></rect><path d="M105.63,262c0,.05-2.9.09-6.47.09s-6.47,0-6.47-.09,2.89-.09,6.47-.09S105.63,262,105.63,262Z" style="fill:#e0e0e0"></path><rect x="97.8" y="264.91" width="2.19" height="4.62" style="fill:#fafafa"></rect><path d="M105.63,271.34c0,.05-2.9.09-6.47.09s-6.47,0-6.47-.09,2.89-.09,6.47-.09S105.63,271.29,105.63,271.34Z" style="fill:#e0e0e0"></path><rect x="97.8" y="274.22" width="2.19" height="4.62" style="fill:#fafafa"></rect><path d="M105.63,280.65c0,.05-2.9.09-6.47.09s-6.47,0-6.47-.09,2.89-.09,6.47-.09S105.63,280.6,105.63,280.65Z" style="fill:#e0e0e0"></path><rect x="97.8" y="283.53" width="2.19" height="4.62" style="fill:#fafafa"></rect><path d="M105.63,290c0,.05-2.9.09-6.47.09s-6.47,0-6.47-.09,2.89-.09,6.47-.09S105.63,289.91,105.63,290Z" style="fill:#e0e0e0"></path><rect x="97.8" y="292.84" width="2.19" height="4.62" style="fill:#fafafa"></rect><path d="M105.63,299.27c0,.05-2.9.09-6.47.09s-6.47,0-6.47-.09,2.89-.09,6.47-.09S105.63,299.22,105.63,299.27Z" style="fill:#e0e0e0"></path><rect x="97.8" y="302.15" width="2.19" height="4.62" style="fill:#fafafa"></rect><rect x="165.29" y="268.02" width="38.21" height="72.52" style="fill:#e0e0e0"></rect><rect x="185.58" y="268.02" width="17.92" height="72.52" style="fill:#ebebeb"></rect><rect x="173.3" y="274.84" width="3.44" height="8.35" style="fill:#f5f5f5"></rect><rect x="173.3" y="307.51" width="3.44" height="8.35" style="fill:#f5f5f5"></rect><path d="M185.58,286.47c0,.07-4.54.13-10.14.13s-10.15-.06-10.15-.13,4.54-.13,10.15-.13S185.58,286.39,185.58,286.47Z" style="fill:#f5f5f5"></path><rect x="173.3" y="291.3" width="3.44" height="8.35" style="fill:#f5f5f5"></rect><path d="M185.58,302.93c0,.07-4.54.13-10.14.13s-10.15-.06-10.15-.13,4.54-.13,10.15-.13S185.58,302.85,185.58,302.93Z" style="fill:#f5f5f5"></path><rect x="189.39" y="274.84" width="3.44" height="8.35" style="fill:#e0e0e0"></rect><rect x="196.84" y="274.84" width="3.44" height="8.35" style="fill:#e0e0e0"></rect><rect x="189.39" y="290.68" width="3.44" height="8.35" style="fill:#e0e0e0"></rect><rect x="196.84" y="290.68" width="3.44" height="8.35" style="fill:#e0e0e0"></rect><rect x="189.39" y="306.52" width="3.44" height="8.35" style="fill:#e0e0e0"></rect><rect x="196.84" y="306.52" width="3.44" height="8.35" style="fill:#e0e0e0"></rect><rect x="162.42" y="266.26" width="43.96" height="1.82" style="fill:#e0e0e0"></rect><path d="M203.77,268.25c0,.07-8.54.13-19.08.13s-19.07-.06-19.07-.13,8.54-.13,19.07-.13S203.77,268.18,203.77,268.25Z" style="fill:#ebebeb"></path><rect x="115.42" y="290.68" width="37.78" height="49.83" style="fill:#ebebeb"></rect><rect x="135.49" y="290.68" width="17.71" height="49.83" style="fill:#e0e0e0"></rect><rect x="123.34" y="297.43" width="3.4" height="8.25" style="fill:#f5f5f5"></rect><rect x="123.34" y="329.73" width="3.4" height="8.25" style="fill:#f5f5f5"></rect><path d="M135.49,308.92c0,.09-4.5.17-10,.17s-10-.08-10-.17,4.49-.17,10-.17S135.49,308.83,135.49,308.92Z" style="fill:#f5f5f5"></path><rect x="123.34" y="313.7" width="3.4" height="8.25" style="fill:#f5f5f5"></rect><path d="M135.49,325.19c0,.1-4.5.17-10,.17s-10-.07-10-.17,4.49-.16,10-.16S135.49,325.1,135.49,325.19Z" style="fill:#f5f5f5"></path><rect x="139.25" y="297.43" width="3.4" height="8.25" style="fill:#f5f5f5"></rect><rect x="146.62" y="297.43" width="3.4" height="8.25" style="fill:#f5f5f5"></rect><rect x="139.25" y="313.09" width="3.4" height="8.25" style="fill:#f5f5f5"></rect><rect x="146.62" y="313.09" width="3.4" height="8.25" style="fill:#f5f5f5"></rect><rect x="139.25" y="328.75" width="3.4" height="8.25" style="fill:#f5f5f5"></rect><rect x="146.62" y="328.75" width="3.4" height="8.25" style="fill:#f5f5f5"></rect><rect x="112.58" y="288.95" width="43.46" height="1.8" style="fill:#e0e0e0"></rect><path d="M153.46,290.91c0,.1-8.44.17-18.85.17s-18.86-.07-18.86-.17,8.44-.16,18.86-.16S153.46,290.82,153.46,290.91Z" style="fill:#ebebeb"></path><polygon points="115.65 340.3 77.57 340.3 77.41 280.11 115.49 280.11 115.65 340.3" style="fill:#ebebeb"></polygon><rect x="96.45" y="280.11" width="19.04" height="60.18" style="fill:#e0e0e0"></rect><rect x="81.76" y="268.26" width="13.45" height="11.85" style="fill:#ebebeb"></rect><rect x="92" y="268.26" width="3.2" height="11.85" style="fill:#e0e0e0"></rect><rect x="74.23" y="279.42" width="42.37" height="0.69" style="fill:#e0e0e0"></rect><rect x="84.92" y="285.28" width="3.22" height="6.8" style="fill:#fff"></rect><path d="M96.45,294.74c0,.08-4.27.13-9.52.13s-9.52-.05-9.52-.13,4.26-.13,9.52-.13S96.45,294.67,96.45,294.74Z" style="fill:#e0e0e0"></path><rect x="104.13" y="285.28" width="3.22" height="6.8" style="fill:#f5f5f5"></rect><path d="M115.65,294.74c0,.08-4.26.13-9.52.13s-9.52-.05-9.52-.13,4.26-.13,9.52-.13S115.65,294.67,115.65,294.74Z" style="fill:#ebebeb"></path><rect x="104.13" y="298.77" width="3.22" height="6.8" style="fill:#f5f5f5"></rect><path d="M115.65,308.24c0,.07-4.26.13-9.52.13s-9.52-.06-9.52-.13,4.26-.13,9.52-.13S115.65,308.17,115.65,308.24Z" style="fill:#ebebeb"></path><rect x="104.13" y="312.68" width="3.22" height="6.8" style="fill:#f5f5f5"></rect><path d="M115.65,322.14c0,.07-4.26.13-9.52.13s-9.52-.06-9.52-.13,4.26-.13,9.52-.13S115.65,322.07,115.65,322.14Z" style="fill:#ebebeb"></path><rect x="104.13" y="326.58" width="3.22" height="6.8" style="fill:#f5f5f5"></rect><path d="M115.65,336c0,.07-4.26.13-9.52.13s-9.52-.06-9.52-.13,4.26-.13,9.52-.13S115.65,336,115.65,336Z" style="fill:#ebebeb"></path><rect x="84.92" y="298.98" width="3.22" height="6.8" style="fill:#fff"></rect><path d="M96.45,308.44c0,.08-4.27.13-9.52.13s-9.52-.05-9.52-.13,4.26-.13,9.52-.13S96.45,308.37,96.45,308.44Z" style="fill:#e0e0e0"></path><rect x="84.92" y="312.68" width="3.22" height="6.8" style="fill:#fff"></rect><path d="M96.45,322.14c0,.08-4.27.13-9.52.13s-9.52,0-9.52-.13,4.26-.13,9.52-.13S96.45,322.07,96.45,322.14Z" style="fill:#e0e0e0"></path><rect x="84.92" y="326.38" width="3.22" height="6.8" style="fill:#fff"></rect><path d="M96.45,335.84c0,.08-4.27.13-9.52.13s-9.52-.05-9.52-.13,4.26-.13,9.52-.13S96.45,335.77,96.45,335.84Z" style="fill:#e0e0e0"></path><path d="M485.53,327.59a14.68,14.68,0,0,1,15,1.48A19.09,19.09,0,0,1,535,327a15.06,15.06,0,0,1,21.76,7.2c3.85-1.87,10.06,1.72,10.63,6.28l-89.87-.15A14.7,14.7,0,0,1,485.53,327.59Z" style="fill:#e0e0e0"></path><path d="M469.34,105.62C469,99.91,475.65,95.05,481,97c1.63.61,3.16,1.72,4.9,1.66,4.87-.15,6.47-8.75,11.31-8.19,1.71.2,3,1.57,4.66,2.12,4.06,1.38,7.8-2.63,10.18-6.2a25,25,0,0,1,3.51-4.28A55.08,55.08,0,1,0,414,124.78a2.94,2.94,0,0,1,1.54-.36c2.38.13,3.5,3,5.53,4.26,3.08,1.88,7-.49,9.63-2.92s6-5.21,9.44-4.1c3,1,4.38,4.58,7,6.38,3.22,2.17,7.48,1.27,11.35.92s8.67.6,9.85,4.3c-7.89,2.72-16.43,2.61-24.77,2.48l-23.56-.39a55.06,55.06,0,0,0,99.57-30.51Z" style="fill:#ebebeb"></path><path d="M62.88,305.16c.15,0,.26,7.91.26,17.65s-.11,17.66-.26,17.66-.26-7.9-.26-17.66S62.74,305.16,62.88,305.16Z" style="fill:#e0e0e0"></path><path d="M60.77,302.76a4.61,4.61,0,0,0-6.24,3.88,5.13,5.13,0,0,1,4.79-1.22,2.57,2.57,0,0,0-2.75,1.66,7.39,7.39,0,0,0-.32,3.44,9.65,9.65,0,0,1,5.89-3.71,5.94,5.94,0,0,1,6.08,2.78A4,4,0,0,0,65,304.52a10.58,10.58,0,0,1,6.49.16,6,6,0,0,0-5.78-3.2,3.69,3.69,0,0,1,4-.94A4.92,4.92,0,0,0,61,302.15" style="fill:#e0e0e0"></path><path d="M615,331.46a10.55,10.55,0,0,1,10.78,1.06,13.68,13.68,0,0,1,24.64-1.46,10.8,10.8,0,0,1,15.6,5.16c2.76-1.34,7.21,1.24,7.62,4.5l-64.41-.11A10.51,10.51,0,0,1,615,331.46Z" style="fill:#e0e0e0"></path><path d="M645.32,294.84c.15,0,.26,10.26.26,22.91s-.11,22.91-.26,22.91-.26-10.25-.26-22.91S645.18,294.84,645.32,294.84Z" style="fill:#e0e0e0"></path><path d="M642.59,291.72a6,6,0,0,0-8.1,5,6.65,6.65,0,0,1,6.2-1.58,3.32,3.32,0,0,0-3.56,2.15,9.75,9.75,0,0,0-.42,4.47,12.51,12.51,0,0,1,7.65-4.82c3-.45,6.46.88,7.89,3.61a5.18,5.18,0,0,0-4.14-6.58,13.62,13.62,0,0,1,8.42.21,7.71,7.71,0,0,0-7.5-4.15,4.79,4.79,0,0,1,5.22-1.23,6.39,6.39,0,0,0-11.37,2.1" style="fill:#e0e0e0"></path><path d="M623.06,302.13c.15,0,.26,8.63.26,19.26s-.11,19.27-.26,19.27-.26-8.62-.26-19.27S622.92,302.13,623.06,302.13Z" style="fill:#e0e0e0"></path><path d="M625.36,299.51a5,5,0,0,1,6.81,4.23,5.59,5.59,0,0,0-5.21-1.33,2.81,2.81,0,0,1,3,1.81,8.08,8.08,0,0,1,.35,3.76,10.47,10.47,0,0,0-6.43-4.05,6.47,6.47,0,0,0-6.63,3,4.36,4.36,0,0,1,3.48-5.54,11.5,11.5,0,0,0-7.08.19,6.47,6.47,0,0,1,6.3-3.5,4,4,0,0,0-4.38-1,5.37,5.37,0,0,1,9.56,1.76" style="fill:#e0e0e0"></path><path d="M664.31,315.05c.14,0,.26,5.74.26,12.81s-.12,12.8-.26,12.8-.26-5.73-.26-12.8S664.16,315.05,664.31,315.05Z" style="fill:#e0e0e0"></path><path d="M665.84,313.31a3.43,3.43,0,0,1,3,.29,3.39,3.39,0,0,1,1.56,2.53,3.72,3.72,0,0,0-3.46-.89,1.86,1.86,0,0,1,2,1.21,5.49,5.49,0,0,1,.23,2.49,7,7,0,0,0-4.27-2.69,4.3,4.3,0,0,0-4.41,2,2.89,2.89,0,0,1,2.31-3.68,7.59,7.59,0,0,0-4.71.12,4.3,4.3,0,0,1,4.2-2.32,2.67,2.67,0,0,0-2.92-.69,3.58,3.58,0,0,1,6.36,1.17" style="fill:#e0e0e0"></path><path d="M506.72,302.38c.14,0,.26,8.57.26,19.13s-.12,19.13-.26,19.13-.26-8.56-.26-19.13S506.57,302.38,506.72,302.38Z" style="fill:#e0e0e0"></path><path d="M509,299.78a5,5,0,0,1,6.77,4.21,5.55,5.55,0,0,0-5.19-1.32,2.77,2.77,0,0,1,3,1.79,8.08,8.08,0,0,1,.35,3.73,10.41,10.41,0,0,0-6.39-4,6.43,6.43,0,0,0-6.59,3,4.34,4.34,0,0,1,3.46-5.5,11.34,11.34,0,0,0-7,.19,6.46,6.46,0,0,1,6.26-3.48,4,4,0,0,0-4.36-1,5.5,5.5,0,0,1,5.31-2.14,5.44,5.44,0,0,1,4.19,3.89" style="fill:#e0e0e0"></path><path d="M222.88,171.07c.59-4.27-5.45-7.79-10-8.16-2.17-.17-4.41.16-6.46-.56-4.44-1.54-6.22-7.28-10.55-9.11-3.24-1.36-7-.15-10.11,1.43s-6.24,3.57-9.75,3.8c-3.05.19-6.36-.94-9,.55-2,1.11-3,3.4-4.87,4.76s-4.13,1.6-6.36,1.72-4.53.14-6.55,1.07-3.71,3.07-3.29,5.26Z" style="fill:#f5f5f5"></path><path d="M636.76,102.21c.59-4.27-5.45-7.79-10-8.16-2.17-.17-4.41.16-6.46-.56-4.44-1.54-6.22-7.28-10.55-9.11-3.24-1.36-7-.15-10.11,1.43s-6.24,3.57-9.75,3.8c-3,.19-6.37-.94-9,.55-2,1.11-3,3.4-4.86,4.76s-4.13,1.6-6.36,1.72-4.53.14-6.56,1.07-3.7,3.07-3.28,5.26Z" style="fill:#f5f5f5"></path><path d="M162.79,113c.66-4.83-6.16-8.81-11.28-9.22-2.44-.2-5,.18-7.29-.63-5-1.75-7-8.23-11.91-10.29-3.66-1.54-7.87-.17-11.42,1.62s-7,4-11,4.28c-3.45.22-7.19-1.06-10.2.63-2.25,1.25-3.43,3.84-5.5,5.37s-4.67,1.81-7.18,1.94-5.12.17-7.4,1.21-4.19,3.47-3.71,5.94Z" style="fill:#f5f5f5"></path><path d="M264.19,75c.4-2.94-3.74-5.35-6.85-5.6-1.49-.12-3,.1-4.44-.39-3-1.06-4.26-5-7.23-6.25-2.22-.93-4.78-.1-6.93,1s-4.29,2.44-6.69,2.6c-2.1.13-4.37-.64-6.2.38-1.37.76-2.08,2.33-3.34,3.26a7.92,7.92,0,0,1-4.36,1.18,12.37,12.37,0,0,0-4.5.74,3.56,3.56,0,0,0-2.25,3.61Z" style="fill:#ebebeb"></path></g><g id="freepik--Plants--inject-16"><path d="M175.52,451.76c.54-2.1-.83-4.2-2.38-5.73s-3.39-2.88-4.19-4.9c-1.3-3.26.45-7.48-1.77-10.21-1.3-1.6-3.65-2.13-4.8-3.84a8.76,8.76,0,0,1-1-3.06,31,31,0,0,0-7.72-14.45,27,27,0,0,0,3,13.93c.9,1.71,2,3.38,2.3,5.29.48,3.1-1.25,6.29-.49,9.34.88,3.48,4.79,5.81,5,9.4.16,3-2.48,5.69-2.28,8.72a8.19,8.19,0,0,0,1.34,3.59c2.35,3.9,5.79,6.58,11,6.49l6.39.23Z" style="fill:#F79F1F"></path><g style="opacity:0.30000000000000004"><path d="M175.52,451.76c.54-2.1-.83-4.2-2.38-5.73s-3.39-2.88-4.19-4.9c-1.3-3.26.45-7.48-1.77-10.21-1.3-1.6-3.65-2.13-4.8-3.84a8.76,8.76,0,0,1-1-3.06,31,31,0,0,0-7.72-14.45,27,27,0,0,0,3,13.93c.9,1.71,2,3.38,2.3,5.29.48,3.1-1.25,6.29-.49,9.34.88,3.48,4.79,5.81,5,9.4.16,3-2.48,5.69-2.28,8.72a8.19,8.19,0,0,0,1.34,3.59c2.35,3.9,5.79,6.58,11,6.49l6.39.23Z"></path></g><path d="M181.17,466.72a4.94,4.94,0,0,0,1.76,0,10.94,10.94,0,0,0,2.08-.53,8.77,8.77,0,0,0,2.57-1.4,3.61,3.61,0,0,0,1-1.41,6.58,6.58,0,0,0,.3-1.91c0-.67,0-1.36.15-2.06a5.84,5.84,0,0,1,.78-2.06c.76-1.32,2-2.58,2.41-4.37a14.61,14.61,0,0,0-.17-5.61,11.77,11.77,0,0,1,.15-6c.68-2,2.08-3.8,2.78-6.06s.38-4.72.52-7.14a9.61,9.61,0,0,1,.84-3.55c.51-1.13,1.23-2.19,1.79-3.38,1.14-2.41,1.34-5.14,1.65-7.82.15-1.34.3-2.7.46-4.08a19.57,19.57,0,0,1,.71-4.09,36,36,0,0,1,1.52-4,13.73,13.73,0,0,0,.75-2.07,20.67,20.67,0,0,0,.2-2.2,26.19,26.19,0,0,0-.17-4.42c-.17-1.48-.44-2.94-.6-4.42l0-.25,0-.3-.26.14a9.76,9.76,0,0,0-3.44,2.9,15.48,15.48,0,0,0-2.11,3.89,47.26,47.26,0,0,0-2,8.37,22.75,22.75,0,0,1-2.63,7.73c-.7,1.14-1.55,2.18-2.29,3.29a9.11,9.11,0,0,0-1.59,3.65c-.37,2.7,1.12,5.07.81,7.47a8.41,8.41,0,0,1-1.17,3.31c-.58,1-1.26,2-1.91,2.92a19.53,19.53,0,0,0-1.72,3,9.38,9.38,0,0,0-.78,3.21c-.16,2.15.15,4.2,0,6.13a14.11,14.11,0,0,1-1.58,5.25c-.77,1.57-1.63,3-2.35,4.37-.36.69-.7,1.37-1,2a9.86,9.86,0,0,0-.56,2,12.84,12.84,0,0,0-.05,3.65,9.21,9.21,0,0,0,1.83,4.65,4.16,4.16,0,0,0,.52.56,3,3,0,0,0,.42.36l.36.25a7.87,7.87,0,0,1-1.23-1.22,9.2,9.2,0,0,1-1.74-4.62,12.93,12.93,0,0,1,.08-3.6,9.94,9.94,0,0,1,.57-2c.27-.66.61-1.33,1-2,.73-1.37,1.6-2.78,2.39-4.36a14.43,14.43,0,0,0,1.63-5.35c.17-2-.13-4,0-6.13a9.12,9.12,0,0,1,.77-3.09,18.51,18.51,0,0,1,1.7-2.89c.65-1,1.34-1.9,1.93-2.94a8.63,8.63,0,0,0,1.22-3.46c.31-2.55-1.17-4.94-.78-7.45a8.59,8.59,0,0,1,1.53-3.48c.73-1.09,1.58-2.13,2.3-3.3a22.91,22.91,0,0,0,2.69-7.86,47.47,47.47,0,0,1,2-8.3,15,15,0,0,1,2.06-3.79,9.53,9.53,0,0,1,3.29-2.79l-.29-.16,0,.26c.16,1.49.42,3,.59,4.42a25.37,25.37,0,0,1,.17,4.35,21,21,0,0,1-.19,2.14,14,14,0,0,1-.72,2,35.87,35.87,0,0,0-1.54,4,20.75,20.75,0,0,0-.72,4.15c-.15,1.38-.3,2.74-.45,4.09-.31,2.69-.51,5.37-1.6,7.7-.54,1.15-1.26,2.22-1.79,3.39a10,10,0,0,0-.86,3.68c-.14,2.47.19,4.88-.48,7.06s-2.06,4-2.76,6.05a12.18,12.18,0,0,0-.14,6.16,14.27,14.27,0,0,1,.21,5.49c-.37,1.72-1.59,3-2.36,4.32a6,6,0,0,0-.79,2.14,17.1,17.1,0,0,0-.13,2.09,6.42,6.42,0,0,1-.28,1.86,3.46,3.46,0,0,1-1,1.35,8.74,8.74,0,0,1-2.5,1.41,11,11,0,0,1-2.05.55,7.65,7.65,0,0,1-1.3.13Z" style="fill:#263238"></path><path d="M201.37,391.43s0,.06-.06.19-.09.34-.14.58c-.13.5-.28,1.26-.52,2.21s-.83,2-1.33,3.34-1,2.83-1.52,4.53-.92,3.6-1.37,5.63a23.71,23.71,0,0,1-2,6.24c-.53,1-1.12,2.09-1.59,3.24a15,15,0,0,0-.92,3.66,73.67,73.67,0,0,1-1.37,7.74C189.22,434,188,439,186.89,443.56s-2.16,8.6-3,12l-2,8.13c-.23.94-.4,1.68-.53,2.21-.05.24-.09.43-.13.58l0,.2s0-.06.07-.19.1-.33.17-.56c.15-.54.35-1.27.6-2.2.51-1.95,1.24-4.7,2.13-8.1s2-7.5,3.12-12,2.35-9.53,3.65-14.77a75.12,75.12,0,0,0,1.37-7.77,15,15,0,0,1,.89-3.58c.45-1.12,1-2.16,1.55-3.21a23.37,23.37,0,0,0,2-6.34c.44-2,.86-3.92,1.32-5.62s1-3.22,1.46-4.53,1-2.4,1.26-3.38.35-1.72.45-2.24c0-.23.07-.42.1-.58S201.38,391.43,201.37,391.43Z" style="fill:#263238"></path><path d="M182.3,466.74c4.18-2.48,5.37-10,3.63-14.54s-4.79-8.68-5.26-13.51c-.36-3.72.86-7.53,0-11.16-1.16-4.91-5.95-8.7-5.89-13.74,0-2.83,1.64-5.49,1.51-8.31-.16-3.46-2.82-6.21-4.47-9.26-2.52-4.67-2.68-10.2-3.54-15.43s-2.86-10.85-7.5-13.42c-.69,4.44-1.86,7.49-1.49,13.51.13,2.16,2.64,6.31,3,11.05.2,2.83.34,5.67.52,8.5a27,27,0,0,0,1.33,8.15c.76,2,2,3.78,2.54,5.82,1.06,3.85-.33,8,.52,11.9.73,3.3,3,6.14,3.48,9.48.65,4.7-2.39,9.58-.83,14.07.77,2.22,2.6,4,3.12,6.3.4,1.78,0,3.67.33,5.46.58,2.88,6.09,5.12,9,4.95" style="fill:#F79F1F"></path><path d="M161.92,371.78a.94.94,0,0,0,0,.25c0,.19.05.43.09.73.1.64.2,1.59.42,2.81s.87,2.6,1.37,4.27,1.06,3.57,1.53,5.71.88,4.52,1.3,7.07a29.44,29.44,0,0,0,2.14,8c.58,1.33,1.24,2.67,1.73,4.09a18,18,0,0,1,.88,4.51,91.93,91.93,0,0,0,1.23,9.72c1.27,6.59,2.49,12.87,3.6,18.58l3.11,15.13c.89,4.28,1.62,7.76,2.13,10.19.25,1.18.45,2.11.6,2.77.07.29.12.53.16.71a2.29,2.29,0,0,0,.07.25.77.77,0,0,0,0-.25l-.12-.73c-.13-.66-.3-1.59-.53-2.78-.47-2.44-1.16-5.93-2-10.22s-1.88-9.45-3-15.15-2.3-12-3.57-18.57a91.06,91.06,0,0,1-1.23-9.69,18.58,18.58,0,0,0-.91-4.6c-.51-1.45-1.17-2.79-1.76-4.12a29.34,29.34,0,0,1-2.15-7.89c-.43-2.55-.85-4.92-1.34-7.07s-1-4.07-1.6-5.72-1.18-3-1.43-4.24-.38-2.15-.5-2.78c-.05-.3-.1-.54-.13-.73A.81.81,0,0,0,161.92,371.78Z" style="fill:#263238"></path><path d="M660.72,428.91a7,7,0,0,1,3.61,4.09,12.35,12.35,0,0,1,.48,5.54c-.41,3.6-2.45,7.22-4.65,10.1-3-2.64-3.73-7.25-3.93-9.61-.33-3.73,1.35-10.67,4.49-10.12" style="fill:#F79F1F"></path><path d="M663.68,454.57a5.93,5.93,0,0,1,1.92-5.65,7.89,7.89,0,0,1,5.82-1.82,3.35,3.35,0,0,1,2.55,1.15,2.53,2.53,0,0,1,0,2.58,5.16,5.16,0,0,1-1.9,1.87c-2.63,1.65-5.47,2.76-8.43,1.87" style="fill:#F79F1F"></path><path d="M659.79,465.59a7.32,7.32,0,0,1,.11-.73c.1-.52.22-1.19.37-2a20.63,20.63,0,0,1,2.06-6.38,12.74,12.74,0,0,1,4.58-4.86,8.51,8.51,0,0,1,1.86-.83c.23-.07.42-.1.54-.13s.19,0,.19,0a13.42,13.42,0,0,0-2.5,1.15,13.18,13.18,0,0,0-4.44,4.83,22.49,22.49,0,0,0-2.11,6.29c-.18.83-.33,1.51-.45,2A3,3,0,0,1,659.79,465.59Z" style="fill:#263238"></path><path d="M659.91,434.31a1.34,1.34,0,0,1,0,.32l.06.93c0,.8.09,2,.14,3.41.09,2.88.16,6.86.14,11.26s-.12,8.38-.24,11.26c-.06,1.44-.12,2.6-.17,3.41,0,.38,0,.68-.06.92a1.87,1.87,0,0,1,0,.33,1.8,1.8,0,0,1,0-.33c0-.24,0-.55,0-.93,0-.84.05-2,.08-3.41.07-2.88.15-6.86.17-11.25s0-8.38-.07-11.26c0-1.41,0-2.57-.05-3.41,0-.38,0-.69,0-.93A1.14,1.14,0,0,1,659.91,434.31Z" style="fill:#263238"></path><path d="M658.44,456.76a13.93,13.93,0,0,0-7.59-10.19c-1-.48-2.34-.8-3.17,0s-.64,2.1-.24,3.15a11.88,11.88,0,0,0,10.93,7.37" style="fill:#F79F1F"></path><path d="M651.34,450a5.48,5.48,0,0,1,.64.28c.2.1.45.22.73.39s.6.34.92.58a10.92,10.92,0,0,1,1.06.8,12.79,12.79,0,0,1,1.12,1A15,15,0,0,1,658,455.8a15.13,15.13,0,0,1,1.41,3.18,13.61,13.61,0,0,1,.35,1.48,11.5,11.5,0,0,1,.19,1.31c.05.4,0,.77.05,1.09a6.62,6.62,0,0,1,0,.82,3.12,3.12,0,0,1-.08.7c-.06,0,0-1-.13-2.59a11.48,11.48,0,0,0-.21-1.29,13.45,13.45,0,0,0-.37-1.45,14.89,14.89,0,0,0-3.49-5.83,14.62,14.62,0,0,0-1.09-1c-.35-.31-.71-.57-1-.81C652.22,450.45,651.31,450,651.34,450Z" style="fill:#263238"></path></g><g id="freepik--Beach--inject-16"><path d="M166.46,294.88c.14,0,.26,9.85.26,22s-.12,22-.26,22-.26-9.86-.26-22S166.31,294.88,166.46,294.88Z" style="fill:#263238"></path><path d="M163.74,291.78a5.93,5.93,0,0,0-8,5,6.57,6.57,0,0,1,6.15-1.57,3.3,3.3,0,0,0-3.53,2.13,9.58,9.58,0,0,0-.42,4.43A12.43,12.43,0,0,1,165.5,297c3-.44,6.4.87,7.82,3.58a5.14,5.14,0,0,0-4.11-6.52,13.47,13.47,0,0,1,8.35.21,7.65,7.65,0,0,0-7.43-4.12,4.74,4.74,0,0,1,5.17-1.21A6.33,6.33,0,0,0,164,291" style="fill:#455a64"></path><path d="M208.45,304.44c.14,0,.26,8.18.26,18.27s-.12,18.28-.26,18.28-.26-8.18-.26-18.28S208.31,304.44,208.45,304.44Z" style="fill:#263238"></path><path d="M210.16,302.41a4.94,4.94,0,0,1,6.66,4.15,5.47,5.47,0,0,0-5.11-1.3,2.75,2.75,0,0,1,2.94,1.77,8,8,0,0,1,.34,3.67,10.28,10.28,0,0,0-6.3-4,6.33,6.33,0,0,0-6.49,3,4.27,4.27,0,0,1,3.41-5.42,11.24,11.24,0,0,0-6.93.18,6.34,6.34,0,0,1,6.17-3.42,3.94,3.94,0,0,0-4.29-1,5.26,5.26,0,0,1,9.36,1.73" style="fill:#455a64"></path><path d="M226.41,326.74a15.66,15.66,0,0,0-16,1.58,20.34,20.34,0,0,0-36.63-2.17,16,16,0,0,0-23.18,7.67c-4.1-2-10.72,1.84-11.32,6.69l95.73-.16A15.66,15.66,0,0,0,226.41,326.74Z" style="fill:#455a64"></path><path d="M356.92,292.71c.15,0,.26,10.71.26,23.9s-.11,23.9-.26,23.9-.26-10.7-.26-23.9S356.78,292.71,356.92,292.71Z" style="fill:#263238"></path><path d="M359.78,289.46a6.27,6.27,0,0,1,8.45,5.26,6.94,6.94,0,0,0-6.48-1.65,3.47,3.47,0,0,1,3.72,2.24,10.16,10.16,0,0,1,.43,4.66,13,13,0,0,0-8-5c-3.19-.48-6.74.91-8.24,3.76a5.41,5.41,0,0,1,4.33-6.87,14.27,14.27,0,0,0-8.79.23,8,8,0,0,1,7.82-4.34,5,5,0,0,0-5.44-1.27,6.66,6.66,0,0,1,11.86,2.18" style="fill:#455a64"></path><path d="M390.58,304.81a4.64,4.64,0,0,0-6.26,3.89,5.15,5.15,0,0,1,4.8-1.22,2.58,2.58,0,0,0-2.76,1.66,7.57,7.57,0,0,0-.32,3.45,9.66,9.66,0,0,1,5.91-3.72,5.93,5.93,0,0,1,6.09,2.79,4,4,0,0,0-3.2-5.09,10.57,10.57,0,0,1,6.51.17,6,6,0,0,0-5.79-3.21,3.68,3.68,0,0,1,4-.95,4.94,4.94,0,0,0-8.79,1.62" style="fill:#455a64"></path><path d="M375.18,327.59a14.68,14.68,0,0,1,15,1.48,19.09,19.09,0,0,1,34.39-2,15.06,15.06,0,0,1,21.76,7.2c3.84-1.87,10.06,1.72,10.62,6.28l-89.86-.15A14.7,14.7,0,0,1,375.18,327.59Z" style="fill:#455a64"></path><path d="M392.69,307.22c.15,0,.26,7.5.26,16.75s-.11,16.75-.26,16.75-.26-7.5-.26-16.75S392.55,307.22,392.69,307.22Z" style="fill:#263238"></path><path d="M475.21,304.81A4.63,4.63,0,0,0,469,308.7a5.13,5.13,0,0,1,4.79-1.22,2.57,2.57,0,0,0-2.75,1.66,7.43,7.43,0,0,0-.32,3.45,9.64,9.64,0,0,1,5.9-3.72,6,6,0,0,1,6.1,2.79,4,4,0,0,0-3.2-5.09,10.54,10.54,0,0,1,6.5.17,5.94,5.94,0,0,0-5.79-3.21,3.69,3.69,0,0,1,4-.95,4.93,4.93,0,0,0-8.78,1.62" style="fill:#455a64"></path><path d="M497.31,327.59a14.68,14.68,0,0,1,15,1.48,19.09,19.09,0,0,1,34.39-2,15.06,15.06,0,0,1,21.76,7.2c3.85-1.87,10.07,1.72,10.63,6.28l-89.87-.15A14.71,14.71,0,0,1,497.31,327.59Z" style="fill:#455a64"></path><path d="M477.33,307.22c.14,0,.26,7.5.26,16.75s-.12,16.75-.26,16.75-.26-7.5-.26-16.75S477.18,307.22,477.33,307.22Z" style="fill:#263238"></path><path d="M690,340.72c0,.15-140.4.26-313.55.26s-313.58-.11-313.58-.26,140.37-.26,313.58-.26S690,340.58,690,340.72Z" style="fill:#263238"></path><path d="M337.17,350.53c0,.14-19.71.26-44,.26s-44-.12-44-.26,19.7-.26,44-.26S337.17,350.38,337.17,350.53Z" style="fill:#263238"></path><path d="M293.56,340.51c0,.14-9.86.26-22,.26s-22-.12-22-.26,9.85-.26,22-.26S293.56,340.36,293.56,340.51Z" style="fill:#263238"></path><path d="M309.3,368.66c0,.14-9.81.26-21.9.26s-21.9-.12-21.9-.26,9.8-.26,21.9-.26S309.3,368.52,309.3,368.66Z" style="fill:#263238"></path><path d="M301.81,377.88c0,.14-5.55.26-12.39.26S277,378,277,377.88s5.55-.26,12.4-.26S301.81,377.74,301.81,377.88Z" style="fill:#263238"></path><path d="M293.16,387.68a43,43,0,0,1-6.63.26,42.86,42.86,0,0,1-6.62-.26,41.41,41.41,0,0,1,6.62-.26A41.59,41.59,0,0,1,293.16,387.68Z" style="fill:#263238"></path></g><g id="freepik--burj-al-arab--inject-16"><rect x="333.36" y="134.98" width="18.01" height="5.55" style="fill:#ebebeb"></rect><path d="M351.37,140.52s-.05-.56-.08-1.51-.05-2.37-.09-4l.17.16c-4.24.06-10.74.1-18,.1l.26-.26h0v2.81c0,.92,0,1.83,0,2.71l-.25-.25c5.12,0,9.58.06,12.8.11l3.79.08c.9,0,1.4,0,1.42.06a11.26,11.26,0,0,1-1.3.07l-3.74.07c-3.2.05-7.74.1-13,.11h-.25v-.25c0-.88,0-1.79,0-2.71V135h0l.26-.27c7.27,0,13.77,0,18,.1h.17V135c0,1.7-.06,3.09-.09,4.13A13.09,13.09,0,0,1,351.37,140.52Z" style="fill:#263238"></path><path d="M261,172.86c-14.54,36.9-21,79-20.59,113.89s8.81,53.76,8.81,53.76h85.74V71.17C313.79,82.36,277.36,131.26,261,172.86Zm64.4-32.42H286.66s19.23-33.67,38.71-50.83Z" style="fill:#ebebeb"></path><path d="M261,172.86c-14.54,36.9-21,79-20.59,113.89s8.81,53.76,8.81,53.76h85.74V71.17C313.79,82.36,277.36,131.26,261,172.86Zm64.4-32.42H286.66s19.23-33.67,38.71-50.83Z" style="fill:none"></path><path d="M325.37,140.44s0-.09,0-.26l0-.73c0-.67,0-1.62,0-2.83,0-2.48,0-6.05-.07-10.54,0-9-.07-21.68-.11-36.47l.4.18A149.26,149.26,0,0,0,308.11,109a309.55,309.55,0,0,0-21.26,31.57l-.19-.33,28,.11,7.89.06,2.09,0h.74l-.17,0h-.52l-2.05,0-7.84.06-28.13.12h-.4l.2-.34a299.56,299.56,0,0,1,21.24-31.67,147.36,147.36,0,0,1,17.51-19.24l.41-.36v.55c-.05,14.86-.09,27.59-.12,36.63,0,4.47-.05,8-.07,10.49,0,1.19,0,2.12,0,2.77,0,.3,0,.53,0,.71S325.38,140.45,325.37,140.44Z" style="fill:#263238"></path><path d="M261,172.86s1.07-2.91,3.42-8.28,6.06-13.16,11.5-22.79a318.66,318.66,0,0,1,21.9-33.63,239.12,239.12,0,0,1,15.86-19.22c3-3.23,6.18-6.45,9.66-9.54A62.82,62.82,0,0,1,334.84,71l.3-.16v.35c0,54.45,0,124,.05,199.43v70.17h-.26l-85.74,0H249l-.06-.13a81.85,81.85,0,0,1-3-9c-.85-3-1.55-6-2.17-9a178.81,178.81,0,0,1-2.65-17.77,237.84,237.84,0,0,1-.71-33.17A320.87,320.87,0,0,1,247.38,218a292.77,292.77,0,0,1,9.29-33.58c.67-1.9,1.24-3.59,1.77-5s1-2.64,1.38-3.62.66-1.7.85-2.2.3-.74.3-.74-.08.26-.26.76-.46,1.24-.82,2.21-.81,2.19-1.35,3.63-1.08,3.13-1.73,5a300.65,300.65,0,0,0-9.17,33.6,323.8,323.8,0,0,0-6.82,53.51,237.28,237.28,0,0,0,.75,33.12c.59,5.8,1.44,11.72,2.66,17.72.63,3,1.32,6,2.17,9a79.32,79.32,0,0,0,3,9l-.21-.14,85.74,0-.25.25c0-22.44,0-45.87,0-69.91,0-75.48,0-145,.06-199.43l.3.18a62.36,62.36,0,0,0-11.46,8.34c-3.47,3.08-6.65,6.29-9.65,9.5a241.48,241.48,0,0,0-15.87,19.17,322.32,322.32,0,0,0-22,33.54c-5.46,9.61-9.18,17.4-11.59,22.73-1.19,2.68-2.08,4.74-2.64,6.13S261,172.86,261,172.86Z" style="fill:#263238"></path><path d="M255.71,326.77h60l5.93-176h-39.7s-26.23,45.5-31,104.87C247.17,302,255.71,326.77,255.71,326.77Z" style="fill:#455a64"></path><rect x="252.5" y="220.77" width="69.11" height="4.97" style="fill:#ebebeb"></rect><rect x="263.03" y="186.02" width="61.96" height="4.97" style="fill:#ebebeb"></rect><rect x="246.63" y="254.63" width="74.97" height="4.97" style="fill:#ebebeb"></rect><rect x="246.31" y="289.67" width="74.97" height="4.97" style="fill:#ebebeb"></rect><path d="M315.68,326.77c-.12.26-14.94-6.72-33.09-15.6S249.83,294.9,250,294.64s14.94,6.72,33.09,15.6S315.81,326.51,315.68,326.77Z" style="fill:#ebebeb"></path><path d="M318.67,291.57a18.74,18.74,0,0,1-2.81-1.22l-7.52-3.65c-6.33-3.09-15.09-7.35-24.82-11.94s-18.59-8.64-25-11.56l-7.59-3.47a17.09,17.09,0,0,1-2.74-1.4,18,18,0,0,1,2.9,1c1.83.72,4.47,1.81,7.72,3.18,6.5,2.75,15.42,6.69,25.16,11.28s18.46,9,24.71,12.23c3.13,1.64,5.65,3,7.37,3.95A17.2,17.2,0,0,1,318.67,291.57Z" style="fill:#ebebeb"></path><path d="M276.79,140.52c-19.58,1.6-19,10.28-19,10.28h69.93V140.52Z" style="fill:#ebebeb"></path><path d="M276.79,140.52a1.1,1.1,0,0,1,.24,0l.73,0,2.8,0,10.53-.07,36.62-.09H328v.24c0,3.28,0,6.74,0,10.28v.26H311.7L257.78,151h-.19v-.17a5.81,5.81,0,0,1,.72-2.61,8.85,8.85,0,0,1,.69-1.1c.26-.33.54-.64.81-1a15.11,15.11,0,0,1,3.78-2.65,28.78,28.78,0,0,1,7-2.23l2.65-.44,1.95-.2,1.2-.1a2.53,2.53,0,0,1,.41,0l-.41.07-1.19.16-1.94.25-2.63.48a29.64,29.64,0,0,0-6.9,2.29,15.33,15.33,0,0,0-3.67,2.62c-.25.31-.53.6-.78.93a8,8,0,0,0-.64,1.05,5.29,5.29,0,0,0-.66,2.42l-.19-.17,53.92-.08h16l-.26.25c0-3.54,0-7,0-10.28l.25.25-36.61-.1-10.53-.07-2.81,0-.73,0A.64.64,0,0,1,276.79,140.52Z" style="fill:#263238"></path><path d="M333.81,23.68c.15,0,.26,10.81.26,24.14S334,72,333.81,72s-.26-10.81-.26-24.14S333.67,23.68,333.81,23.68Z" style="fill:#263238"></path><path d="M321.17,158.17c0,.15-9.5.26-21.21.26s-21.22-.11-21.22-.26,9.5-.26,21.22-.26S321.17,158,321.17,158.17Z" style="fill:#263238"></path><path d="M321.51,167c0,.14-10.56.26-23.57.26s-23.58-.12-23.58-.26,10.55-.26,23.58-.26S321.51,166.82,321.51,167Z" style="fill:#263238"></path><path d="M320.16,176.81c0,.15-11.16.27-24.92.27s-24.92-.12-24.92-.27,11.15-.26,24.92-.26S320.16,176.67,320.16,176.81Z" style="fill:#263238"></path><path d="M320.05,197.14c0,.14-12.87.26-28.74.26s-28.73-.12-28.73-.26,12.86-.26,28.73-.26S320.05,197,320.05,197.14Z" style="fill:#263238"></path><path d="M319.25,205.94c0,.14-13.13.26-29.33.26s-29.33-.12-29.33-.26,13.13-.26,29.33-.26S319.25,205.79,319.25,205.94Z" style="fill:#263238"></path><path d="M317.57,215.78c0,.15-13.47.26-30.09.26s-30.09-.11-30.09-.26,13.47-.26,30.09-.26S317.57,215.64,317.57,215.78Z" style="fill:#263238"></path><path d="M318.25,234.72c0,.15-14.54.27-32.47.27s-32.46-.12-32.46-.27,14.53-.26,32.46-.26S318.25,234.58,318.25,234.72Z" style="fill:#263238"></path><path d="M318.25,245.54c0,.15-14.89.26-33.25.26s-33.25-.11-33.25-.26,14.88-.26,33.25-.26S318.25,245.4,318.25,245.54Z" style="fill:#263238"></path><path d="M318.11,254.63a13.2,13.2,0,0,1-2.64-1c-1.67-.68-4.08-1.69-7-3-5.92-2.56-14.07-6.19-23-10.3s-17-7.95-22.79-10.82c-2.89-1.44-5.22-2.62-6.81-3.48a14.56,14.56,0,0,1-2.42-1.41,14,14,0,0,1,2.6,1L263,228.9l22.9,10.54L308.73,250c2.93,1.37,5.28,2.49,6.91,3.28A15.44,15.44,0,0,1,318.11,254.63Z" style="fill:#ebebeb"></path><path d="M319.25,220.77c-.14.26-12.48-6.21-27.58-14.43S264.46,191.24,264.6,191s12.48,6.21,27.57,14.44S319.39,220.52,319.25,220.77Z" style="fill:#ebebeb"></path><path d="M321.17,186c-.19.21-9.14-7.5-20-17.22s-19.47-17.78-19.28-18,9.14,7.5,20,17.23S321.36,185.81,321.17,186Z" style="fill:#ebebeb"></path><path d="M317.26,267.12c0,.15-15,.26-33.54.26s-33.54-.11-33.54-.26,15-.26,33.54-.26S317.26,267,317.26,267.12Z" style="fill:#263238"></path><path d="M317.07,278c0,.14-15,.26-33.53.26S250,278.14,250,278s15-.26,33.54-.26S317.07,277.85,317.07,278Z" style="fill:#263238"></path><path d="M316.15,304.16c0,.15-14.48.26-32.34.26s-32.34-.11-32.34-.26,14.48-.26,32.34-.26S316.15,304,316.15,304.16Z" style="fill:#263238"></path><path d="M315.78,316.69c0,.15-14,.26-31.23.26s-31.23-.11-31.23-.26,14-.26,31.23-.26S315.78,316.55,315.78,316.69Z" style="fill:#263238"></path></g><g id="freepik--character-2--inject-16"><path d="M513.71,299.32l-6.11,12.81-.36,12.51s3.35.87,3.26-1.78c0,0,1.47,1.7,2.51,1.2a4,4,0,0,0,1.62-1.68s.77,2,2.38,1.29,1.7-1.4,1.76-1.69,1.09.29,2.2-.29a1.76,1.76,0,0,0,1-1.71s1.88.24,2.42-.29a5.23,5.23,0,0,0,.89-1.85s.87-3.22.48-3.69-1.39-.42-1.39-.42l0-1.65s2-4.11,2.09-5.53-.45-7.63-.45-7.63Z" style="fill:#aa6550"></path><polygon points="515 224.23 513.53 224.01 515 279.98 512.78 314.37 521.3 317.34 528.47 288.04 532.72 232.13 515 224.23" style="fill:#aa6550"></polygon><path d="M551.19,162.24c1.26-3.92,2.21-4.8,3.62-8.67,1.48-4.08.46-10.41-.23-14.46-1.58-9.32-12.13-12.18-12.75-12.11-.45,0,9.41,10.39,9.19,10.78a21.17,21.17,0,0,0-2.34,12.34,56.41,56.41,0,0,0,2.51,12.12" style="fill:#263238"></path><path d="M551.54,146.54c.3-10.32-5.45-19.09-15.77-19.1l-1,0a18.45,18.45,0,0,0-17.39,18c-.21,8.94-.32,18.83,0,23.6.69,9.88,10.66,10.85,10.66,10.85s.07,10.85.11,13.76l7.36,5.19,16.1-13.95Z" style="fill:#aa6550"></path><path d="M528.09,179.93a24,24,0,0,0,12.66-4.54s-2.73,7.37-12.65,7Z" style="fill:#723c31"></path><path d="M520,151.07a1.42,1.42,0,0,0,1.44,1.35,1.37,1.37,0,0,0,1.39-1.36,1.42,1.42,0,0,0-1.44-1.35A1.37,1.37,0,0,0,520,151.07Z" style="fill:#263238"></path><path d="M519.89,148.39c.18.17,1.21-.68,2.73-.76s2.67.61,2.83.42-.12-.41-.63-.74a3.9,3.9,0,0,0-2.28-.56,3.68,3.68,0,0,0-2.16.84C519.93,148,519.8,148.31,519.89,148.39Z" style="fill:#263238"></path><path d="M534.1,151.54a1.42,1.42,0,0,0,1.44,1.35,1.36,1.36,0,0,0,1.39-1.36,1.42,1.42,0,0,0-1.44-1.34A1.35,1.35,0,0,0,534.1,151.54Z" style="fill:#263238"></path><path d="M534.45,148.39c.19.17,1.22-.68,2.73-.76s2.68.61,2.84.42-.12-.41-.63-.74a3.9,3.9,0,0,0-2.28-.56,3.68,3.68,0,0,0-2.16.84C534.5,148,534.36,148.31,534.45,148.39Z" style="fill:#263238"></path><path d="M529.9,161.21a10.77,10.77,0,0,0-2.49-.3c-.39,0-.76-.08-.84-.34a2,2,0,0,1,.19-1.16l1-3c1.35-4.3,2.31-7.82,2.13-7.88s-1.41,3.39-2.76,7.69q-.48,1.59-.93,3a2.28,2.28,0,0,0-.11,1.54,1,1,0,0,0,.67.53,2.64,2.64,0,0,0,.66,0A9.36,9.36,0,0,0,529.9,161.21Z" style="fill:#263238"></path><path d="M534.43,162c-.24,0-.15,1.65-1.5,2.9s-3.11,1.17-3.11,1.4.41.3,1.16.27a4.12,4.12,0,0,0,2.6-1.07,3.6,3.6,0,0,0,1.15-2.43C534.75,162.39,534.55,162,534.43,162Z" style="fill:#263238"></path><path d="M534.42,143.06c.17.4,1.67.12,3.47.23s3.26.52,3.48.13c.09-.18-.18-.55-.78-.92a6.07,6.07,0,0,0-5.3-.28C534.65,142.52,534.34,142.86,534.42,143.06Z" style="fill:#263238"></path><path d="M520.11,144.38c.28.33,1.31-.09,2.57-.18s2.33.1,2.56-.28c.1-.18-.09-.51-.58-.81a3.51,3.51,0,0,0-2.12-.45,3.58,3.58,0,0,0-2,.81C520.1,143.85,520,144.22,520.11,144.38Z" style="fill:#263238"></path><path d="M551.16,153.91c.16-.09,6.67-2.4,6.84,4.37s-6.66,5.55-6.67,5.35S551.16,153.91,551.16,153.91Z" style="fill:#aa6550"></path><path d="M553.33,161s.12.08.32.17a1.2,1.2,0,0,0,.88,0,2.93,2.93,0,0,0,1.29-2.66,4,4,0,0,0-.38-1.68,1.36,1.36,0,0,0-.91-.88.59.59,0,0,0-.68.34c-.09.19,0,.33-.08.34s-.15-.11-.1-.39a.69.69,0,0,1,.26-.43.86.86,0,0,1,.64-.19,1.63,1.63,0,0,1,1.26,1,3.92,3.92,0,0,1,.46,1.87,3.07,3.07,0,0,1-1.65,3,1.26,1.26,0,0,1-1.08-.15C553.35,161.18,553.31,161,553.33,161Z" style="fill:#723c31"></path><path d="M521.62,134.19c-1.11-.59,2.12-4.19,4.8-5.46,4-1.91,10.23-3.15,14-2.15,4.54,1.21,8.34,3.4,10.67,7.47a26.68,26.68,0,0,1,3.22,13.55,8.2,8.2,0,0,1-.89,4.16c-.92,1.51-2.72,2.48-2.61,4.55a2.85,2.85,0,0,1-.67,2.08c-1.21,1.33-2.75.12-3.47-1.11-1.53-2.63-1.75-5.79-1.93-8.83a19.92,19.92,0,0,1,.32-6.45c.32-1.13.83-2.21,1.08-3.36a4.09,4.09,0,0,0-.53-3.37,4.91,4.91,0,0,0-.56-.55,7.09,7.09,0,0,0-7-1.22c-3.79,1.42-10.27,3.54-12,2.27a10.55,10.55,0,0,1-3.08-3Z" style="fill:#263238"></path><path d="M511.9,368.11l-14.59,74.55L513,446.34s17-44.29,19.17-51.32,4.59-25.92,4.59-25.92Z" style="fill:#aa6550"></path><path d="M496.87,442.09l-3.6,16.62s-17.78.72-18.74,3.73l31.64,9.33,7.33-25.49Z" style="fill:#455a64"></path><g style="opacity:0.6000000000000001"><path d="M503.5,459.84a1.35,1.35,0,0,1,.53,1.72,1.29,1.29,0,0,1-1.7.53,1.43,1.43,0,0,1-.55-1.82,1.34,1.34,0,0,1,1.83-.36" style="fill:#fff"></path></g><g style="opacity:0.6000000000000001"><path d="M506.17,471.77l.67-2.58L476,461.24a2.28,2.28,0,0,0-1.67,1.38Z" style="fill:#fff"></path></g><path d="M492.79,458.41c0,.16.73.43,1.37,1.13s.88,1.45,1,1.43.16-1-.63-1.82S492.79,458.26,492.79,458.41Z" style="fill:#263238"></path><path d="M489.08,458.94c-.07.15.54.58.9,1.38s.34,1.53.49,1.56.49-.82,0-1.8S489.12,458.8,489.08,458.94Z" style="fill:#263238"></path><path d="M486.16,462.47c.13.07.55-.65.36-1.61s-.82-1.48-.92-1.37.23.69.37,1.47S486,462.42,486.16,462.47Z" style="fill:#263238"></path><path d="M494,454.72c0,.15.8.12,1.67.41s1.48.73,1.6.62-.41-.84-1.43-1.16S494,454.57,494,454.72Z" style="fill:#263238"></path><path d="M494.82,451.38a3.21,3.21,0,0,0,1.6.4,7.73,7.73,0,0,0,1.81-.09,7.19,7.19,0,0,0,1-.26,1.75,1.75,0,0,0,.58-.25.69.69,0,0,0,.28-.81.86.86,0,0,0-.59-.53,2,2,0,0,0-.62-.07,5.37,5.37,0,0,0-1.08.09,5.75,5.75,0,0,0-1.73.59c-.91.5-1.31,1-1.27,1.06s.54-.33,1.44-.7a6.37,6.37,0,0,1,2.63-.49c.36,0,.65.07.7.24s0,.09-.08.17a1.59,1.59,0,0,1-.43.18,7.9,7.9,0,0,1-1,.27,8.64,8.64,0,0,1-1.7.2A9.89,9.89,0,0,0,494.82,451.38Z" style="fill:#263238"></path><path d="M495,451.65s.5-.44.81-1.44a5.15,5.15,0,0,0,.23-1.8,6,6,0,0,0-.16-1.08,1.39,1.39,0,0,0-.82-1.07.77.77,0,0,0-.78.28,2.18,2.18,0,0,0-.31.54,3.67,3.67,0,0,0-.28,1.08,3.85,3.85,0,0,0,.26,1.83c.42,1,1,1.34,1.05,1.29a13.13,13.13,0,0,1-.67-1.42,3.77,3.77,0,0,1-.13-1.64,3.5,3.5,0,0,1,.27-.91c.14-.33.33-.57.45-.51s.37.37.43.67a5,5,0,0,1,.17,1,6,6,0,0,1-.09,1.68C495.2,451.07,494.89,451.61,495,451.65Z" style="fill:#263238"></path><path d="M567.16,373.39,594,450.77l14.31-1.64s-3-49.63-6.67-58.64-10.26-25.36-10.26-25.36Z" style="fill:#aa6550"></path><path d="M591.43,445.21l3.79,16.57s-15.79,8.21-15.39,11.34l32.62-5-4.19-26.19Z" style="fill:#455a64"></path><g style="opacity:0.6000000000000001"><path d="M605,458.46a1.34,1.34,0,0,1,1.2,1.34,1.29,1.29,0,0,1-1.31,1.2,1.43,1.43,0,0,1-1.27-1.42,1.35,1.35,0,0,1,1.51-1.1" style="fill:#fff"></path></g><g style="opacity:0.6000000000000001"><path d="M612.45,468.13l-.49-2.62-31.32,5.91a2.26,2.26,0,0,0-.93,2Z" style="fill:#fff"></path></g><path d="M594.66,461.72c0,.15.84.08,1.72.44s1.42.94,1.55.85-.28-1-1.35-1.38S594.6,461.58,594.66,461.72Z" style="fill:#263238"></path><path d="M591.53,463.77c0,.16.73.3,1.4.87s1,1.24,1.11,1.21.09-1-.76-1.64S591.51,463.62,591.53,463.77Z" style="fill:#263238"></path><path d="M590.38,468.21c.15,0,.22-.83-.35-1.61s-1.38-1-1.42-.85.5.52,1,1.17S590.22,468.22,590.38,468.21Z" style="fill:#263238"></path><path d="M594.22,457.84c.09.14.77-.22,1.68-.33s1.66,0,1.71-.11-.72-.59-1.78-.45S594.11,457.74,594.22,457.84Z" style="fill:#263238"></path><path d="M593.51,454.49a3.21,3.21,0,0,0,1.62-.32,7.39,7.39,0,0,0,1.6-.85,8.21,8.21,0,0,0,.84-.67,2.28,2.28,0,0,0,.42-.48.7.7,0,0,0-.09-.85.89.89,0,0,0-.77-.23,2.15,2.15,0,0,0-.59.2,6.08,6.08,0,0,0-.94.54,5.69,5.69,0,0,0-1.31,1.27c-.62.84-.76,1.48-.7,1.5s.35-.53,1-1.25a6,6,0,0,1,1.29-1.09,7.18,7.18,0,0,1,.87-.47c.33-.15.62-.21.74-.08s0,.08,0,.19a1.59,1.59,0,0,1-.31.35,8.78,8.78,0,0,1-.76.65,9.18,9.18,0,0,1-1.46.91A10.31,10.31,0,0,0,593.51,454.49Z" style="fill:#263238"></path><path d="M593.76,454.67a2.57,2.57,0,0,0,.13-1.64,5.28,5.28,0,0,0-1.16-2.64,1.38,1.38,0,0,0-1.2-.63.77.77,0,0,0-.59.59,2.31,2.31,0,0,0-.05.62,3.58,3.58,0,0,0,.21,1.1,3.79,3.79,0,0,0,1,1.54c.8.72,1.49.78,1.5.72s-.58-.28-1.21-1a3.7,3.7,0,0,1-.81-1.43,3.19,3.19,0,0,1-.15-.94c0-.35.06-.66.2-.64s.48.17.67.42a5.89,5.89,0,0,1,.57.8,6,6,0,0,1,.62,1.56C593.73,454,593.67,454.67,593.76,454.67Z" style="fill:#263238"></path><path d="M522.37,291.88l42.46-1.65s1,25.8,1,32.59-13.42,26.71-13.42,26.71l-12.52,37.34L507,377.79l6.52-43.92s7.36-36.17,8.68-41.19a3.52,3.52,0,0,0,.17-.86" style="fill:#263238"></path><path d="M544.54,334.7l22.62,52.17L603.63,377l-18.19-47.18s-1.2-21.08-1.94-25.93-.89-5.75-.89-5.75l-19.42-10.6-30.66,6.64S540.1,325.17,544.54,334.7Z" style="fill:#263238"></path><path d="M539.88,324.73a30,30,0,0,1,2.06,3.88c1.2,2.43,2.81,5.81,4.56,9.55s3.29,7.15,4.39,9.63a30.25,30.25,0,0,1,1.65,4.07,29.32,29.32,0,0,1-2.06-3.87c-1.2-2.43-2.81-5.81-4.56-9.56s-3.3-7.15-4.4-9.63A29.2,29.2,0,0,1,539.88,324.73Z" style="fill:#455a64"></path><path d="M588.2,338.41c.07.16-3.43,1.73-7.89,3.27s-8.17,2.48-8.22,2.31,3.57-1.37,8-2.91S588.14,338.25,588.2,338.41Z" style="fill:#455a64"></path><path d="M589.81,345.18a15,15,0,0,1-3,1.7,52.26,52.26,0,0,1-7.79,3c-.78.23-1.56.43-2.3.62l-1.11.25a2.19,2.19,0,0,1-1.22,0,1.72,1.72,0,0,1-.9-.81,6.42,6.42,0,0,1-.4-.92,16.66,16.66,0,0,1-.52-1.69,8.88,8.88,0,0,1-.38-3.44c.11,0,.2,1.31.81,3.32.16.5.35,1,.58,1.61s.5,1.21,1,1.37a5.23,5.23,0,0,0,2-.31l2.27-.62a72.56,72.56,0,0,0,7.78-2.77A24.8,24.8,0,0,1,589.81,345.18Z" style="fill:#455a64"></path><path d="M595.32,363s-.26.31-.82.76a21.1,21.1,0,0,1-2.52,1.74,12,12,0,0,1-4.3,1.58,8,8,0,0,1-5.48-1.2,11.59,11.59,0,0,1-3.79-4.14,19.06,19.06,0,0,1-1.67-4.24c-.34-1.25-.54-2.27-.67-3a3.44,3.44,0,0,1-.12-1.11c.1,0,.46,1.53,1.22,4a21.54,21.54,0,0,0,1.75,4.08,11.41,11.41,0,0,0,3.63,3.88,7.49,7.49,0,0,0,5.06,1.16,12.06,12.06,0,0,0,4.15-1.39C594,363.92,595.25,362.92,595.32,363Z" style="fill:#455a64"></path><path d="M537.17,317.34a11.69,11.69,0,0,1-.87-2.79,58.71,58.71,0,0,1-1.58-14,11.09,11.09,0,0,1,.23-2.91,16.45,16.45,0,0,1,.22,2.9c.09,1.79.25,4.26.56,7s.7,5.15,1,6.92A14.46,14.46,0,0,1,537.17,317.34Z" style="fill:#263238"></path><path d="M580.06,301.32a4.13,4.13,0,0,1-.3,2.39,7.68,7.68,0,0,1-9.6,4.83,4.23,4.23,0,0,1-2.1-1.18c.06-.09.83.42,2.22.74a8,8,0,0,0,5.38-.59,8.13,8.13,0,0,0,3.68-4C579.91,302.23,580,301.31,580.06,301.32Z" style="fill:#455a64"></path><path d="M539.53,298.72s.16-.09.47,0a1.78,1.78,0,0,1,1.09.7,2,2,0,0,1,.35,1.94,2.22,2.22,0,0,1-2,1.4,2.1,2.1,0,0,1-1.93-1.45,2,2,0,0,1,.4-1.92c.8-.87,1.63-.69,1.59-.63s-.68.14-1.23.91a1.5,1.5,0,0,0-.2,1.44,1.54,1.54,0,0,0,1.37,1,1.74,1.74,0,0,0,1.43-1,1.68,1.68,0,0,0-.18-1.46C540.23,298.84,539.49,298.83,539.53,298.72Z" style="fill:#455a64"></path><path d="M584.36,284.07s11.14,5.62,19.19,3.49S614.19,280,614.19,280h0a120,120,0,0,0-2.29-47.91L608,216.73s-13.65-25.58-23.63-32-20.11-4.49-19.26-3.45,11.41,91.42,11.41,91.42Z" style="fill:#455a64"></path><path d="M586.38,257.55s.47,0,1.41-.05l4.13-.07,15-.15h.26v.26l.44,10.53q.12,2.82.24,5.79a23.58,23.58,0,0,1-.25,6.13,5.85,5.85,0,0,1-2.46,3.78,7.11,7.11,0,0,1-4.31.84,36.18,36.18,0,0,1-4.12-.56,10.73,10.73,0,0,1-3.78-1.41,6.92,6.92,0,0,1-2.48-3,19.61,19.61,0,0,1-1.11-3.41c-.55-2.23-.93-4.33-1.26-6.25-.64-3.84-1.06-7-1.35-9.11-.13-1-.23-1.86-.31-2.49a4.5,4.5,0,0,1-.07-.87s.08.33.19.87.26,1.44.44,2.45c.36,2.14.85,5.25,1.55,9.07.35,1.91.76,4,1.33,6.2a17.76,17.76,0,0,0,1.1,3.3,6.32,6.32,0,0,0,2.29,2.71,10.28,10.28,0,0,0,3.58,1.3,40.5,40.5,0,0,0,4,.54,6.49,6.49,0,0,0,3.93-.76,5.24,5.24,0,0,0,2.18-3.39,23.31,23.31,0,0,0,.24-6c-.08-2-.15-3.91-.22-5.79-.13-3.75-.26-7.29-.37-10.53l.27.27-14.82-.15-4.2-.07-1.13,0Z" style="fill:#263238"></path><path d="M589.53,189.3c.11.21-3.57.67-7.93,1.55a39.08,39.08,0,0,0-5.5,1.46,19,19,0,0,0-2.13,1c-.08-.06.57-.81,1.95-1.43a26.65,26.65,0,0,1,5.55-1.67,52.65,52.65,0,0,1,5.71-.84A8.41,8.41,0,0,1,589.53,189.3Z" style="fill:#263238"></path><path d="M597.75,243.74a15.71,15.71,0,0,1-.14-2.2c0-.71-.07-1.57-.17-2.58s-.17-2.14-.35-3.39c-.28-2.52-.85-5.48-1.56-8.75s-1.75-6.8-2.93-10.48a181.7,181.7,0,0,0-7.22-18.42c-1-2.32-1.92-4.17-2.53-5.45a14.41,14.41,0,0,1-.89-2,16.39,16.39,0,0,1,1.11,1.91c.68,1.25,1.62,3.07,2.72,5.37a153.72,153.72,0,0,1,7.42,18.41c1.19,3.7,2.15,7.27,2.89,10.55a80.12,80.12,0,0,1,1.44,8.83c.16,1.26.22,2.41.26,3.42s.09,1.88.06,2.59l-.05,1.64A2.18,2.18,0,0,1,597.75,243.74Z" style="fill:#263238"></path><rect x="591.95" y="250.59" width="11.6" height="6.97" style="fill:#ebebeb"></rect><path d="M603.93,249.13c-.16-1.25-5-2.74-5-2.74v-2h-2.83v2s-3.91,1.74-4.41,2.41S592,252,592,252h12A14.92,14.92,0,0,0,603.93,249.13Z" style="fill:#263238"></path><path d="M603.61,255.47c0,.18-2.61.32-5.84.32s-5.84-.14-5.84-.32,2.62-.32,5.84-.32S603.61,255.29,603.61,255.47Z" style="fill:#e0e0e0"></path><path d="M603.79,249.08c0,.17-2.73.58-6.13.59s-6.16-.34-6.14-.51,2.75-.1,6.13-.13S603.77,248.9,603.79,249.08Z" style="fill:#455a64"></path><path d="M599,246.34c.13.11-.4.8-1.41.84s-1.58-.62-1.45-.74.7.14,1.43.1S598.86,246.2,599,246.34Z" style="fill:#455a64"></path><path d="M608.28,216.74c0,.18-3.22.44-7.16,1S594,219,594,218.82s3.09-1.11,7.07-1.69S608.28,216.57,608.28,216.74Z" style="fill:#263238"></path><path d="M614.28,241.52a41,41,0,0,1-2.67-3.64c-1.63-2.26-4-5.32-6.78-8.49s-5.58-5.86-7.63-7.75-3.36-3-3.3-3.08a4.83,4.83,0,0,1,1,.67c.63.46,1.52,1.17,2.58,2.07A78.86,78.86,0,0,1,612,237.62c.77,1.17,1.37,2.13,1.75,2.81A4.44,4.44,0,0,1,614.28,241.52Z" style="fill:#263238"></path><path d="M614.19,241.29c.06.15-3.17,1.44-7.35,2.38s-7.64,1.2-7.65,1,3.38-.71,7.51-1.65S614.13,241.11,614.19,241.29Z" style="fill:#263238"></path><path d="M608.66,216.73a4.65,4.65,0,0,1,.09,1.18,29.84,29.84,0,0,1-.14,3.22,40.82,40.82,0,0,1-2.35,10.35,41.25,41.25,0,0,1-4.93,9.4,28.24,28.24,0,0,1-2,2.53c-.51.57-.8.87-.83.84s1-1.37,2.44-3.62a48.54,48.54,0,0,0,4.71-9.37,47.39,47.39,0,0,0,2.5-10.18C608.51,218.41,608.55,216.73,608.66,216.73Z" style="fill:#263238"></path><path d="M581.5,276.36c-2.92-13.69-2.19-29-2.19-29,.32,1.73,4.61-17.12-1.34-50.14-1.56-8.65-3.3-19.43-11.88-20H551.83l-10.77,10.64a10.75,10.75,0,0,1-13.28,1.45h0c-4.45,2.17-14.55,8.83-15.7,12.59-1.49,4.9-5.1,30.46-5.1,30.46l13.07,4.33c.34,10.73.84,21.73.84,21.73s2.38,13.51,1.46,16.06-3.09,21.57-2.91,28.87l14.23-5.87s15.86-1.34,31-1.82c8.56-.28,16.8,5.11,16.8,5.11A57,57,0,0,0,581.5,276.36Z" style="fill:#F79F1F"></path><path d="M564.94,172.74s-8.7,0-12.94,6.22-4.39,12.89-2.57,23.82c1.6,9.63,10,17.4,10,17.4l-4-22.73s-3.34-18.4,8.82-19.36l11.27,3.27C575,178.57,571.82,174,564.94,172.74Z" style="fill:#455a64"></path><path d="M521.35,262.5s-1.23,1.2-.83,5.26a14.77,14.77,0,0,0,1.94,6.34s1-2.85,6.24-4.26a49.91,49.91,0,0,1,14.32-1.3c3.07.16,38.48,7.82,38.48,7.82l-2.24-21.58s-36.53,3-44.69,4.3A88.23,88.23,0,0,0,521.35,262.5Z" style="fill:#263238"></path><path d="M523.1,192.06c-4.83-2.15-7.35,2.12-7.71,2.91a7.3,7.3,0,0,0-.54,2.53c-.6,7.91,2.46,27.28,4.81,34.86l.63-38.33Z" style="fill:#455a64"></path><path d="M519.68,222.22a8.5,8.5,0,0,1,.11,1.63c0,1.18.07,2.68.11,4.46.08,3.77.24,9,.52,14.71s.62,10.93.87,14.69c.1,1.78.2,3.27.27,4.45a9,9,0,0,1,0,1.64,7.42,7.42,0,0,1-.27-1.62c-.13-1-.3-2.56-.48-4.44-.36-3.75-.77-8.94-1.05-14.69s-.37-11-.33-14.73c0-1.89,0-3.41.09-4.47A7.67,7.67,0,0,1,519.68,222.22Z" style="fill:#263238"></path><path d="M531.34,285.3a7.35,7.35,0,0,1-.25-2.36,29.11,29.11,0,0,1,.52-5.69,28.49,28.49,0,0,1,1.63-5.48,7,7,0,0,1,1.09-2.1c.19.07-1.28,3.37-2.09,7.7S531.54,285.29,531.34,285.3Z" style="fill:#263238"></path><path d="M537.31,291.2a14.36,14.36,0,0,1-.87-3.2,66.72,66.72,0,0,1-1.24-15.95,15,15,0,0,1,.36-3.3,20.46,20.46,0,0,1,.1,3.31c0,2,.08,4.85.31,7.95s.62,5.89.92,7.91A21.5,21.5,0,0,1,537.31,291.2Z" style="fill:#263238"></path><path d="M541.32,236.41a17.45,17.45,0,0,1,.92,3c.51,1.84,1.27,4.37,2.25,7.11s2,5.18,2.79,6.93a19.52,19.52,0,0,1,1.19,2.87,13.29,13.29,0,0,1-1.6-2.68,60.94,60.94,0,0,1-3-6.9,58.44,58.44,0,0,1-2.09-7.22A13.07,13.07,0,0,1,541.32,236.41Z" style="fill:#263238"></path><path d="M553,235.65a11.71,11.71,0,0,1,.47,2.79c.19,1.74.36,4.15.4,6.81s-.08,5.08-.23,6.82a12.12,12.12,0,0,1-.4,2.81,14.06,14.06,0,0,1-.05-2.83c0-1.74.07-4.14,0-6.79s-.13-5-.21-6.78A14.31,14.31,0,0,1,553,235.65Z" style="fill:#263238"></path><g style="opacity:0.30000000000000004"><path d="M535.58,269.12l-1,.13c-2,3.86-3.56,9.69-2.78,14.75.09.62.31,1.34.91,1.52s1.32-.5,1.58-1.17a11.13,11.13,0,0,0,.37-4.46A32.23,32.23,0,0,1,535.58,269.12Z"></path></g><path d="M519.85,193.32s.19-.32.59-.5.78-.12.77-.07-.32.1-.68.26S519.89,193.36,519.85,193.32Z" style="fill:#263238"></path><path d="M518.79,199.21a5.67,5.67,0,0,1-.18-1.54,6.41,6.41,0,0,1,.08-1.56,5.6,5.6,0,0,1,.13,1.55A6.29,6.29,0,0,1,518.79,199.21Z" style="fill:#263238"></path><path d="M519,205.42a6,6,0,0,1-.17-1.55,5.81,5.81,0,0,1,0-1.56,5.73,5.73,0,0,1,.16,1.55A5.59,5.59,0,0,1,519,205.42Z" style="fill:#263238"></path><path d="M519.24,211.62a5.51,5.51,0,0,1-.15-1.55,6.24,6.24,0,0,1,0-1.55,5.51,5.51,0,0,1,.15,1.55A6.24,6.24,0,0,1,519.24,211.62Z" style="fill:#263238"></path><path d="M519.38,217.83a5.76,5.76,0,0,1-.14-1.55,6.31,6.31,0,0,1,.07-1.56,5.83,5.83,0,0,1,.14,1.55A6.26,6.26,0,0,1,519.38,217.83Z" style="fill:#263238"></path><path d="M519.46,224a6.4,6.4,0,0,1-.12-1.55,5.7,5.7,0,0,1,.09-1.56,6.4,6.4,0,0,1,.12,1.55A5.7,5.7,0,0,1,519.46,224Z" style="fill:#263238"></path><path d="M519.49,228.64c-.06,0-.1-.33-.11-.75s0-.75.11-.75a1.58,1.58,0,0,1,.1.75C519.59,228.3,519.55,228.64,519.49,228.64Z" style="fill:#263238"></path><path d="M556.26,205.15s.29.2.56.51.43.61.39.65-.29-.19-.56-.51S556.21,205.19,556.26,205.15Z" style="fill:#263238"></path><path d="M553.83,199.91a6.46,6.46,0,0,1,.52,1.35,7.79,7.79,0,0,1,.45,1.38,3.65,3.65,0,0,1-.64-1.31A4.18,4.18,0,0,1,553.83,199.91Z" style="fill:#263238"></path><path d="M553.25,194.14a5.55,5.55,0,0,1,.14,1.45,5.85,5.85,0,0,1-.06,1.46,5.29,5.29,0,0,1-.15-1.45A5,5,0,0,1,553.25,194.14Z" style="fill:#263238"></path><path d="M554,188.38a5.68,5.68,0,0,1-.16,1.45,5.11,5.11,0,0,1-.37,1.41,5.72,5.72,0,0,1,.16-1.44A5.12,5.12,0,0,1,554,188.38Z" style="fill:#263238"></path><path d="M555.74,182.83a5.54,5.54,0,0,1-.4,1.41,5.77,5.77,0,0,1-.58,1.33,9.89,9.89,0,0,1,1-2.74Z" style="fill:#263238"></path><path d="M559,178.05a8.44,8.44,0,0,1-.92,1.12,8.83,8.83,0,0,1-.94,1.1,3.58,3.58,0,0,1,.78-1.24A3.72,3.72,0,0,1,559,178.05Z" style="fill:#263238"></path><path d="M564.17,175.67a11.88,11.88,0,0,1-1.4.39,10.06,10.06,0,0,1-1.39.39,3.25,3.25,0,0,1,1.33-.59A3.43,3.43,0,0,1,564.17,175.67Z" style="fill:#263238"></path><path d="M569.85,176.5a9,9,0,0,1-1.39-.4,9.37,9.37,0,0,1-1.39-.4,5.11,5.11,0,0,1,2.78.8Z" style="fill:#263238"></path><path d="M574.37,180.08a8.33,8.33,0,0,1-1-1,7.71,7.71,0,0,1-1-1.05,4,4,0,0,1,1.15.9A4,4,0,0,1,574.37,180.08Z" style="fill:#263238"></path><path d="M576.49,183.94a1.56,1.56,0,0,1-.38-.66c-.16-.38-.25-.7-.2-.73s.23.27.39.65S576.55,183.92,576.49,183.94Z" style="fill:#263238"></path><path d="M562.44,208.43c.18.65,14.8,46.45,14.8,46.45l-2.8,54.58,12.57.17s13-49.18,11.4-57.44S587,205,587,205s-11.26-27-19.57-25.64S557.73,191.12,562.44,208.43Z" style="fill:#aa6550"></path><path d="M561.8,178.6a34.93,34.93,0,0,0-5,13.21c-1.32,7.95,7.66,37.74,7.66,37.74l31.48-5.89S578.42,170,561.8,178.6Z" style="fill:#F79F1F"></path><path d="M574.45,308.45l-5.12,13.24.59,12.5s3.41.6,3.11-2c0,0,1.6,1.58,2.6,1a4,4,0,0,0,1.49-1.8s.91,1.9,2.46,1.1,1.6-1.52,1.63-1.82,1.11.21,2.18-.44a1.76,1.76,0,0,0,.83-1.78s1.9.09,2.39-.48a5.23,5.23,0,0,0,.75-1.92s.63-3.26.2-3.71-1.41-.31-1.41-.31l-.09-1.65s1.65-4.24,1.66-5.67-1-7.58-1-7.58Z" style="fill:#aa6550"></path><path d="M569.45,327c.15-.1,1.1,1.05,2.14,2.56a9.2,9.2,0,0,1,1.61,2.93c-.15.1-1.11-1.05-2.14-2.57A9.1,9.1,0,0,1,569.45,327Z" style="fill:#723c31"></path><path d="M573.38,325.65c.18-.07.93,1.41,2.07,3.08s2.24,2.92,2.11,3.06-1.46-1-2.64-2.7A7.45,7.45,0,0,1,573.38,325.65Z" style="fill:#723c31"></path><path d="M577.26,325.63c.16-.08,1,1.17,2.1,2.64s2.08,2.63,1.95,2.76-1.32-.85-2.46-2.37S577.11,325.71,577.26,325.63Z" style="fill:#723c31"></path><path d="M580.22,323.27c.16-.09,1,1.16,2.11,2.63s2.07,2.63,1.94,2.76-1.32-.85-2.46-2.37S580.07,323.34,580.22,323.27Z" style="fill:#723c31"></path><path d="M585.13,325.71c-.18,0-.23-1,.07-2.14s.83-2,1-1.9-.08,1-.37,2.06S585.31,325.73,585.13,325.71Z" style="fill:#723c31"></path><path d="M556,198.75a3,3,0,0,1,.15.63c.09.48.21,1.08.34,1.8.31,1.67.73,3.91,1.24,6.64,1.1,5.69,2.6,13.38,4.26,21.88,0,.21.09.42.12.62l-.37-.25c8.42-1.58,16-3.08,21.46-4.22l6.45-1.39,1.75-.38A2.45,2.45,0,0,1,592,224a2.76,2.76,0,0,1-.59.21c-.4.12-1,.3-1.73.5-1.5.41-3.69,1-6.42,1.59-5.44,1.25-13,2.82-21.43,4.4l-.31.06-.06-.31c0-.19-.08-.4-.13-.62-1.69-8.54-3.13-16.29-4.08-21.92-.47-2.81-.83-5.09-1-6.68-.11-.79-.17-1.41-.21-1.82A2.67,2.67,0,0,1,556,198.75Z" style="fill:#263238"></path><path d="M520,210.5s17,.67,29.1-9.65a27.18,27.18,0,0,0,2.18,7.91s-31.4,9-31.39,8.59S520,210.5,520,210.5Z" style="fill:#263238"></path></g><g id="freepik--character-1--inject-16"><path d="M459.08,233c-.24-4.66-1.31-9.3-1-14,.17-2.73.8-5.44.72-8.18s-1-5.65-3.27-7.2c-2.07-1.41-5-1.5-6.63-3.37-1.83-2.07-1.35-5.4-2.91-7.68-1.28-1.87-3.64-2.64-5.33-4.14-2.43-2.15-3.24-5.55-3.83-8.74-1.46-7.86-2.4-15.9-5.41-23.31s-11.64-22.18-31.76-19.61l-11,6.2c-3.49,3.5-5,8.59-5.21,13.53s.57,9.86,1,14.78.5,10-1.24,14.65c-.09.24-.19.48-.29.72a16.84,16.84,0,0,1-1.27,2c-1.92,2.56-4.54,4.5-6.67,6.89s-3.78,5.57-3.12,8.7c.45,2.14,2,4.05,1.88,6.24-.11,2.94-2.93,4.95-4.35,7.52a8.87,8.87,0,0,0,4.49,12.09c4,1.46,8.66-.37,11.44-3.58s3.93-7.55,4.3-11.79c0-.39,0-.78.07-1.17a19,19,0,0,0,4.79-1.36c3.51-1.5,11.46.21,13.69-2.89,1.28-1.78,3.81-4.77,5.64-7.7L443,246.13c2.71,3.81,9,3.27,12.28-.09S459.32,237.62,459.08,233Z" style="fill:#263238"></path><path d="M468.52,219.15c-.13-4.69-.55-9.56-3-13.65s-6.88-7.14-11.46-9.27c-5.87-2.72-12.54-4.37-19-3.26s-20.89,2.81-22.58,8.79l9.26,81.77c2.6,2.3,29.85.7,33.17-.52,3.06-1.12,6.23-2.5,8.09-5.06s2.09-5.82,2.31-8.91C466.52,252.41,469,235.81,468.52,219.15Z" style="fill:#455a64"></path><path d="M455,197s.08,0,.2.13l.55.44a11.63,11.63,0,0,1,1.82,2,19.88,19.88,0,0,1,3.19,9.28,61.72,61.72,0,0,1,.41,6.81c.05,2.45.07,5.07.08,7.82,0,5.5-.1,11.55-.36,17.9s-.62,12.38-1.07,17.87A69.23,69.23,0,0,1,459,267a20.52,20.52,0,0,1-2.29,6.44,11.82,11.82,0,0,1-7.77,5.78,8.13,8.13,0,0,1-2.69,0,6.44,6.44,0,0,1-.68-.16l-.23-.07a9.56,9.56,0,0,0,3.56,0,11.73,11.73,0,0,0,7.49-5.76,20.35,20.35,0,0,0,2.19-6.34,70.48,70.48,0,0,0,.85-7.74c.42-5.48.78-11.51,1-17.86s.37-12.38.4-17.87c0-2.75,0-5.36,0-7.81a64.08,64.08,0,0,0-.34-6.77,20.29,20.29,0,0,0-3-9.22A16.73,16.73,0,0,0,455,197Z" style="fill:#263238"></path><path d="M463,267.16c-.12.1-.78-.56-1.84-.85s-2-.13-2-.27.93-.6,2.16-.23S463.08,267.1,463,267.16Z" style="fill:#263238"></path><path d="M463,265c-.11.1-.81-.61-1.88-1.13s-2.05-.65-2-.81a2.89,2.89,0,0,1,2.27.34C462.55,264,463.14,265,463,265Z" style="fill:#263238"></path><path d="M467.66,220.19a9.69,9.69,0,0,1-3.09.4,9.31,9.31,0,0,1-3.11-.13,19,19,0,0,1,6.2-.27Z" style="fill:#263238"></path><path d="M372.33,439.79l-.11,18.48s-18.74,4.76-19.1,8.17l35.75,2.84L391,440.52Z" style="fill:#F79F1F"></path><g style="opacity:0.6000000000000001"><path d="M383.37,457.18a1.48,1.48,0,0,1,.94,1.72,1.4,1.4,0,0,1-1.69.94,1.53,1.53,0,0,1-1-1.81,1.47,1.47,0,0,1,1.87-.8" style="fill:#fff"></path></g><path d="M388.87,469.28l.14-2.9-34.62-1.54a2.48,2.48,0,0,0-1.47,1.85Z" style="fill:#263238"></path><path d="M371.65,458.07c0,.17.87.29,1.71.89s1.26,1.35,1.43,1.29-.06-1.09-1.09-1.8S371.62,457.9,371.65,458.07Z" style="fill:#263238"></path><path d="M367.83,459.46c-.05.17.69.5,1.26,1.26s.7,1.56.87,1.56.33-1-.39-1.92S367.84,459.3,367.83,459.46Z" style="fill:#263238"></path><path d="M365.5,463.87c.16,0,.44-.82,0-1.8s-1.21-1.39-1.29-1.25.41.68.73,1.49S365.33,463.85,365.5,463.87Z" style="fill:#263238"></path><path d="M372.14,453.86c.07.16.88-.05,1.87.06s1.74.45,1.84.31-.62-.81-1.78-.92S372.06,453.72,372.14,453.86Z" style="fill:#263238"></path><path d="M372.23,450.13a3.38,3.38,0,0,0,1.8.06,8.08,8.08,0,0,0,1.9-.49,9.16,9.16,0,0,0,1.05-.51,2.26,2.26,0,0,0,.56-.4.76.76,0,0,0,.12-.92,1,1,0,0,0-.75-.44,2.37,2.37,0,0,0-.68.07,6.46,6.46,0,0,0-1.13.33,6.59,6.59,0,0,0-1.7,1c-.86.74-1.17,1.38-1.11,1.41s.5-.47,1.37-1.07a7.59,7.59,0,0,1,1.64-.83,6.89,6.89,0,0,1,1-.27c.39-.09.71-.08.8.09s0,.1-.05.2a1.61,1.61,0,0,1-.41.3,8.94,8.94,0,0,1-1,.5,10.09,10.09,0,0,1-1.76.59A10.86,10.86,0,0,0,372.23,450.13Z" style="fill:#263238"></path><path d="M372.45,450.39a2.9,2.9,0,0,0,.55-1.71,5.86,5.86,0,0,0-.17-2,5.78,5.78,0,0,0-.41-1.11,1.46,1.46,0,0,0-1.11-.95.83.83,0,0,0-.77.47,2.58,2.58,0,0,0-.21.65,4.12,4.12,0,0,0,.64,3.09c.66,1,1.38,1.2,1.4,1.14s-.53-.45-1-1.36a4.05,4.05,0,0,1-.5-1.71,3.68,3.68,0,0,1,.08-1c.07-.38.22-.68.37-.63s.46.3.6.61a5.87,5.87,0,0,1,.4,1,6.26,6.26,0,0,1,.27,1.81C372.57,449.71,372.36,450.36,372.45,450.39Z" style="fill:#263238"></path><path d="M447.86,439.14l4.08,18s-17.19,8.88-16.76,12.28l35.47-5.32-4.48-28.49Z" style="fill:#F79F1F"></path><g style="opacity:0.6000000000000001"><path d="M462.54,453.58a1.47,1.47,0,0,1,1.31,1.45,1.41,1.41,0,0,1-1.43,1.31,1.54,1.54,0,0,1-1.37-1.55,1.45,1.45,0,0,1,1.63-1.19" style="fill:#fff"></path></g><path d="M470.65,464.12l-.53-2.86-34.06,6.34a2.49,2.49,0,0,0-1,2.13Z" style="fill:#263238"></path><path d="M451.33,457.09c0,.17.92.09,1.87.48s1.53,1,1.68.94-.3-1.05-1.46-1.5S451.26,456.94,451.33,457.09Z" style="fill:#263238"></path><path d="M447.92,459.32c0,.17.8.33,1.52.94s1,1.36,1.2,1.32.1-1-.81-1.79S447.9,459.15,447.92,459.32Z" style="fill:#263238"></path><path d="M446.66,464.14c.16,0,.24-.9-.38-1.76s-1.49-1.08-1.54-.92.55.56,1.05,1.28S446.49,464.15,446.66,464.14Z" style="fill:#263238"></path><path d="M450.86,452.88c.1.14.84-.24,1.83-.36s1.8.05,1.86-.12-.78-.64-1.94-.48S450.75,452.76,450.86,452.88Z" style="fill:#263238"></path><path d="M450.1,449.23a3.42,3.42,0,0,0,1.77-.34,8.41,8.41,0,0,0,1.73-.92,7.54,7.54,0,0,0,.92-.73,2.12,2.12,0,0,0,.45-.51.76.76,0,0,0-.09-.93.93.93,0,0,0-.83-.25,2.61,2.61,0,0,0-.65.21,6.61,6.61,0,0,0-2.45,2c-.67.91-.83,1.61-.76,1.63s.38-.57,1.09-1.35a7.22,7.22,0,0,1,1.41-1.19,6.56,6.56,0,0,1,.95-.5c.36-.17.68-.23.8-.08s.06.08,0,.2a1.78,1.78,0,0,1-.33.38c-.28.26-.56.49-.83.71a9.57,9.57,0,0,1-1.59,1A12.72,12.72,0,0,0,450.1,449.23Z" style="fill:#263238"></path><path d="M450.37,449.43a2.83,2.83,0,0,0,.15-1.79,5.9,5.9,0,0,0-.61-1.89,5.74,5.74,0,0,0-.65-1,1.47,1.47,0,0,0-1.29-.68.84.84,0,0,0-.65.63,2.81,2.81,0,0,0-.06.68,4.21,4.21,0,0,0,1.32,2.87c.86.78,1.62.85,1.62.79s-.62-.31-1.31-1.09a4.11,4.11,0,0,1-.87-1.55,3.47,3.47,0,0,1-.16-1c0-.38.07-.71.21-.7s.53.19.73.46a6.07,6.07,0,0,1,.62.87,6.49,6.49,0,0,1,.67,1.7C450.34,448.75,450.27,449.43,450.37,449.43Z" style="fill:#263238"></path><path d="M458.93,394.66c-2.12-7.64-5.5-31.91-5.5-31.91l-.52-48.7c-.47-10.65-5.35-21.77-11.25-32s-59.81,12.54-59.81,12.54c-.16-6.42-7.81,43.65-9.47,86l-1.87,66.28h20.57l9.65-70.23c2.32-9.73,13.07-57.19,13.07-57.19s10,43.25,13.5,55c4.44,14.82,7.75,23.55,9.14,29.11s11.8,41.48,11.8,41.48L468,441.7S462.47,407.44,458.93,394.66Z" style="fill:#263238"></path><path d="M372,232.86c-2,8.82-4.51,18.37-4.68,27.86a10.64,10.64,0,0,0,1.23,5.86,8.35,8.35,0,0,0,6.14,3.76,9.89,9.89,0,0,0,8.93-3.88c1.62-2.38,1.71-5.11,1.77-7.75q.27-11.59.53-23.2Z" style="fill:#ffbe9d"></path><path d="M435.88,260.4l.75-37,.09-28.32s-11.1-2.69-18.66-2.69-21.27,1-21.27,1-15.67,7.06-17.13,11.21,3,39.43,3.48,49.19c.2,4.07,1.05,5.47.48,12.67-.81,10.09-3.05,26-1.77,28.17,2.2,3.66,3.91,5.86,13.66,7.81s17.57.73,28.55-1.95,21.09-14.08,21.58-15.79S435.88,260.4,435.88,260.4Z" style="fill:#F79F1F"></path><path d="M436.72,195.1l-2.47,30.19,7.41,11.16L458,221.18S443.9,196.92,436.72,195.1Z" style="fill:#F79F1F"></path><path d="M467.28,239.7c-1.54-3.66-11-16.91-11-16.91l-12.11,11.29,5.74,6.76-20.4-1.16-.59,9.82S455,255.62,458.18,256a8.74,8.74,0,0,0,9.1-4.61C468.83,248.72,469.18,244.19,467.28,239.7Z" style="fill:#ffbe9d"></path><path d="M383.42,200.69s-9,5.42-11.49,15.79a143.74,143.74,0,0,0-3.23,18.4l14.86,3.48Z" style="fill:#F79F1F"></path><path d="M417.62,248a1.87,1.87,0,0,1-.68.07,9.71,9.71,0,0,1-1.87-.12,15.25,15.25,0,0,1-5.81-2.11,15.45,15.45,0,0,1-4.5-4.23,10,10,0,0,1-.95-1.62c-.19-.4-.28-.63-.24-.65s.53.82,1.48,2.05a17.36,17.36,0,0,0,4.48,4,17.16,17.16,0,0,0,5.6,2.2C416.65,247.86,417.62,247.87,417.62,248Z" style="fill:#263238"></path><path d="M436.72,215.9c.15,0,.18,5,.07,11.07s-.31,11.06-.46,11.05-.17-5-.06-11.06S436.58,215.9,436.72,215.9Z" style="fill:#263238"></path><g style="opacity:0.30000000000000004"><path d="M416.69,238.65c-.54.67-1.27,3.83-.82,4.57a21.77,21.77,0,0,1,1.44,2.15,6.52,6.52,0,0,1,.39,2.64c.06,4.85.1,9.76,1.2,14.49s4.23,8.27,8,11.28,9.7,4.46,14.06,2.31a10.55,10.55,0,0,0,1.38-.78l-1.27-3.14c-.46-.51-.35-.92-1-1.15a29.77,29.77,0,0,1-13.69-9.38,21.07,21.07,0,0,1-4.52-15.72c.24-1.6.69-3.25.25-4.81s-2.24-2.87-3.66-2.1"></path></g><path d="M426.71,255.37c-1.15-2.46-.65-8.14-.42-10.81L431.11,194s-3.06-1.54-8.82-1.33l-3.44,55.28a24.5,24.5,0,0,0,1.52,10.39A20.09,20.09,0,0,0,429.53,269c9.4,5.11,15.33,4.16,15.33,4.16l-1.36-7S431.78,266.26,426.71,255.37Z" style="fill:#455a64"></path><path d="M390.93,196.2s-9.09,12-9.72,23.64a119.15,119.15,0,0,0,1.14,25.88c1.42,8.41,1.3,16.88.85,25.39-9.63-21.08-10.8-46.85-2-68.57C381.17,202.54,385.88,197.31,390.93,196.2Z" style="fill:#455a64"></path><path d="M367.8,253.29a2.34,2.34,0,0,1-1.94-2.65l.35-2.21a1.58,1.58,0,0,1-.39-2.12,7.43,7.43,0,0,1,1.28-2.12s-1.14-1.33-.39-2.21a3.6,3.6,0,0,1,2.07-1.06s1.15-2.65,2.74-2.56a17.81,17.81,0,0,1,3.89.88l3.35,5.12s-.35,1.68-1.23,1.46a1.75,1.75,0,0,1,.91,2.09c-.11.54-1.18,1-1.18,1s.8,1.68-.18,2.48c0,0,.53,2.12-1.06,2.38a9.29,9.29,0,0,1-3,.76A21.44,21.44,0,0,1,367.8,253.29Z" style="fill:#ffbe9d"></path><path d="M377,253.28c0,.05-.35.48-1.18.87a7.11,7.11,0,0,1-3.48.58A13,13,0,0,1,369,254a3.73,3.73,0,0,1-1.31-.61,4.47,4.47,0,0,1,1.42.26,21.34,21.34,0,0,0,3.35.6,8.39,8.39,0,0,0,3.3-.4C376.54,253.53,377,253.22,377,253.28Z" style="fill:#eb996e"></path><path d="M377.05,251.33a17.28,17.28,0,0,1-3.85-.13,18.58,18.58,0,0,1-3.82-.44,20.39,20.39,0,0,1,7.67.57Z" style="fill:#eb996e"></path><path d="M377.18,248.91a24.55,24.55,0,0,1-4.15-.21,25.63,25.63,0,0,1-4.15-.36,19.62,19.62,0,0,1,8.3.57Z" style="fill:#eb996e"></path><path d="M377.8,246c-.05.13-1.85-.42-4.13-.76a27.7,27.7,0,0,1-4.16-.67,12.61,12.61,0,0,1,4.24.15A10,10,0,0,1,377.8,246Z" style="fill:#eb996e"></path><path d="M372.17,241a7.83,7.83,0,0,1,3.51,1,7.94,7.94,0,0,1,3,2.1c-.09.12-1.43-.78-3.22-1.63S372.13,241.17,372.17,241Z" style="fill:#eb996e"></path><path d="M375.16,239.2c-.05.07-.41-.16-1.05-.34a4.73,4.73,0,0,0-2.53,0,4.55,4.55,0,0,0-2.14,1.33c-.46.48-.66.86-.74.83s0-.47.45-1.07a4.22,4.22,0,0,1,5.08-1.4C374.9,238.81,375.2,239.15,375.16,239.2Z" style="fill:#eb996e"></path><path d="M383.14,253.79a6.34,6.34,0,0,1-.23-1.37c-.12-1-.27-2.24-.46-3.74-.37-3.16-.92-7.53-1.29-12.38a109.53,109.53,0,0,1-.31-12.46c.08-1.6.16-2.89.26-3.77a7,7,0,0,1,.19-1.38,6.56,6.56,0,0,1,0,1.39c0,.89-.06,2.18-.09,3.77,0,3.18.07,7.57.46,12.41s.86,9.21,1.14,12.38c.14,1.59.24,2.87.29,3.76A8.14,8.14,0,0,1,383.14,253.79Z" style="fill:#263238"></path><path d="M418.24,229.65a3.81,3.81,0,0,1,3.58-2.38c.69,0,1.56.09,2.16.12a5.42,5.42,0,0,1,3.63,1.71,4.35,4.35,0,0,1,1.33,3.32,75.21,75.21,0,0,0,1.25,8.81l-1.25,8.27-.13,0a6.25,6.25,0,0,1-7.28-7.75l.09-.34h-2.34s.1,2.83-.8,2.64c-2.06-.43-1.69-4.25-1.69-4.25s-2.24.56-1.76-1.47C415.35,237,417.09,232.55,418.24,229.65Z" style="fill:#ffbe9d"></path><path d="M424.35,240s0-.19,0-.51a3.71,3.71,0,0,0,0-1.29,1.33,1.33,0,0,0-1.24-1.06c-.74-.07-1.57-.09-2.43-.15a6.19,6.19,0,0,0-2.32.35,2.45,2.45,0,0,0-1.35,1.22,2.27,2.27,0,0,0-.07,1.7s-.18-.1-.31-.42a1.92,1.92,0,0,1,.05-1.43,2.74,2.74,0,0,1,1.49-1.51,6.23,6.23,0,0,1,2.51-.43c.89.06,1.73.09,2.5.19a1.71,1.71,0,0,1,1.53,1.47,3.06,3.06,0,0,1-.15,1.4C424.46,239.82,424.38,240,424.35,240Z" style="fill:#eb996e"></path><path d="M426.06,234.88c-.05,0,0-.2-.15-.51a2.13,2.13,0,0,0-.91-1,4.16,4.16,0,0,0-2-.43,22.26,22.26,0,0,0-2.67.09,5.57,5.57,0,0,0-3.95,2.33,17.16,17.16,0,0,0-.94,1.76,3.28,3.28,0,0,1,.63-2,5.77,5.77,0,0,1,1.57-1.66,5.6,5.6,0,0,1,2.62-1,19.83,19.83,0,0,1,2.75,0,4.23,4.23,0,0,1,2.22.6,2.13,2.13,0,0,1,.9,1.28C426.17,234.69,426.08,234.89,426.06,234.88Z" style="fill:#eb996e"></path><path d="M426.76,239.32c-.14-.06,0-.62.07-1.31s.1-1.25.24-1.28.37.57.28,1.35S426.88,239.38,426.76,239.32Z" style="fill:#eb996e"></path><path d="M427.42,232.72a4,4,0,0,0-.7-1.44,4.71,4.71,0,0,0-3.55-1.25,20.7,20.7,0,0,0-5.59.88,3.82,3.82,0,0,1,1.52-.78,11.56,11.56,0,0,1,4.08-.62,7.21,7.21,0,0,1,2.28.4,3.46,3.46,0,0,1,1.54,1.14C427.67,232,427.47,232.76,427.42,232.72Z" style="fill:#eb996e"></path><path d="M431.57,245.31c-.17.11-1-1.46-1.47-3.51a9.68,9.68,0,0,1-.48-3.78,25.38,25.38,0,0,1,1,3.65C431.09,243.7,431.65,245.26,431.57,245.31Z" style="fill:#eb996e"></path><path d="M461.82,242.46c0,.15-3-.62-6.63-1.08s-6.69-.48-6.7-.64a7.26,7.26,0,0,1,2-.17,35.57,35.57,0,0,1,9.48,1.22A6.53,6.53,0,0,1,461.82,242.46Z" style="fill:#eb996e"></path><path d="M438.21,195.55a19.5,19.5,0,0,0-1.95,4.9,19.12,19.12,0,0,0,0,5.28,3.51,3.51,0,0,1-.5-1.52,10.42,10.42,0,0,1,0-3.86,10.29,10.29,0,0,1,1.42-3.58A3.72,3.72,0,0,1,438.21,195.55Z" style="fill:#263238"></path><path d="M426.34,226.23c.14,0,.23.36.19.77s-.19.74-.33.73-.23-.36-.19-.77S426.2,226.22,426.34,226.23Z" style="fill:#fff"></path><path d="M426.88,220.48c.14,0,.19.67.12,1.46s-.25,1.43-.39,1.42-.2-.67-.13-1.47S426.73,220.46,426.88,220.48Z" style="fill:#fff"></path><path d="M427.41,214.72c.15,0,.2.67.13,1.46s-.25,1.43-.4,1.42-.2-.67-.12-1.46S427.27,214.71,427.41,214.72Z" style="fill:#fff"></path><path d="M428,209c.14,0,.2.66.12,1.46s-.25,1.43-.39,1.41-.2-.66-.12-1.46S427.81,209,428,209Z" style="fill:#fff"></path><path d="M428.49,203.21c.14,0,.2.67.12,1.46s-.25,1.43-.39,1.42-.2-.67-.13-1.46S428.34,203.2,428.49,203.21Z" style="fill:#fff"></path><path d="M429,197.46c.15,0,.2.66.13,1.46s-.25,1.43-.39,1.41-.2-.67-.13-1.46S428.88,197.44,429,197.46Z" style="fill:#fff"></path><path d="M429.43,193.08c.14,0,.23.36.19.77s-.18.74-.33.73-.23-.36-.19-.77S429.29,193.07,429.43,193.08Z" style="fill:#fff"></path><path d="M424.77,250.54c-.14,0-.22-.36-.17-.78s.21-.74.35-.71.22.37.17.77S424.92,250.54,424.77,250.54Z" style="fill:#fff"></path><path d="M425.71,255.94c-.13.05-.48-.49-.69-1.24s-.21-1.39-.07-1.41.36.55.57,1.27S425.85,255.88,425.71,255.94Z" style="fill:#fff"></path><path d="M428.58,260.64c-.11.09-.61-.3-1.07-.93s-.68-1.23-.56-1.31.54.39,1,1S428.69,260.54,428.58,260.64Z" style="fill:#fff"></path><path d="M432.72,264.27c-.08.12-.64-.17-1.25-.64s-1-.94-.94-1,.66.17,1.26.63S432.8,264.15,432.72,264.27Z" style="fill:#fff"></path><path d="M437.54,267c-.06.13-.67,0-1.35-.39s-1.19-.73-1.11-.86.67.05,1.34.4S437.6,266.83,437.54,267Z" style="fill:#fff"></path><path d="M441.47,268.61c-.05.14-.4.12-.79,0s-.66-.39-.6-.52.41-.12.79,0S441.53,268.48,441.47,268.61Z" style="fill:#fff"></path><path d="M383.16,255.89c.14,0,.31.29.39.69s0,.76-.12.79-.32-.28-.39-.69S383,255.92,383.16,255.89Z" style="fill:#fff"></path><path d="M382.06,249.79c.14,0,.38.64.53,1.48s.15,1.55,0,1.57-.38-.64-.52-1.48S381.92,249.82,382.06,249.79Z" style="fill:#fff"></path><path d="M381.09,243.67c.14,0,.36.65.49,1.49s.12,1.55,0,1.57-.37-.64-.5-1.49S381,243.69,381.09,243.67Z" style="fill:#fff"></path><path d="M380.33,237.52c.14,0,.34.66.43,1.51s.06,1.55-.08,1.57-.34-.66-.43-1.51S380.19,237.53,380.33,237.52Z" style="fill:#fff"></path><path d="M379.89,231.34c.14,0,.3.68.35,1.53s0,1.55-.18,1.56-.29-.68-.34-1.53S379.75,231.34,379.89,231.34Z" style="fill:#fff"></path><path d="M379.86,225.14c.15,0,.25.7.23,1.55s-.13,1.55-.27,1.55-.26-.69-.25-1.55S379.72,225.13,379.86,225.14Z" style="fill:#fff"></path><path d="M380.36,219c.14,0,.19.72.1,1.56s-.27,1.53-.42,1.52-.19-.71-.1-1.57S380.22,219,380.36,219Z" style="fill:#fff"></path><path d="M381.46,212.87c.14,0,.11.74-.06,1.57s-.43,1.49-.57,1.46-.11-.72.06-1.57S381.32,212.84,381.46,212.87Z" style="fill:#fff"></path><path d="M383.23,206.94c.14.05,0,.74-.24,1.55s-.6,1.43-.73,1.39,0-.74.24-1.56S383.1,206.89,383.23,206.94Z" style="fill:#fff"></path><path d="M385.76,201.28c.12.07-.08.75-.45,1.51s-.78,1.33-.91,1.27.06-.73.44-1.5S385.63,201.21,385.76,201.28Z" style="fill:#fff"></path><path d="M388.14,197.36c.12.08,0,.43-.19.77s-.51.56-.63.48,0-.42.19-.77S388,197.28,388.14,197.36Z" style="fill:#fff"></path><g style="opacity:0.30000000000000004"><path d="M406.84,224.41a5.17,5.17,0,0,0-5.23,1,7.88,7.88,0,0,0-2.83,6.83,13.63,13.63,0,0,0-2.18-3.91,4.61,4.61,0,0,0-4-1.66c-2.13.33-3.46,2.7-3.33,4.84a10.68,10.68,0,0,0,2.69,5.76c2.6,3.29,4.52,5.65,8.08,7.87a38.06,38.06,0,0,0,8-11.21,11.47,11.47,0,0,0,1.36-5.12A4.93,4.93,0,0,0,406.84,224.41Z"></path></g><path d="M386,154.34a13.54,13.54,0,0,1,2.55-12.13,17.78,17.78,0,0,1,8.06-5.19,19.11,19.11,0,0,1,12.79-.16c4.06,1.55,7.44,5.17,8,9.47.26,2,0,4,.68,5.86a4.34,4.34,0,0,1,.58,2.46,2.06,2.06,0,0,1-1.72,1.41,4.72,4.72,0,0,1-2.3-.38,24.63,24.63,0,0,1-6.64-4.43" style="fill:#263238"></path><path d="M415.28,147.27l-19.2-4.17c-6.12-.44-9.92,7.2-10.1,13.33-.21,6.82-.18,15.14.79,20.19,2,10.14,9.83,11.18,9.83,11.18s0,1.49.21,5.19a30.1,30.1,0,0,0,.3,6.3c0,.32.12.57.18.94a4.42,4.42,0,0,0,.44,1.09c3.16,6.05,13.47,4.28,17.68-1.09a12.9,12.9,0,0,0,2.75-7.83l.45-41.59A3.59,3.59,0,0,0,415.28,147.27Z" style="fill:#ffbe9d"></path><path d="M388.27,161.46a1.3,1.3,0,0,0,1.3,1.28,1.24,1.24,0,0,0,1.31-1.22,1.3,1.3,0,0,0-1.3-1.28A1.25,1.25,0,0,0,388.27,161.46Z" style="fill:#263238"></path><path d="M388,158.75c.13.19,1.22-.4,2.61-.19s2.32,1.05,2.49.9,0-.39-.43-.78a3.6,3.6,0,0,0-2-.93,3.46,3.46,0,0,0-2.12.36C388.15,158.37,388,158.66,388,158.75Z" style="fill:#263238"></path><path d="M402.1,161.46a1.3,1.3,0,0,0,1.31,1.28,1.24,1.24,0,0,0,1.3-1.22,1.3,1.3,0,0,0-1.3-1.28A1.25,1.25,0,0,0,402.1,161.46Z" style="fill:#263238"></path><path d="M401.83,158.77c.16.18,1.19-.49,2.59-.4s2.4.85,2.56.68-.06-.39-.5-.74a3.58,3.58,0,0,0-2-.76,3.42,3.42,0,0,0-2.08.54C401.92,158.39,401.76,158.69,401.83,158.77Z" style="fill:#263238"></path><path d="M397.19,169.47a8.84,8.84,0,0,0-2.3-.34c-.36,0-.7-.09-.77-.33a1.83,1.83,0,0,1,.2-1.07l1-2.78c1.34-3.94,2.3-7.18,2.14-7.23s-1.38,3.1-2.72,7.05c-.33,1-.63,1.9-.93,2.78a2.12,2.12,0,0,0-.14,1.42.93.93,0,0,0,.61.51,2.32,2.32,0,0,0,.61.06A9.28,9.28,0,0,0,397.19,169.47Z" style="fill:#263238"></path><path d="M396.6,187.8a26,26,0,0,0,13.54-4.1s-3.2,7.18-13.44,6.56Z" style="fill:#eb996e"></path><path d="M401.24,152.36c.15.38,1.55.15,3.21.3s3,.54,3.22.19c.09-.16-.15-.52-.7-.87a5.44,5.44,0,0,0-2.41-.75,5.23,5.23,0,0,0-2.49.38C401.47,151.87,401.18,152.18,401.24,152.36Z" style="fill:#263238"></path><path d="M388.31,152.81c.26.31,1.22-.05,2.38-.11s2.16.14,2.38-.2c.09-.16-.07-.48-.51-.77a3.45,3.45,0,0,0-3.84.25C388.32,152.32,388.2,152.66,388.31,152.81Z" style="fill:#263238"></path><path d="M416.29,168c0-.76.8-2.58,1.54-2.72,2-.38,5.61-.34,5.82,4.75.28,6.95-6.76,5.8-6.78,5.6S416.37,170.61,416.29,168Z" style="fill:#ffbe9d"></path><path d="M418.89,172.9s.12.08.33.16a1.12,1.12,0,0,0,.9,0,3,3,0,0,0,1.28-2.74,4,4,0,0,0-.4-1.72,1.41,1.41,0,0,0-.95-.89.61.61,0,0,0-.7.36c-.09.2,0,.33-.08.35s-.15-.12-.11-.4a.81.81,0,0,1,.26-.45,1,1,0,0,1,.66-.21,1.71,1.71,0,0,1,1.31,1,4.11,4.11,0,0,1,.5,1.92c0,1.41-.65,2.75-1.65,3.08a1.33,1.33,0,0,1-1.11-.14C418.9,173.06,418.86,172.91,418.89,172.9Z" style="fill:#eb996e"></path><path d="M395.08,141.93a9.51,9.51,0,0,0,6.55,7.18c1.75.5,3.85.62,4.91,2.1s.49,3.75,1.5,5.31c1.4,2.17,5.12,2,6.18,4.36.46,1,.25,2.26.73,3.28a3.2,3.2,0,0,0,3.86,1.43,5.15,5.15,0,0,0,3-3.16,14,14,0,0,0,.68-4.43,24.82,24.82,0,0,0-.86-8.76c-2-5.86-10.62-13.88-16.78-13.36" style="fill:#263238"></path><path d="M402,173.19a2.34,2.34,0,0,0-2.33-.52,6.39,6.39,0,0,0-2.13,1.2l0,.1c.4.73.82,1.45,1.25,2.17a1.5,1.5,0,0,0,.66.68,1.58,1.58,0,0,0,1.41-.29,3.46,3.46,0,0,0,1.37-1.72A1.67,1.67,0,0,0,402,173.19Z" style="fill:#eb996e"></path><path d="M399.76,176.88a3.77,3.77,0,0,0,1.33-.54,2.37,2.37,0,0,0,.84-1.22,2.2,2.2,0,0,0-.21-1.74,1.43,1.43,0,0,0-.61-.61,1,1,0,0,0-.77,0l-1.57.49a4.37,4.37,0,0,1-1.49.33,4.59,4.59,0,0,1,1.37-.68l1.53-.59a1.4,1.4,0,0,1,1.13-.06,1.85,1.85,0,0,1,.86.82,2.6,2.6,0,0,1-.87,3.52C400.41,177.18,399.73,176.93,399.76,176.88Z" style="fill:#263238"></path><path d="M421.73,175.41s.48.61.1,1.67a2.52,2.52,0,0,1-1.28,1.4,2.51,2.51,0,0,1-3.41-2.32,2.52,2.52,0,0,1,.83-1.71c.85-.74,1.62-.57,1.59-.52a3.52,3.52,0,0,0-1.34.79,2.21,2.21,0,0,0-.6,1.45,2,2,0,0,0,.91,1.61,2,2,0,0,0,1.83.26,2.24,2.24,0,0,0,1.13-1.1A3.42,3.42,0,0,0,421.73,175.41Z" style="fill:#fff"></path></g><g id="freepik--Floor--inject-16"><path d="M683.43,466.5c0,.15-140.32.27-313.38.27s-313.4-.12-313.4-.27,140.29-.26,313.4-.26S683.43,466.36,683.43,466.5Z" style="fill:#263238"></path></g></svg>